<svg width="213" height="68" viewBox="0 0 213 68" fill="none" xmlns="http://www.w3.org/2000/svg">
<path d="M63.6632 26.7375C62.9098 26.7375 62.2596 26.5551 61.7124 26.1903C61.1652 25.8255 60.7449 25.3219 60.4515 24.6796C60.166 24.0293 60.0233 23.2799 60.0233 22.4314C60.0233 21.5829 60.166 20.8374 60.4515 20.1951C60.7449 19.5448 61.1612 19.0373 61.7005 18.6725C62.2477 18.3077 62.9019 18.1253 63.6632 18.1253C64.4245 18.1253 65.0748 18.3077 65.614 18.6725C66.1612 19.0373 66.5775 19.5448 66.863 20.1951C67.1564 20.8374 67.3031 21.5829 67.3031 22.4314C67.3031 23.2799 67.1564 24.0293 66.863 24.6796C66.5775 25.3219 66.1612 25.8255 65.614 26.1903C65.0748 26.5551 64.4245 26.7375 63.6632 26.7375ZM63.6632 25.2981C64.0597 25.2981 64.4086 25.1832 64.71 24.9532C65.0113 24.7153 65.2453 24.3822 65.4118 23.954C65.5862 23.5258 65.6735 23.0182 65.6735 22.4314C65.6735 21.8366 65.5862 21.3291 65.4118 20.9088C65.2453 20.4806 65.0113 20.1515 64.71 19.9215C64.4086 19.6915 64.0597 19.5765 63.6632 19.5765C63.2667 19.5765 62.9178 19.6915 62.6164 19.9215C62.3151 20.1515 62.0772 20.4806 61.9027 20.9088C61.7362 21.3291 61.6529 21.8366 61.6529 22.4314C61.6529 23.0182 61.7362 23.5258 61.9027 23.954C62.0772 24.3822 62.3151 24.7153 62.6164 24.9532C62.9178 25.1832 63.2667 25.2981 63.6632 25.2981ZM68.8859 26.6542C68.5846 26.6542 68.3427 26.567 68.1603 26.3925C67.9779 26.2101 67.8867 25.9881 67.8867 25.7264C67.8867 25.4647 67.9779 25.2466 68.1603 25.0721C68.3427 24.8897 68.5846 24.7985 68.8859 24.7985C69.1714 24.7985 69.4054 24.8897 69.5877 25.0721C69.7701 25.2466 69.8613 25.4647 69.8613 25.7264C69.8613 25.9881 69.7701 26.2101 69.5877 26.3925C69.4054 26.567 69.1714 26.6542 68.8859 26.6542ZM73.9408 26.7375C73.4016 26.7375 72.906 26.6383 72.4539 26.4401C72.0019 26.2418 71.6411 25.9405 71.3715 25.5361C71.1018 25.1316 70.9591 24.6201 70.9432 24.0016H72.5134C72.5213 24.2633 72.5808 24.5012 72.6918 24.7153C72.8029 24.9215 72.9654 25.088 73.1795 25.2149C73.3937 25.3338 73.6474 25.3933 73.9408 25.3933C74.2184 25.3933 74.4563 25.3378 74.6546 25.2268C74.8528 25.1158 75.0035 24.969 75.1066 24.7867C75.2097 24.6043 75.2612 24.3941 75.2612 24.1562C75.2612 23.8787 75.1898 23.6487 75.0471 23.4663C74.9123 23.276 74.722 23.1332 74.4761 23.0381C74.2382 22.9429 73.9646 22.8953 73.6554 22.8953H73.0368V21.5749H73.6554C74.0439 21.5749 74.3691 21.4837 74.6308 21.3014C74.9004 21.119 75.0352 20.8454 75.0352 20.4806C75.0352 20.1792 74.9361 19.9374 74.7378 19.755C74.5475 19.5726 74.2779 19.4814 73.9289 19.4814C73.5483 19.4814 73.2509 19.5924 73.0368 19.8145C72.8227 20.0365 72.7037 20.3101 72.6799 20.6352H71.1098C71.1336 20.1118 71.2644 19.6638 71.5023 19.2911C71.7482 18.9104 72.0773 18.621 72.4896 18.4227C72.902 18.2245 73.3818 18.1253 73.9289 18.1253C74.5078 18.1253 74.9955 18.2284 75.3921 18.4346C75.7965 18.6329 76.1018 18.9025 76.308 19.2435C76.5142 19.5845 76.6173 19.9532 76.6173 20.3497C76.6173 20.6749 76.5538 20.9643 76.4269 21.2181C76.308 21.4719 76.1454 21.682 75.9392 21.8485C75.7331 22.0151 75.507 22.134 75.2612 22.2054C75.5705 22.2688 75.8401 22.3918 76.0701 22.5741C76.308 22.7486 76.4904 22.9746 76.6173 23.2522C76.7521 23.5297 76.8195 23.8509 76.8195 24.2157C76.8195 24.6677 76.7085 25.088 76.4864 25.4766C76.2723 25.8572 75.9472 26.1625 75.511 26.3925C75.0828 26.6225 74.5594 26.7375 73.9408 26.7375ZM80.906 29.3544C80.335 29.3544 79.8354 29.283 79.4072 29.1403C78.9789 29.0055 78.6459 28.7953 78.408 28.5099C78.178 28.2323 78.063 27.8873 78.063 27.475C78.063 27.1974 78.1344 26.9357 78.2771 26.6899C78.4199 26.4441 78.626 26.222 78.8957 26.0238C79.1732 25.8176 79.5182 25.6431 79.9305 25.5004L80.5372 26.2855C80.1724 26.4044 79.9068 26.5511 79.7402 26.7256C79.5816 26.908 79.5023 27.1023 79.5023 27.3084C79.5023 27.4908 79.5618 27.6455 79.6807 27.7724C79.8076 27.8992 79.9742 27.9904 80.1803 28.0459C80.3945 28.1094 80.6324 28.1411 80.8941 28.1411C81.1478 28.1411 81.3659 28.1094 81.5483 28.0459C81.7386 27.9825 81.8853 27.8873 81.9884 27.7605C82.0994 27.6415 82.155 27.4988 82.155 27.3322C82.155 27.1181 82.0796 26.9437 81.9289 26.8088C81.7783 26.674 81.4769 26.5908 81.0249 26.559C80.6205 26.5273 80.2596 26.4837 79.9424 26.4282C79.6332 26.3648 79.3596 26.2934 79.1217 26.2141C78.8838 26.1268 78.6815 26.0317 78.515 25.9286C78.3564 25.8255 78.2256 25.7224 78.1225 25.6193V25.3457L79.3953 23.9778L80.5491 24.3465L79.0503 25.8215L79.5023 25.0365C79.5896 25.084 79.6728 25.1316 79.7521 25.1792C79.8393 25.2188 79.9464 25.2585 80.0733 25.2981C80.2002 25.3299 80.3667 25.3616 80.5729 25.3933C80.7791 25.425 81.0408 25.4528 81.358 25.4766C81.8814 25.5242 82.3096 25.6233 82.6427 25.774C82.9837 25.9246 83.2335 26.1268 83.3921 26.3806C83.5507 26.6264 83.63 26.9318 83.63 27.2965C83.63 27.6534 83.5308 27.9865 83.3326 28.2957C83.1423 28.6129 82.8449 28.8667 82.4404 29.057C82.036 29.2553 81.5245 29.3544 80.906 29.3544ZM80.906 24.8223C80.4064 24.8223 79.9742 24.7272 79.6094 24.5369C79.2525 24.3386 78.975 24.0769 78.7767 23.7518C78.5864 23.4187 78.4912 23.05 78.4912 22.6455C78.4912 22.2411 78.5864 21.8763 78.7767 21.5512C78.975 21.2181 79.2525 20.9524 79.6094 20.7542C79.9742 20.5559 80.4064 20.4568 80.906 20.4568C81.4135 20.4568 81.8457 20.5559 82.2025 20.7542C82.5673 20.9524 82.8449 21.2181 83.0352 21.5512C83.2255 21.8763 83.3207 22.2411 83.3207 22.6455C83.3207 23.05 83.2255 23.4187 83.0352 23.7518C82.8449 24.0769 82.5673 24.3386 82.2025 24.5369C81.8457 24.7272 81.4135 24.8223 80.906 24.8223ZM80.906 23.5971C81.2152 23.5971 81.465 23.5178 81.6554 23.3592C81.8457 23.2006 81.9408 22.9667 81.9408 22.6574C81.9408 22.3481 81.8457 22.1142 81.6554 21.9556C81.465 21.7891 81.2152 21.7058 80.906 21.7058C80.6046 21.7058 80.3548 21.7891 80.1566 21.9556C79.9662 22.1142 79.8711 22.3481 79.8711 22.6574C79.8711 22.9667 79.9662 23.2006 80.1566 23.3592C80.3548 23.5178 80.6046 23.5971 80.906 23.5971ZM81.9052 21.7415L81.6435 20.5995H84.1058V21.5512L81.9052 21.7415ZM90.8748 26.7375C90.3276 26.7375 89.8359 26.6027 89.3998 26.333C88.9716 26.0634 88.6345 25.6907 88.3887 25.2149C88.1429 24.7391 88.0199 24.2038 88.0199 23.609C88.0199 22.9984 88.1429 22.4592 88.3887 21.9913C88.6425 21.5155 88.9874 21.1428 89.4236 20.8731C89.8677 20.5956 90.3633 20.4568 90.9105 20.4568C91.3387 20.4568 91.7154 20.5361 92.0405 20.6947C92.3657 20.8533 92.6274 21.0793 92.8256 21.3727V18.0302H94.4315V26.5947H93.004L92.8256 25.774C92.7067 25.9405 92.556 26.0991 92.3736 26.2498C92.1991 26.4004 91.989 26.5194 91.7431 26.6066C91.4973 26.6939 91.2079 26.7375 90.8748 26.7375ZM91.2554 25.3338C91.5726 25.3338 91.8502 25.2625 92.0881 25.1197C92.3339 24.969 92.5243 24.7629 92.6591 24.5012C92.7939 24.2395 92.8613 23.9381 92.8613 23.5971C92.8613 23.2561 92.7939 22.9548 92.6591 22.6931C92.5243 22.4314 92.3339 22.2292 92.0881 22.0864C91.8502 21.9358 91.5726 21.8604 91.2554 21.8604C90.9541 21.8604 90.6805 21.9358 90.4347 22.0864C90.1888 22.2292 89.9945 22.4314 89.8518 22.6931C89.717 22.9548 89.6496 23.2522 89.6496 23.5852C89.6496 23.9342 89.717 24.2395 89.8518 24.5012C89.9945 24.7629 90.1849 24.969 90.4228 25.1197C90.6686 25.2625 90.9462 25.3338 91.2554 25.3338ZM98.8835 26.7375C98.2808 26.7375 97.7455 26.6106 97.2777 26.3568C96.8177 26.0951 96.4569 25.7343 96.1952 25.2744C95.9414 24.8065 95.8146 24.2672 95.8146 23.6566C95.8146 23.0301 95.9414 22.479 96.1952 22.0032C96.4569 21.5194 96.8177 21.1428 97.2777 20.8731C97.7376 20.5956 98.2729 20.4568 98.8835 20.4568C99.4783 20.4568 99.9977 20.5876 100.442 20.8493C100.886 21.111 101.231 21.4639 101.477 21.908C101.723 22.3521 101.845 22.8557 101.845 23.4187C101.845 23.498 101.845 23.5892 101.845 23.6923C101.845 23.7875 101.838 23.8866 101.822 23.9897H96.9565V23.0143H100.228C100.204 22.6257 100.065 22.3204 99.8114 22.0983C99.5655 21.8763 99.2562 21.7653 98.8835 21.7653C98.6139 21.7653 98.3641 21.8287 98.1341 21.9556C97.9042 22.0745 97.7218 22.2609 97.5869 22.5147C97.4601 22.7684 97.3966 23.0896 97.3966 23.4782V23.8231C97.3966 24.1483 97.4561 24.4338 97.5751 24.6796C97.7019 24.9175 97.8764 25.1039 98.0984 25.2387C98.3205 25.3656 98.5782 25.429 98.8716 25.429C99.165 25.429 99.4069 25.3656 99.5972 25.2387C99.7955 25.1118 99.9422 24.9492 100.037 24.751H101.679C101.568 25.1237 101.382 25.4607 101.12 25.7621C100.858 26.0634 100.537 26.3013 100.156 26.4758C99.7757 26.6502 99.3514 26.7375 98.8835 26.7375ZM109.731 26.7375C108.898 26.7375 108.181 26.559 107.578 26.2022C106.983 25.8374 106.523 25.3338 106.198 24.6915C105.881 24.0412 105.722 23.2918 105.722 22.4433C105.722 21.5948 105.881 20.8454 106.198 20.1951C106.523 19.5448 106.983 19.0373 107.578 18.6725C108.181 18.3077 108.898 18.1253 109.731 18.1253C110.738 18.1253 111.563 18.3751 112.205 18.8747C112.847 19.3743 113.248 20.0801 113.407 20.9921H111.658C111.555 20.548 111.337 20.203 111.004 19.9572C110.679 19.7034 110.25 19.5765 109.719 19.5765C109.227 19.5765 108.803 19.6955 108.446 19.9334C108.097 20.1634 107.828 20.4925 107.637 20.9207C107.447 21.341 107.352 21.8485 107.352 22.4433C107.352 23.0301 107.447 23.5377 107.637 23.9659C107.828 24.3941 108.097 24.7232 108.446 24.9532C108.803 25.1832 109.227 25.2981 109.719 25.2981C110.25 25.2981 110.679 25.1832 111.004 24.9532C111.329 24.7153 111.543 24.3862 111.646 23.9659H113.407C113.248 24.8303 112.847 25.5083 112.205 26C111.563 26.4916 110.738 26.7375 109.731 26.7375ZM118.62 26.7375C117.811 26.7375 117.097 26.5551 116.479 26.1903C115.86 25.8255 115.377 25.3219 115.028 24.6796C114.679 24.0293 114.504 23.2799 114.504 22.4314C114.504 21.5829 114.679 20.8374 115.028 20.1951C115.377 19.5448 115.86 19.0373 116.479 18.6725C117.097 18.3077 117.811 18.1253 118.62 18.1253C119.437 18.1253 120.154 18.3077 120.773 18.6725C121.392 19.0373 121.871 19.5448 122.212 20.1951C122.561 20.8374 122.736 21.5829 122.736 22.4314C122.736 23.2799 122.561 24.0293 122.212 24.6796C121.871 25.3219 121.392 25.8255 120.773 26.1903C120.154 26.5551 119.437 26.7375 118.62 26.7375ZM118.62 25.2981C119.128 25.2981 119.564 25.1832 119.928 24.9532C120.301 24.7153 120.591 24.3822 120.797 23.954C121.003 23.5258 121.106 23.0182 121.106 22.4314C121.106 21.8366 121.003 21.3291 120.797 20.9088C120.591 20.4806 120.301 20.1515 119.928 19.9215C119.564 19.6915 119.128 19.5765 118.62 19.5765C118.12 19.5765 117.684 19.6915 117.312 19.9215C116.939 20.1515 116.649 20.4806 116.443 20.9088C116.237 21.3291 116.134 21.8366 116.134 22.4314C116.134 23.0182 116.237 23.5258 116.443 23.954C116.649 24.3822 116.939 24.7153 117.312 24.9532C117.684 25.1832 118.12 25.2981 118.62 25.2981ZM123.635 28.5947V27.8596C123.935 27.6169 124.227 27.3767 124.513 27.1388C124.798 26.8961 125.055 26.6582 125.283 26.425C125.512 26.1871 125.693 25.9564 125.826 25.7327C125.959 25.5043 126.026 25.2831 126.026 25.069C126.026 24.9453 126.002 24.8287 125.954 24.7193C125.907 24.6098 125.833 24.5218 125.733 24.4552C125.633 24.3886 125.502 24.3553 125.341 24.3553C125.184 24.3553 125.048 24.3933 124.934 24.4695C124.824 24.5408 124.741 24.6384 124.684 24.7621C124.632 24.8858 124.605 25.0262 124.605 25.1832H123.642C123.651 24.8073 123.732 24.4956 123.885 24.2482C124.042 24.0008 124.249 23.8176 124.506 23.6987C124.767 23.5749 125.057 23.5131 125.376 23.5131C125.733 23.5131 126.033 23.5797 126.276 23.7129C126.523 23.8414 126.709 24.0198 126.832 24.2482C126.961 24.4718 127.025 24.7264 127.025 25.0119C127.025 25.2308 126.984 25.4449 126.904 25.6542C126.827 25.8588 126.72 26.0587 126.582 26.2537C126.444 26.4488 126.287 26.6368 126.111 26.8176C125.94 26.9936 125.759 27.1625 125.569 27.3243C125.383 27.4861 125.2 27.6384 125.019 27.7811H127.139V28.5947H123.635ZM131.21 29.2117V20.5995H132.637L132.816 21.4322C132.943 21.2577 133.093 21.0991 133.268 20.9564C133.442 20.8057 133.648 20.6868 133.886 20.5995C134.132 20.5044 134.418 20.4568 134.743 20.4568C135.306 20.4568 135.802 20.5956 136.23 20.8731C136.658 21.1507 136.995 21.5274 137.241 22.0032C137.495 22.4711 137.622 23.0063 137.622 23.609C137.622 24.2117 137.495 24.751 137.241 25.2268C136.987 25.6947 136.646 26.0634 136.218 26.333C135.79 26.6027 135.302 26.7375 134.755 26.7375C134.311 26.7375 133.926 26.6582 133.601 26.4996C133.284 26.333 133.022 26.107 132.816 25.8215V29.2117H131.21ZM134.374 25.3338C134.691 25.3338 134.969 25.2625 135.207 25.1197C135.453 24.977 135.643 24.7748 135.778 24.5131C135.913 24.2514 135.98 23.95 135.98 23.609C135.98 23.268 135.913 22.9667 135.778 22.705C135.643 22.4354 135.453 22.2292 135.207 22.0864C134.969 21.9358 134.691 21.8604 134.374 21.8604C134.065 21.8604 133.787 21.9358 133.541 22.0864C133.304 22.2292 133.113 22.4314 132.97 22.6931C132.836 22.9548 132.768 23.2561 132.768 23.5971C132.768 23.9381 132.836 24.2434 132.97 24.5131C133.113 24.7748 133.304 24.977 133.541 25.1197C133.787 25.2625 134.065 25.3338 134.374 25.3338ZM141.836 26.7375C141.265 26.7375 140.749 26.6066 140.289 26.3449C139.837 26.0753 139.476 25.7066 139.207 25.2387C138.945 24.7629 138.814 24.2196 138.814 23.609C138.814 22.9825 138.945 22.4354 139.207 21.9675C139.476 21.4917 139.841 21.1229 140.301 20.8612C140.761 20.5916 141.277 20.4568 141.848 20.4568C142.426 20.4568 142.942 20.5916 143.394 20.8612C143.854 21.1229 144.215 21.4917 144.476 21.9675C144.746 22.4354 144.881 22.9786 144.881 23.5971C144.881 24.2157 144.746 24.7629 144.476 25.2387C144.215 25.7066 143.854 26.0753 143.394 26.3449C142.934 26.6066 142.415 26.7375 141.836 26.7375ZM141.836 25.3457C142.105 25.3457 142.343 25.2823 142.549 25.1554C142.763 25.0285 142.93 24.8342 143.049 24.5725C143.176 24.3108 143.239 23.9857 143.239 23.5971C143.239 23.2086 143.176 22.8874 143.049 22.6336C142.93 22.3719 142.763 22.1776 142.549 22.0508C142.343 21.9159 142.109 21.8485 141.848 21.8485C141.594 21.8485 141.36 21.9159 141.146 22.0508C140.932 22.1776 140.761 22.3719 140.634 22.6336C140.515 22.8874 140.456 23.2086 140.456 23.5971C140.456 23.9857 140.515 24.3108 140.634 24.5725C140.761 24.8342 140.928 25.0285 141.134 25.1554C141.348 25.2823 141.582 25.3457 141.836 25.3457ZM146.265 26.5947V20.5995H147.692L147.847 21.7058C147.99 21.4441 148.168 21.2221 148.382 21.0397C148.604 20.8573 148.854 20.7145 149.132 20.6114C149.417 20.5083 149.73 20.4568 150.071 20.4568V22.1578H149.524C149.286 22.1578 149.064 22.1856 148.858 22.2411C148.66 22.2966 148.485 22.3878 148.335 22.5147C148.184 22.6336 148.069 22.8002 147.99 23.0143C147.91 23.2284 147.871 23.498 147.871 23.8231V26.5947H146.265ZM155.538 26.5947L153.337 20.5995H155.026L156.513 25.084L158 20.5995H159.677L157.488 26.5947H155.538ZM160.693 26.5947V20.5995H162.299V26.5947H160.693ZM161.502 19.7788C161.217 19.7788 160.979 19.6955 160.788 19.529C160.606 19.3545 160.515 19.1364 160.515 18.8747C160.515 18.613 160.606 18.3989 160.788 18.2324C160.979 18.0579 161.217 17.9707 161.502 17.9707C161.796 17.9707 162.033 18.0579 162.216 18.2324C162.406 18.3989 162.501 18.613 162.501 18.8747C162.501 19.1364 162.406 19.3545 162.216 19.529C162.033 19.6955 161.796 19.7788 161.502 19.7788ZM166.372 26.7375C165.825 26.7375 165.349 26.6502 164.945 26.4758C164.54 26.3013 164.223 26.0594 163.993 25.7502C163.763 25.4409 163.632 25.092 163.601 24.7034H165.195C165.234 24.8541 165.302 24.9928 165.397 25.1197C165.492 25.2387 165.619 25.3338 165.777 25.4052C165.936 25.4766 166.126 25.5123 166.348 25.5123C166.563 25.5123 166.737 25.4845 166.872 25.429C167.007 25.3656 167.106 25.2823 167.169 25.1792C167.241 25.0761 167.276 24.969 167.276 24.858C167.276 24.6915 167.229 24.5646 167.134 24.4774C167.038 24.3822 166.9 24.3069 166.717 24.2514C166.535 24.1959 166.313 24.1403 166.051 24.0848C165.766 24.0293 165.484 23.9619 165.207 23.8826C164.937 23.7954 164.695 23.6883 164.481 23.5614C164.267 23.4346 164.096 23.272 163.969 23.0737C163.843 22.8755 163.779 22.6297 163.779 22.3362C163.779 21.9794 163.874 21.6622 164.065 21.3846C164.255 21.0991 164.532 20.8731 164.897 20.7066C165.262 20.5401 165.702 20.4568 166.218 20.4568C166.939 20.4568 167.51 20.6194 167.931 20.9445C168.351 21.2696 168.601 21.7177 168.68 22.2887H167.169C167.122 22.1063 167.015 21.9635 166.848 21.8604C166.689 21.7494 166.475 21.6939 166.206 21.6939C165.92 21.6939 165.702 21.7454 165.551 21.8485C165.401 21.9516 165.325 22.0864 165.325 22.253C165.325 22.364 165.373 22.4631 165.468 22.5504C165.571 22.6376 165.714 22.7129 165.896 22.7764C166.079 22.8319 166.301 22.8874 166.563 22.9429C167.023 23.0381 167.427 23.1491 167.776 23.276C168.125 23.3949 168.398 23.5694 168.597 23.7994C168.795 24.0214 168.894 24.3465 168.894 24.7748C168.894 25.1554 168.791 25.4964 168.585 25.7977C168.379 26.0912 168.085 26.3211 167.704 26.4877C167.332 26.6542 166.888 26.7375 166.372 26.7375ZM170.288 26.5947V20.5995H171.894V26.5947H170.288ZM171.097 19.7788C170.812 19.7788 170.574 19.6955 170.384 19.529C170.201 19.3545 170.11 19.1364 170.11 18.8747C170.11 18.613 170.201 18.3989 170.384 18.2324C170.574 18.0579 170.812 17.9707 171.097 17.9707C171.391 17.9707 171.629 18.0579 171.811 18.2324C172.001 18.3989 172.097 18.613 172.097 18.8747C172.097 19.1364 172.001 19.3545 171.811 19.529C171.629 19.6955 171.391 19.7788 171.097 19.7788ZM176.217 26.5947C175.797 26.5947 175.428 26.5313 175.111 26.4044C174.802 26.2696 174.56 26.0515 174.385 25.7502C174.211 25.4409 174.124 25.0206 174.124 24.4893V21.9437H173.101V20.5995H174.124L174.302 18.9699H175.729V20.5995H177.312V21.9437H175.729V24.5131C175.729 24.7827 175.789 24.969 175.908 25.0721C176.027 25.1752 176.229 25.2268 176.515 25.2268H177.3V26.5947H176.217ZM180.685 26.7375C180.186 26.7375 179.773 26.6582 179.448 26.4996C179.123 26.333 178.881 26.115 178.723 25.8453C178.572 25.5678 178.497 25.2625 178.497 24.9294C178.497 24.5646 178.588 24.2434 178.77 23.9659C178.96 23.6883 179.242 23.4703 179.615 23.3116C179.995 23.153 180.471 23.0737 181.042 23.0737H182.529C182.529 22.7803 182.489 22.5385 182.41 22.3481C182.331 22.1499 182.208 22.0032 182.041 21.908C181.875 21.8129 181.653 21.7653 181.375 21.7653C181.074 21.7653 180.816 21.8327 180.602 21.9675C180.396 22.0944 180.269 22.2926 180.221 22.5622H178.663C178.703 22.134 178.841 21.7653 179.079 21.456C179.325 21.1388 179.646 20.893 180.043 20.7185C180.447 20.544 180.895 20.4568 181.387 20.4568C181.95 20.4568 182.438 20.552 182.85 20.7423C183.263 20.9326 183.58 21.2062 183.802 21.5631C184.024 21.9199 184.135 22.36 184.135 22.8834V26.5947H182.779L182.6 25.6788C182.513 25.8374 182.41 25.9801 182.291 26.107C182.172 26.2339 182.033 26.3449 181.875 26.4401C181.716 26.5353 181.538 26.6066 181.339 26.6542C181.141 26.7097 180.923 26.7375 180.685 26.7375ZM181.066 25.5004C181.272 25.5004 181.454 25.4647 181.613 25.3933C181.78 25.314 181.922 25.2109 182.041 25.084C182.16 24.9492 182.251 24.7985 182.315 24.632C182.386 24.4576 182.434 24.2712 182.458 24.0729V24.061H181.232C180.987 24.061 180.784 24.0928 180.626 24.1562C180.475 24.2117 180.364 24.295 180.293 24.406C180.221 24.517 180.186 24.6439 180.186 24.7867C180.186 24.9453 180.221 25.0761 180.293 25.1792C180.364 25.2823 180.467 25.3616 180.602 25.4171C180.737 25.4726 180.891 25.5004 181.066 25.5004Z" fill="#F0F2F1"/>
<path d="M61.8466 54.6728C61.4592 54.6728 61.1125 54.6065 60.8066 54.474C60.5059 54.3415 60.2663 54.1477 60.0878 53.8928C59.9145 53.6379 59.8253 53.3295 59.8202 52.9676H60.9137C60.9188 53.1256 60.9596 53.2683 61.036 53.3958C61.1125 53.5232 61.217 53.6252 61.3496 53.7017C61.4872 53.773 61.6503 53.8087 61.839 53.8087C62.0021 53.8087 62.1423 53.7832 62.2596 53.7322C62.3819 53.6762 62.4762 53.5997 62.5425 53.5028C62.6088 53.406 62.6419 53.2913 62.6419 53.1587C62.6419 53.0058 62.6037 52.8783 62.5272 52.7764C62.4558 52.6744 62.3539 52.5878 62.2213 52.5164C62.0939 52.445 61.9435 52.3813 61.7702 52.3252C61.6019 52.264 61.4235 52.2003 61.2349 52.134C60.8117 51.9964 60.488 51.8129 60.2637 51.5835C60.0445 51.3541 59.9349 51.0507 59.9349 50.6735C59.9349 50.3523 60.0114 50.077 60.1643 49.8476C60.3223 49.6182 60.539 49.4423 60.8143 49.32C61.0896 49.1976 61.4031 49.1364 61.7549 49.1364C62.1168 49.1364 62.4329 49.2002 62.7031 49.3276C62.9784 49.45 63.195 49.6284 63.3531 49.8629C63.5162 50.0974 63.6003 50.3727 63.6054 50.6888H62.5043C62.4992 50.5715 62.4635 50.4619 62.3972 50.36C62.336 50.2529 62.2494 50.1688 62.1372 50.1076C62.025 50.0413 61.8925 50.0082 61.7396 50.0082C61.607 50.0031 61.4847 50.0235 61.3725 50.0694C61.2655 50.1153 61.1788 50.1841 61.1125 50.2758C61.0513 50.3625 61.0208 50.4721 61.0208 50.6047C61.0208 50.7321 61.0513 50.8392 61.1125 50.9258C61.1788 51.0125 61.268 51.089 61.3802 51.1552C61.4923 51.2164 61.6249 51.275 61.7778 51.3311C61.9307 51.3821 62.0964 51.4356 62.2748 51.4917C62.5399 51.5835 62.7846 51.6931 63.009 51.8205C63.2333 51.9429 63.4117 52.1035 63.5442 52.3023C63.6768 52.5011 63.7431 52.7636 63.7431 53.0899C63.7431 53.3703 63.6691 53.6303 63.5213 53.8699C63.3735 54.1095 63.1593 54.3032 62.879 54.4511C62.6037 54.5989 62.2596 54.6728 61.8466 54.6728ZM64.6187 54.5811V50.727H65.6511V54.5811H64.6187ZM65.1387 50.1994C64.9552 50.1994 64.8023 50.1458 64.6799 50.0388C64.5627 49.9266 64.504 49.7864 64.504 49.6182C64.504 49.45 64.5627 49.3123 64.6799 49.2053C64.8023 49.0931 64.9552 49.037 65.1387 49.037C65.3274 49.037 65.4803 49.0931 65.5976 49.2053C65.7199 49.3123 65.7811 49.45 65.7811 49.6182C65.7811 49.7864 65.7199 49.9266 65.5976 50.0388C65.4803 50.1458 65.3274 50.1994 65.1387 50.1994ZM68.4301 54.5811C68.1599 54.5811 67.9228 54.5403 67.7189 54.4587C67.5201 54.372 67.3646 54.2318 67.2525 54.0381C67.1403 53.8393 67.0842 53.5691 67.0842 53.2275V51.5911H66.4266V50.727H67.0842L67.1989 49.6794H68.1166V50.727H69.1336V51.5911H68.1166V53.2428C68.1166 53.4162 68.1548 53.536 68.2313 53.6022C68.3077 53.6685 68.4377 53.7017 68.6213 53.7017H69.126V54.5811H68.4301ZM70.0254 54.5811V50.727H71.0577V54.5811H70.0254ZM70.5454 50.1994C70.3618 50.1994 70.2089 50.1458 70.0865 50.0388C69.9693 49.9266 69.9107 49.7864 69.9107 49.6182C69.9107 49.45 69.9693 49.3123 70.0865 49.2053C70.2089 49.0931 70.3618 49.037 70.5454 49.037C70.734 49.037 70.8869 49.0931 71.0042 49.2053C71.1265 49.3123 71.1877 49.45 71.1877 49.6182C71.1877 49.7864 71.1265 49.9266 71.0042 50.0388C70.8869 50.1458 70.734 50.1994 70.5454 50.1994ZM73.9208 54.6728C73.5538 54.6728 73.2224 54.5887 72.9267 54.4205C72.6361 54.2471 72.4042 54.0101 72.2308 53.7093C72.0626 53.4034 71.9785 53.0542 71.9785 52.6617C71.9785 52.2589 72.0626 51.9072 72.2308 51.6064C72.4042 51.3005 72.6387 51.0635 72.9344 50.8952C73.23 50.7219 73.5614 50.6352 73.9285 50.6352C74.3006 50.6352 74.632 50.7219 74.9226 50.8952C75.2182 51.0635 75.4502 51.3005 75.6184 51.6064C75.7918 51.9072 75.8784 52.2564 75.8784 52.654C75.8784 53.0517 75.7918 53.4034 75.6184 53.7093C75.4502 54.0101 75.2182 54.2471 74.9226 54.4205C74.6269 54.5887 74.293 54.6728 73.9208 54.6728ZM73.9208 53.7781C74.0941 53.7781 74.2471 53.7373 74.3796 53.6558C74.5173 53.5742 74.6243 53.4493 74.7008 53.2811C74.7824 53.1128 74.8232 52.9038 74.8232 52.654C74.8232 52.4042 74.7824 52.1978 74.7008 52.0346C74.6243 51.8664 74.5173 51.7415 74.3796 51.6599C74.2471 51.5733 74.0967 51.5299 73.9285 51.5299C73.7653 51.5299 73.6149 51.5733 73.4773 51.6599C73.3396 51.7415 73.23 51.8664 73.1485 52.0346C73.072 52.1978 73.0338 52.4042 73.0338 52.654C73.0338 52.9038 73.072 53.1128 73.1485 53.2811C73.23 53.4493 73.3371 53.5742 73.4696 53.6558C73.6073 53.7373 73.7577 53.7781 73.9208 53.7781ZM79.3249 54.5811L78.1932 50.727H79.2102L79.9596 53.8546L79.7684 53.847L80.6249 50.727H81.7719L82.6284 53.847L82.4296 53.8546L83.1866 50.727H84.2037L83.0719 54.5811H82.0013L81.0914 51.3693H81.3055L80.3955 54.5811H79.3249ZM86.5643 54.6728C86.1769 54.6728 85.8328 54.5913 85.532 54.4281C85.2363 54.2599 85.0044 54.0279 84.8361 53.7322C84.673 53.4315 84.5914 53.0848 84.5914 52.6923C84.5914 52.2895 84.673 51.9352 84.8361 51.6293C85.0044 51.3184 85.2363 51.0762 85.532 50.9029C85.8277 50.7245 86.1718 50.6352 86.5643 50.6352C86.9467 50.6352 87.2806 50.7194 87.5661 50.8876C87.8516 51.0558 88.0733 51.2827 88.2314 51.5682C88.3894 51.8537 88.4684 52.1774 88.4684 52.5393C88.4684 52.5903 88.4684 52.6489 88.4684 52.7152C88.4684 52.7764 88.4633 52.8401 88.4531 52.9064H85.3255V52.2793H87.4284C87.4132 52.0295 87.3239 51.8333 87.1608 51.6905C87.0028 51.5478 86.8039 51.4764 86.5643 51.4764C86.391 51.4764 86.2304 51.5172 86.0826 51.5988C85.9347 51.6752 85.8175 51.795 85.7308 51.9582C85.6493 52.1213 85.6085 52.3278 85.6085 52.5776V52.7993C85.6085 53.0083 85.6467 53.1919 85.7232 53.3499C85.8047 53.5028 85.9169 53.6226 86.0596 53.7093C86.2024 53.7909 86.3681 53.8317 86.5567 53.8317C86.7453 53.8317 86.9008 53.7909 87.0232 53.7093C87.1506 53.6277 87.2449 53.5232 87.3061 53.3958H88.3614C88.29 53.6354 88.1702 53.852 88.002 54.0458C87.8337 54.2395 87.6273 54.3924 87.3826 54.5046C87.1379 54.6167 86.8651 54.6728 86.5643 54.6728ZM91.5927 54.6728C91.3939 54.6728 91.2154 54.6473 91.0574 54.5963C90.9044 54.5454 90.7668 54.4765 90.6445 54.3899C90.5272 54.2981 90.4278 54.1962 90.3462 54.084L90.2315 54.5811H89.3139V49.0753H90.3462V51.2623C90.4686 51.0839 90.6292 50.936 90.828 50.8188C91.0319 50.6964 91.2842 50.6352 91.585 50.6352C91.9419 50.6352 92.258 50.7245 92.5332 50.9029C92.8136 51.0762 93.0328 51.3158 93.1909 51.6217C93.354 51.9225 93.4356 52.2691 93.4356 52.6617C93.4356 53.044 93.354 53.3881 93.1909 53.694C93.0328 53.9999 92.8162 54.2395 92.5409 54.4128C92.2656 54.5862 91.9495 54.6728 91.5927 54.6728ZM91.348 53.7705C91.5519 53.7705 91.7303 53.7246 91.8833 53.6328C92.0413 53.536 92.1636 53.406 92.2503 53.2428C92.337 53.0746 92.3803 52.8809 92.3803 52.6617C92.3803 52.4425 92.337 52.2487 92.2503 52.0805C92.1636 51.9072 92.0413 51.7746 91.8833 51.6829C91.7303 51.586 91.5519 51.5376 91.348 51.5376C91.1492 51.5376 90.9707 51.586 90.8127 51.6829C90.6597 51.7746 90.5374 51.9046 90.4456 52.0729C90.359 52.2411 90.3156 52.4348 90.3156 52.654C90.3156 52.8732 90.359 53.0695 90.4456 53.2428C90.5374 53.4111 90.6597 53.5411 90.8127 53.6328C90.9707 53.7246 91.1492 53.7705 91.348 53.7705ZM97.8373 54.6728C97.4856 54.6728 97.1695 54.5862 96.8891 54.4128C96.6138 54.2395 96.3972 53.9999 96.2391 53.694C96.0811 53.3881 96.0021 53.044 96.0021 52.6617C96.0021 52.2691 96.0811 51.9225 96.2391 51.6217C96.4023 51.3158 96.624 51.0762 96.9044 50.9029C97.1899 50.7245 97.5085 50.6352 97.8603 50.6352C98.1356 50.6352 98.3777 50.6862 98.5867 50.7882C98.7958 50.8901 98.964 51.0354 99.0914 51.2241V49.0753H100.124V54.5811H99.2061L99.0914 54.0534C99.015 54.1605 98.9181 54.2624 98.8009 54.3593C98.6887 54.4562 98.5536 54.5326 98.3956 54.5887C98.2375 54.6448 98.0515 54.6728 97.8373 54.6728ZM98.082 53.7705C98.286 53.7705 98.4644 53.7246 98.6173 53.6328C98.7754 53.536 98.8977 53.4034 98.9844 53.2352C99.071 53.067 99.1144 52.8732 99.1144 52.654C99.1144 52.4348 99.071 52.2411 98.9844 52.0729C98.8977 51.9046 98.7754 51.7746 98.6173 51.6829C98.4644 51.586 98.286 51.5376 98.082 51.5376C97.8883 51.5376 97.7124 51.586 97.5544 51.6829C97.3964 51.7746 97.2715 51.9046 97.1797 52.0729C97.093 52.2411 97.0497 52.4323 97.0497 52.6464C97.0497 52.8707 97.093 53.067 97.1797 53.2352C97.2715 53.4034 97.3938 53.536 97.5468 53.6328C97.7048 53.7246 97.8832 53.7705 98.082 53.7705ZM102.986 54.6728C102.598 54.6728 102.254 54.5913 101.953 54.4281C101.658 54.2599 101.426 54.0279 101.258 53.7322C101.094 53.4315 101.013 53.0848 101.013 52.6923C101.013 52.2895 101.094 51.9352 101.258 51.6293C101.426 51.3184 101.658 51.0762 101.953 50.9029C102.249 50.7245 102.593 50.6352 102.986 50.6352C103.368 50.6352 103.702 50.7194 103.988 50.8876C104.273 51.0558 104.495 51.2827 104.653 51.5682C104.811 51.8537 104.89 52.1774 104.89 52.5393C104.89 52.5903 104.89 52.6489 104.89 52.7152C104.89 52.7764 104.885 52.8401 104.875 52.9064H101.747V52.2793H103.85C103.835 52.0295 103.745 51.8333 103.582 51.6905C103.424 51.5478 103.225 51.4764 102.986 51.4764C102.812 51.4764 102.652 51.5172 102.504 51.5988C102.356 51.6752 102.239 51.795 102.152 51.9582C102.071 52.1213 102.03 52.3278 102.03 52.5776V52.7993C102.03 53.0083 102.068 53.1919 102.145 53.3499C102.226 53.5028 102.338 53.6226 102.481 53.7093C102.624 53.7909 102.79 53.8317 102.978 53.8317C103.167 53.8317 103.322 53.7909 103.445 53.7093C103.572 53.6277 103.666 53.5232 103.728 53.3958H104.783C104.711 53.6354 104.592 53.852 104.423 54.0458C104.255 54.2395 104.049 54.3924 103.804 54.5046C103.559 54.6167 103.287 54.6728 102.986 54.6728ZM109.814 54.6728C109.615 54.6728 109.437 54.6473 109.279 54.5963C109.126 54.5454 108.988 54.4765 108.866 54.3899C108.748 54.2981 108.649 54.1962 108.567 54.084L108.453 54.5811H107.535V49.0753H108.567V51.2623C108.69 51.0839 108.85 50.936 109.049 50.8188C109.253 50.6964 109.505 50.6352 109.806 50.6352C110.163 50.6352 110.479 50.7245 110.754 50.9029C111.035 51.0762 111.254 51.3158 111.412 51.6217C111.575 51.9225 111.657 52.2691 111.657 52.6617C111.657 53.044 111.575 53.3881 111.412 53.694C111.254 53.9999 111.037 54.2395 110.762 54.4128C110.487 54.5862 110.171 54.6728 109.814 54.6728ZM109.569 53.7705C109.773 53.7705 109.952 53.7246 110.104 53.6328C110.262 53.536 110.385 53.406 110.471 53.2428C110.558 53.0746 110.601 52.8809 110.601 52.6617C110.601 52.4425 110.558 52.2487 110.471 52.0805C110.385 51.9072 110.262 51.7746 110.104 51.6829C109.952 51.586 109.773 51.5376 109.569 51.5376C109.37 51.5376 109.192 51.586 109.034 51.6829C108.881 51.7746 108.759 51.9046 108.667 52.0729C108.58 52.2411 108.537 52.4348 108.537 52.654C108.537 52.8732 108.58 53.0695 108.667 53.2428C108.759 53.4111 108.881 53.5411 109.034 53.6328C109.192 53.7246 109.37 53.7705 109.569 53.7705ZM113.846 54.6728C113.525 54.6728 113.26 54.6218 113.051 54.5199C112.842 54.4128 112.686 54.2726 112.584 54.0993C112.487 53.9209 112.439 53.7246 112.439 53.5105C112.439 53.276 112.497 53.0695 112.615 52.8911C112.737 52.7127 112.918 52.5725 113.158 52.4705C113.402 52.3685 113.708 52.3176 114.075 52.3176H115.031C115.031 52.1289 115.006 51.9735 114.955 51.8511C114.904 51.7237 114.825 51.6293 114.718 51.5682C114.611 51.507 114.468 51.4764 114.289 51.4764C114.096 51.4764 113.93 51.5197 113.792 51.6064C113.66 51.688 113.578 51.8154 113.548 51.9887H112.546C112.571 51.7135 112.661 51.4764 112.814 51.2776C112.972 51.0737 113.178 50.9156 113.433 50.8035C113.693 50.6913 113.981 50.6352 114.297 50.6352C114.659 50.6352 114.973 50.6964 115.238 50.8188C115.503 50.9411 115.707 51.117 115.849 51.3464C115.992 51.5758 116.063 51.8587 116.063 52.1952V54.5811H115.192L115.077 53.9922C115.021 54.0942 114.955 54.186 114.878 54.2675C114.802 54.3491 114.713 54.4205 114.611 54.4816C114.509 54.5428 114.394 54.5887 114.266 54.6193C114.139 54.655 113.999 54.6728 113.846 54.6728ZM114.091 53.8775C114.223 53.8775 114.34 53.8546 114.442 53.8087C114.549 53.7577 114.641 53.6915 114.718 53.6099C114.794 53.5232 114.853 53.4264 114.894 53.3193C114.939 53.2072 114.97 53.0874 114.985 52.9599V52.9523H114.198C114.04 52.9523 113.91 52.9727 113.808 53.0134C113.711 53.0491 113.639 53.1026 113.594 53.174C113.548 53.2454 113.525 53.327 113.525 53.4187C113.525 53.5207 113.548 53.6048 113.594 53.6711C113.639 53.7373 113.706 53.7883 113.792 53.824C113.879 53.8597 113.978 53.8775 114.091 53.8775ZM116.3 56.2634V55.384H116.614C116.777 55.384 116.891 55.3508 116.958 55.2846C117.029 55.2183 117.065 55.1112 117.065 54.9634V50.727H118.097V54.9558C118.097 55.2718 118.041 55.5242 117.929 55.7128C117.822 55.9065 117.669 56.0467 117.47 56.1334C117.271 56.22 117.037 56.2634 116.767 56.2634H116.3ZM117.585 50.1994C117.396 50.1994 117.243 50.1458 117.126 50.0388C117.009 49.9266 116.95 49.7864 116.95 49.6182C116.95 49.45 117.009 49.3123 117.126 49.2053C117.243 49.0931 117.396 49.037 117.585 49.037C117.773 49.037 117.926 49.0931 118.044 49.2053C118.161 49.3123 118.219 49.45 118.219 49.6182C118.219 49.7864 118.161 49.9266 118.044 50.0388C117.926 50.1458 117.773 50.1994 117.585 50.1994ZM120.945 54.6728C120.578 54.6728 120.246 54.5887 119.951 54.4205C119.66 54.2471 119.428 54.0101 119.255 53.7093C119.087 53.4034 119.003 53.0542 119.003 52.6617C119.003 52.2589 119.087 51.9072 119.255 51.6064C119.428 51.3005 119.663 51.0635 119.958 50.8952C120.254 50.7219 120.586 50.6352 120.953 50.6352C121.325 50.6352 121.656 50.7219 121.947 50.8952C122.242 51.0635 122.474 51.3005 122.643 51.6064C122.816 51.9072 122.903 52.2564 122.903 52.654C122.903 53.0517 122.816 53.4034 122.643 53.7093C122.474 54.0101 122.242 54.2471 121.947 54.4205C121.651 54.5887 121.317 54.6728 120.945 54.6728ZM120.945 53.7781C121.118 53.7781 121.271 53.7373 121.404 53.6558C121.541 53.5742 121.648 53.4493 121.725 53.2811C121.806 53.1128 121.847 52.9038 121.847 52.654C121.847 52.4042 121.806 52.1978 121.725 52.0346C121.648 51.8664 121.541 51.7415 121.404 51.6599C121.271 51.5733 121.121 51.5299 120.953 51.5299C120.789 51.5299 120.639 51.5733 120.501 51.6599C120.364 51.7415 120.254 51.8664 120.173 52.0346C120.096 52.1978 120.058 52.4042 120.058 52.654C120.058 52.9038 120.096 53.1128 120.173 53.2811C120.254 53.4493 120.361 53.5742 120.494 53.6558C120.631 53.7373 120.782 53.7781 120.945 53.7781ZM125.615 54.5811V50.727H126.647V54.5811H125.615ZM126.135 50.1994C125.951 50.1994 125.798 50.1458 125.676 50.0388C125.559 49.9266 125.5 49.7864 125.5 49.6182C125.5 49.45 125.559 49.3123 125.676 49.2053C125.798 49.0931 125.951 49.037 126.135 49.037C126.324 49.037 126.476 49.0931 126.594 49.2053C126.716 49.3123 126.777 49.45 126.777 49.6182C126.777 49.7864 126.716 49.9266 126.594 50.0388C126.476 50.1458 126.324 50.1994 126.135 50.1994ZM127.69 54.5811V50.727H128.6L128.684 51.2393C128.807 51.0558 128.967 50.9105 129.166 50.8035C129.37 50.6913 129.602 50.6352 129.862 50.6352C130.056 50.6352 130.229 50.6607 130.382 50.7117C130.535 50.7627 130.67 50.8366 130.787 50.9335C130.91 51.0303 131.009 51.1527 131.086 51.3005C131.228 51.0915 131.414 50.9284 131.644 50.8111C131.873 50.6939 132.123 50.6352 132.393 50.6352C132.73 50.6352 133.01 50.7041 133.234 50.8417C133.459 50.9743 133.627 51.168 133.739 51.4229C133.856 51.6778 133.915 51.9913 133.915 52.3634V54.5811H132.89V52.4552C132.89 52.1493 132.829 51.9148 132.707 51.7517C132.59 51.5886 132.406 51.507 132.156 51.507C131.993 51.507 131.848 51.5478 131.72 51.6293C131.593 51.7109 131.493 51.8282 131.422 51.9811C131.356 52.134 131.323 52.3176 131.323 52.5317V54.5811H130.29V52.4552C130.29 52.1493 130.229 51.9148 130.107 51.7517C129.984 51.5886 129.796 51.507 129.541 51.507C129.383 51.507 129.24 51.5478 129.113 51.6293C128.99 51.7109 128.894 51.8282 128.822 51.9811C128.756 52.134 128.723 52.3176 128.723 52.5317V54.5811H127.69ZM134.889 56.2634V50.727H135.807L135.922 51.2623C136.003 51.1501 136.1 51.0482 136.212 50.9564C136.324 50.8596 136.457 50.7831 136.61 50.727C136.768 50.6658 136.951 50.6352 137.16 50.6352C137.522 50.6352 137.841 50.7245 138.116 50.9029C138.392 51.0813 138.608 51.3235 138.766 51.6293C138.929 51.9301 139.011 52.2742 139.011 52.6617C139.011 53.0491 138.929 53.3958 138.766 53.7017C138.603 54.0024 138.384 54.2395 138.109 54.4128C137.833 54.5862 137.52 54.6728 137.168 54.6728C136.883 54.6728 136.635 54.6218 136.426 54.5199C136.222 54.4128 136.054 54.2675 135.922 54.084V56.2634H134.889ZM136.923 53.7705C137.127 53.7705 137.306 53.7246 137.459 53.6328C137.617 53.5411 137.739 53.4111 137.826 53.2428C137.912 53.0746 137.956 52.8809 137.956 52.6617C137.956 52.4425 137.912 52.2487 137.826 52.0805C137.739 51.9072 137.617 51.7746 137.459 51.6829C137.306 51.586 137.127 51.5376 136.923 51.5376C136.725 51.5376 136.546 51.586 136.388 51.6829C136.235 51.7746 136.113 51.9046 136.021 52.0729C135.934 52.2411 135.891 52.4348 135.891 52.654C135.891 52.8732 135.934 53.0695 136.021 53.2428C136.113 53.4111 136.235 53.5411 136.388 53.6328C136.546 53.7246 136.725 53.7705 136.923 53.7705ZM141.2 54.6728C140.879 54.6728 140.614 54.6218 140.405 54.5199C140.196 54.4128 140.04 54.2726 139.938 54.0993C139.841 53.9209 139.793 53.7246 139.793 53.5105C139.793 53.276 139.852 53.0695 139.969 52.8911C140.091 52.7127 140.272 52.5725 140.512 52.4705C140.757 52.3685 141.062 52.3176 141.429 52.3176H142.385C142.385 52.1289 142.36 51.9735 142.309 51.8511C142.258 51.7237 142.179 51.6293 142.072 51.5682C141.965 51.507 141.822 51.4764 141.644 51.4764C141.45 51.4764 141.284 51.5197 141.147 51.6064C141.014 51.688 140.932 51.8154 140.902 51.9887H139.9C139.926 51.7135 140.015 51.4764 140.168 51.2776C140.326 51.0737 140.532 50.9156 140.787 50.8035C141.047 50.6913 141.335 50.6352 141.651 50.6352C142.013 50.6352 142.327 50.6964 142.592 50.8188C142.857 50.9411 143.061 51.117 143.204 51.3464C143.346 51.5758 143.418 51.8587 143.418 52.1952V54.5811H142.546L142.431 53.9922C142.375 54.0942 142.309 54.186 142.232 54.2675C142.156 54.3491 142.067 54.4205 141.965 54.4816C141.863 54.5428 141.748 54.5887 141.621 54.6193C141.493 54.655 141.353 54.6728 141.2 54.6728ZM141.445 53.8775C141.577 53.8775 141.695 53.8546 141.797 53.8087C141.904 53.7577 141.995 53.6915 142.072 53.6099C142.148 53.5232 142.207 53.4264 142.248 53.3193C142.294 53.2072 142.324 53.0874 142.339 52.9599V52.9523H141.552C141.394 52.9523 141.264 52.9727 141.162 53.0134C141.065 53.0491 140.994 53.1026 140.948 53.174C140.902 53.2454 140.879 53.327 140.879 53.4187C140.879 53.5207 140.902 53.6048 140.948 53.6711C140.994 53.7373 141.06 53.7883 141.147 53.824C141.233 53.8597 141.333 53.8775 141.445 53.8775ZM146.247 54.6728C145.859 54.6728 145.515 54.5862 145.214 54.4128C144.913 54.2395 144.679 54.0024 144.511 53.7017C144.342 53.4009 144.258 53.0568 144.258 52.6693C144.258 52.2717 144.342 51.9225 144.511 51.6217C144.679 51.3158 144.913 51.0762 145.214 50.9029C145.515 50.7245 145.859 50.6352 146.247 50.6352C146.741 50.6352 147.157 50.7652 147.493 51.0252C147.829 51.2852 148.044 51.6421 148.135 52.0958H147.042C146.996 51.9174 146.899 51.7772 146.751 51.6752C146.609 51.5733 146.438 51.5223 146.239 51.5223C146.06 51.5223 145.9 51.5682 145.757 51.6599C145.619 51.7466 145.51 51.8766 145.428 52.0499C145.352 52.2182 145.314 52.4195 145.314 52.654C145.314 52.8325 145.337 52.993 145.382 53.1358C145.428 53.2734 145.492 53.3932 145.574 53.4952C145.655 53.5921 145.752 53.666 145.864 53.717C145.981 53.7679 146.106 53.7934 146.239 53.7934C146.371 53.7934 146.491 53.7705 146.598 53.7246C146.71 53.6787 146.805 53.615 146.881 53.5334C146.958 53.4468 147.011 53.3423 147.042 53.2199H148.135C148.044 53.6634 147.827 54.0177 147.485 54.2828C147.149 54.5428 146.736 54.6728 146.247 54.6728ZM150.717 54.5811C150.446 54.5811 150.209 54.5403 150.005 54.4587C149.807 54.372 149.651 54.2318 149.539 54.0381C149.427 53.8393 149.371 53.5691 149.371 53.2275V51.5911H148.713V50.727H149.371L149.485 49.6794H150.403V50.727H151.42V51.5911H150.403V53.2428C150.403 53.4162 150.441 53.536 150.518 53.6022C150.594 53.6685 150.724 53.7017 150.908 53.7017H151.413V54.5811H150.717ZM154.012 54.6728C153.645 54.6728 153.313 54.5887 153.018 54.4205C152.727 54.2471 152.495 54.0101 152.322 53.7093C152.154 53.4034 152.07 53.0542 152.07 52.6617C152.07 52.2589 152.154 51.9072 152.322 51.6064C152.495 51.3005 152.73 51.0635 153.025 50.8952C153.321 50.7219 153.652 50.6352 154.02 50.6352C154.392 50.6352 154.723 50.7219 155.014 50.8952C155.309 51.0635 155.541 51.3005 155.709 51.6064C155.883 51.9072 155.969 52.2564 155.969 52.654C155.969 53.0517 155.883 53.4034 155.709 53.7093C155.541 54.0101 155.309 54.2471 155.014 54.4205C154.718 54.5887 154.384 54.6728 154.012 54.6728ZM154.012 53.7781C154.185 53.7781 154.338 53.7373 154.471 53.6558C154.608 53.5742 154.715 53.4493 154.792 53.2811C154.873 53.1128 154.914 52.9038 154.914 52.654C154.914 52.4042 154.873 52.1978 154.792 52.0346C154.715 51.8664 154.608 51.7415 154.471 51.6599C154.338 51.5733 154.188 51.5299 154.02 51.5299C153.856 51.5299 153.706 51.5733 153.568 51.6599C153.431 51.7415 153.321 51.8664 153.24 52.0346C153.163 52.1978 153.125 52.4042 153.125 52.654C153.125 52.9038 153.163 53.1128 153.24 53.2811C153.321 53.4493 153.428 53.5742 153.561 53.6558C153.698 53.7373 153.849 53.7781 154.012 53.7781ZM159.959 54.6728C159.638 54.6728 159.373 54.6218 159.164 54.5199C158.955 54.4128 158.799 54.2726 158.697 54.0993C158.6 53.9209 158.552 53.7246 158.552 53.5105C158.552 53.276 158.611 53.0695 158.728 52.8911C158.85 52.7127 159.031 52.5725 159.271 52.4705C159.515 52.3685 159.821 52.3176 160.188 52.3176H161.144C161.144 52.1289 161.119 51.9735 161.068 51.8511C161.017 51.7237 160.938 51.6293 160.831 51.5682C160.724 51.507 160.581 51.4764 160.402 51.4764C160.209 51.4764 160.043 51.5197 159.905 51.6064C159.773 51.688 159.691 51.8154 159.661 51.9887H158.659C158.684 51.7135 158.774 51.4764 158.927 51.2776C159.085 51.0737 159.291 50.9156 159.546 50.8035C159.806 50.6913 160.094 50.6352 160.41 50.6352C160.772 50.6352 161.086 50.6964 161.351 50.8188C161.616 50.9411 161.82 51.117 161.962 51.3464C162.105 51.5758 162.177 51.8587 162.177 52.1952V54.5811H161.305L161.19 53.9922C161.134 54.0942 161.068 54.186 160.991 54.2675C160.915 54.3491 160.826 54.4205 160.724 54.4816C160.622 54.5428 160.507 54.5887 160.379 54.6193C160.252 54.655 160.112 54.6728 159.959 54.6728ZM160.204 53.8775C160.336 53.8775 160.453 53.8546 160.555 53.8087C160.662 53.7577 160.754 53.6915 160.831 53.6099C160.907 53.5232 160.966 53.4264 161.007 53.3193C161.052 53.2072 161.083 53.0874 161.098 52.9599V52.9523H160.311C160.153 52.9523 160.023 52.9727 159.921 53.0134C159.824 53.0491 159.752 53.1026 159.707 53.174C159.661 53.2454 159.638 53.327 159.638 53.4187C159.638 53.5207 159.661 53.6048 159.707 53.6711C159.752 53.7373 159.819 53.7883 159.905 53.824C159.992 53.8597 160.091 53.8775 160.204 53.8775ZM163.14 54.5811V50.727H164.05L164.134 51.2393C164.256 51.0558 164.417 50.9105 164.615 50.8035C164.819 50.6913 165.051 50.6352 165.311 50.6352C165.505 50.6352 165.678 50.6607 165.831 50.7117C165.984 50.7627 166.119 50.8366 166.237 50.9335C166.359 51.0303 166.458 51.1527 166.535 51.3005C166.678 51.0915 166.864 50.9284 167.093 50.8111C167.322 50.6939 167.572 50.6352 167.842 50.6352C168.179 50.6352 168.459 50.7041 168.684 50.8417C168.908 50.9743 169.076 51.168 169.188 51.4229C169.306 51.6778 169.364 51.9913 169.364 52.3634V54.5811H168.339V52.4552C168.339 52.1493 168.278 51.9148 168.156 51.7517C168.039 51.5886 167.855 51.507 167.605 51.507C167.442 51.507 167.297 51.5478 167.169 51.6293C167.042 51.7109 166.943 51.8282 166.871 51.9811C166.805 52.134 166.772 52.3176 166.772 52.5317V54.5811H165.74V52.4552C165.74 52.1493 165.678 51.9148 165.556 51.7517C165.434 51.5886 165.245 51.507 164.99 51.507C164.832 51.507 164.689 51.5478 164.562 51.6293C164.44 51.7109 164.343 51.8282 164.271 51.9811C164.205 52.134 164.172 52.3176 164.172 52.5317V54.5811H163.14ZM172.617 54.6728C172.418 54.6728 172.24 54.6473 172.082 54.5963C171.929 54.5454 171.791 54.4765 171.669 54.3899C171.552 54.2981 171.452 54.1962 171.371 54.084L171.256 54.5811H170.338V49.0753H171.371V51.2623C171.493 51.0839 171.654 50.936 171.853 50.8188C172.056 50.6964 172.309 50.6352 172.61 50.6352C172.966 50.6352 173.282 50.7245 173.558 50.9029C173.838 51.0762 174.057 51.3158 174.215 51.6217C174.379 51.9225 174.46 52.2691 174.46 52.6617C174.46 53.044 174.379 53.3881 174.215 53.694C174.057 53.9999 173.841 54.2395 173.565 54.4128C173.29 54.5862 172.974 54.6728 172.617 54.6728ZM172.372 53.7705C172.576 53.7705 172.755 53.7246 172.908 53.6328C173.066 53.536 173.188 53.406 173.275 53.2428C173.361 53.0746 173.405 52.8809 173.405 52.6617C173.405 52.4425 173.361 52.2487 173.275 52.0805C173.188 51.9072 173.066 51.7746 172.908 51.6829C172.755 51.586 172.576 51.5376 172.372 51.5376C172.174 51.5376 171.995 51.586 171.837 51.6829C171.684 51.7746 171.562 51.9046 171.47 52.0729C171.383 52.2411 171.34 52.4348 171.34 52.654C171.34 52.8732 171.383 53.0695 171.47 53.2428C171.562 53.4111 171.684 53.5411 171.837 53.6328C171.995 53.7246 172.174 53.7705 172.372 53.7705ZM175.372 54.5811V50.727H176.405V54.5811H175.372ZM175.892 50.1994C175.709 50.1994 175.556 50.1458 175.433 50.0388C175.316 49.9266 175.257 49.7864 175.257 49.6182C175.257 49.45 175.316 49.3123 175.433 49.2053C175.556 49.0931 175.709 49.037 175.892 49.037C176.081 49.037 176.234 49.0931 176.351 49.2053C176.473 49.3123 176.535 49.45 176.535 49.6182C176.535 49.7864 176.473 49.9266 176.351 50.0388C176.234 50.1458 176.081 50.1994 175.892 50.1994ZM179.298 54.6728C178.911 54.6728 178.567 54.5913 178.266 54.4281C177.97 54.2599 177.738 54.0279 177.57 53.7322C177.407 53.4315 177.325 53.0848 177.325 52.6923C177.325 52.2895 177.407 51.9352 177.57 51.6293C177.738 51.3184 177.97 51.0762 178.266 50.9029C178.562 50.7245 178.906 50.6352 179.298 50.6352C179.681 50.6352 180.014 50.7194 180.3 50.8876C180.585 51.0558 180.807 51.2827 180.965 51.5682C181.123 51.8537 181.202 52.1774 181.202 52.5393C181.202 52.5903 181.202 52.6489 181.202 52.7152C181.202 52.7764 181.197 52.8401 181.187 52.9064H178.059V52.2793H180.162C180.147 52.0295 180.058 51.8333 179.895 51.6905C179.737 51.5478 179.538 51.4764 179.298 51.4764C179.125 51.4764 178.964 51.5172 178.816 51.5988C178.669 51.6752 178.551 51.795 178.465 51.9582C178.383 52.1213 178.342 52.3278 178.342 52.5776V52.7993C178.342 53.0083 178.381 53.1919 178.457 53.3499C178.539 53.5028 178.651 53.6226 178.794 53.7093C178.936 53.7909 179.102 53.8317 179.291 53.8317C179.479 53.8317 179.635 53.7909 179.757 53.7093C179.884 53.6277 179.979 53.5232 180.04 53.3958H181.095C181.024 53.6354 180.904 53.852 180.736 54.0458C180.568 54.2395 180.361 54.3924 180.116 54.5046C179.872 54.6167 179.599 54.6728 179.298 54.6728ZM182.048 54.5811V50.727H182.958L183.034 51.3541C183.151 51.1399 183.317 50.9666 183.531 50.8341C183.75 50.7015 184.01 50.6352 184.311 50.6352C184.632 50.6352 184.903 50.7015 185.122 50.8341C185.341 50.9666 185.507 51.1603 185.619 51.4152C185.736 51.6701 185.795 51.9836 185.795 52.3558V54.5811H184.77V52.4552C184.77 52.1493 184.704 51.9148 184.571 51.7517C184.444 51.5886 184.245 51.507 183.975 51.507C183.801 51.507 183.646 51.5478 183.508 51.6293C183.376 51.7109 183.271 51.8282 183.195 51.9811C183.118 52.1289 183.08 52.3099 183.08 52.524V54.5811H182.048ZM188.503 54.5811C188.233 54.5811 187.996 54.5403 187.792 54.4587C187.593 54.372 187.438 54.2318 187.326 54.0381C187.213 53.8393 187.157 53.5691 187.157 53.2275V51.5911H186.5V50.727H187.157L187.272 49.6794H188.19V50.727H189.207V51.5911H188.19V53.2428C188.19 53.4162 188.228 53.536 188.304 53.6022C188.381 53.6685 188.511 53.7017 188.694 53.7017H189.199V54.5811H188.503ZM191.376 54.6728C191.054 54.6728 190.789 54.6218 190.58 54.5199C190.371 54.4128 190.216 54.2726 190.114 54.0993C190.017 53.9209 189.968 53.7246 189.968 53.5105C189.968 53.276 190.027 53.0695 190.144 52.8911C190.267 52.7127 190.448 52.5725 190.687 52.4705C190.932 52.3685 191.238 52.3176 191.605 52.3176H192.561C192.561 52.1289 192.535 51.9735 192.484 51.8511C192.433 51.7237 192.354 51.6293 192.247 51.5682C192.14 51.507 191.997 51.4764 191.819 51.4764C191.625 51.4764 191.46 51.5197 191.322 51.6064C191.189 51.688 191.108 51.8154 191.077 51.9887H190.076C190.101 51.7135 190.19 51.4764 190.343 51.2776C190.501 51.0737 190.708 50.9156 190.963 50.8035C191.223 50.6913 191.511 50.6352 191.827 50.6352C192.189 50.6352 192.502 50.6964 192.767 50.8188C193.032 50.9411 193.236 51.117 193.379 51.3464C193.522 51.5758 193.593 51.8587 193.593 52.1952V54.5811H192.721L192.607 53.9922C192.551 54.0942 192.484 54.186 192.408 54.2675C192.331 54.3491 192.242 54.4205 192.14 54.4816C192.038 54.5428 191.924 54.5887 191.796 54.6193C191.669 54.655 191.528 54.6728 191.376 54.6728ZM191.62 53.8775C191.753 53.8775 191.87 53.8546 191.972 53.8087C192.079 53.7577 192.171 53.6915 192.247 53.6099C192.324 53.5232 192.382 53.4264 192.423 53.3193C192.469 53.2072 192.5 53.0874 192.515 52.9599V52.9523H191.727C191.569 52.9523 191.439 52.9727 191.337 53.0134C191.24 53.0491 191.169 53.1026 191.123 53.174C191.077 53.2454 191.054 53.327 191.054 53.4187C191.054 53.5207 191.077 53.6048 191.123 53.6711C191.169 53.7373 191.235 53.7883 191.322 53.824C191.409 53.8597 191.508 53.8775 191.62 53.8775ZM194.556 54.5811V49.0753H195.588V54.5811H194.556ZM197.061 54.6193C196.868 54.6193 196.712 54.5632 196.595 54.4511C196.478 54.3338 196.419 54.1911 196.419 54.0228C196.419 53.8546 196.478 53.7144 196.595 53.6022C196.712 53.485 196.868 53.4264 197.061 53.4264C197.245 53.4264 197.395 53.485 197.512 53.6022C197.63 53.7144 197.688 53.8546 197.688 54.0228C197.688 54.1911 197.63 54.3338 197.512 54.4511C197.395 54.5632 197.245 54.6193 197.061 54.6193Z" fill="#F0F2F1"/>
<path d="M8.49609 0.849609H50.9795V67.123H8.49707C4.27379 67.123 0.849609 63.6989 0.849609 59.4756V8.49707C0.849609 4.27395 4.27304 0.849873 8.49609 0.849609Z" stroke="#F0F2F1" stroke-width="1.69932"/>
<rect x="0.849658" y="0.849658" width="210.715" height="66.2733" rx="7.64692" stroke="#F0F2F1" stroke-width="1.69932"/>
<path d="M51.4043 40.7837H211.14" stroke="#F0F2F1" stroke-width="1.69932"/>
<g clip-path="url(#clip0_17_2187)">
<path d="M11.4821 48.1049C11.7729 47.5955 12.1702 47.1978 12.674 46.9136C13.1778 46.6289 13.7428 46.4868 14.3685 46.4868C15.1006 46.4868 15.7418 46.6747 16.2931 47.0498C16.8439 47.4249 17.2287 47.9444 17.4476 48.6072H15.9363C15.7858 48.2946 15.5747 48.0598 15.3028 47.9034C15.0304 47.7471 14.7164 47.6686 14.3596 47.6686C13.9777 47.6686 13.6381 47.7578 13.3413 47.9361C13.0439 48.1144 12.8126 48.3665 12.6466 48.6917C12.4807 49.0168 12.398 49.3985 12.398 49.8366C12.398 50.2747 12.4807 50.648 12.6466 50.9768C12.8126 51.3049 13.0439 51.5587 13.3413 51.7365C13.6387 51.9148 13.9783 52.004 14.3596 52.004C14.7164 52.004 15.0304 51.9243 15.3028 51.765C15.5752 51.6057 15.7864 51.3697 15.9363 51.0564H17.4476C17.2287 51.7258 16.8451 52.2465 16.2979 52.6186C15.7501 52.9908 15.1072 53.1768 14.3691 53.1768C13.7434 53.1768 13.1784 53.0348 12.6746 52.75C12.1708 52.4653 11.7735 52.07 11.4827 51.5629C11.1919 51.0564 11.0461 50.481 11.0461 49.8366C11.0461 49.1922 11.1919 48.6156 11.4827 48.1055L11.4821 48.1049Z" fill="#F0F2F1"/>
<path d="M19.5127 47.9224V53.1203H18.1982V47.9224H19.5127Z" fill="#F0F2F1"/>
<path d="M20.423 49.1093C20.6419 48.7057 20.9452 48.393 21.3336 48.1713C21.7214 47.9495 22.1657 47.8384 22.6665 47.8384C23.3112 47.8384 23.8447 47.9995 24.267 48.3217C24.6893 48.6439 24.9724 49.0957 25.1163 49.6776H23.699C23.624 49.4523 23.4974 49.2758 23.3189 49.1474C23.1405 49.019 22.9198 48.9548 22.657 48.9548C22.2817 48.9548 21.9843 49.0909 21.7654 49.3632C21.5465 49.6354 21.4371 50.0218 21.4371 50.5218C21.4371 51.0217 21.5465 51.3992 21.7654 51.6708C21.9843 51.9431 22.2817 52.0792 22.657 52.0792C23.1887 52.0792 23.536 51.8415 23.699 51.3665H25.1163C24.9724 51.9294 24.6875 52.3765 24.2622 52.7082C23.8364 53.0399 23.3047 53.2057 22.6665 53.2057C22.1657 53.2057 21.7214 53.0946 21.3336 52.8728C20.9452 52.6511 20.6419 52.3378 20.423 51.9348C20.2042 51.5311 20.0947 51.0609 20.0947 50.5229C20.0947 49.985 20.2042 49.5142 20.423 49.1111V49.1093Z" fill="#F0F2F1"/>
<path d="M27.0219 46.1772V53.1199H25.7075V46.1772H27.0219Z" fill="#F0F2F1"/>
<path d="M28.8996 52.8715C28.4994 52.6498 28.1847 52.3353 27.9564 51.9287C27.728 51.5221 27.6138 51.0531 27.6138 50.5217C27.6138 49.9902 27.7309 49.5212 27.9659 49.1146C28.2008 48.708 28.5214 48.3935 28.9282 48.1718C29.335 47.95 29.7888 47.8389 30.2896 47.8389C30.7904 47.8389 31.2436 47.95 31.651 48.1718C32.0578 48.3941 32.3784 48.708 32.6133 49.1146C32.8483 49.5212 32.9654 49.9902 32.9654 50.5217C32.9654 51.0531 32.8447 51.5227 32.6038 51.9287C32.3629 52.3353 32.0376 52.6498 31.6278 52.8715C31.218 53.0939 30.7595 53.2044 30.2527 53.2044C29.746 53.2044 29.3011 53.0933 28.9008 52.8715H28.8996ZM30.9224 51.8865C31.1318 51.7706 31.2995 51.597 31.4244 51.3658C31.5493 51.1345 31.6123 50.8528 31.6123 50.5217C31.6123 50.0277 31.4821 49.6478 31.2228 49.3815C30.9629 49.1158 30.6453 48.9826 30.27 48.9826C29.8947 48.9826 29.58 49.1158 29.3267 49.3815C29.0733 49.6472 28.9466 50.0277 28.9466 50.5217C28.9466 51.0156 29.0703 51.3961 29.3172 51.6618C29.5646 51.9275 29.8756 52.0607 30.2509 52.0607C30.4888 52.0607 30.7125 52.003 30.9218 51.8871L30.9224 51.8865Z" fill="#F0F2F1"/>
<path d="M33.2456 47.4911V46.2808H35.5081V53.1206H34.1562V47.4911H33.2456Z" fill="#F0F2F1"/>
<path d="M40.7836 47.2748L38.2868 53.1201H36.954L39.4698 47.4252H36.2593V46.2993H40.7836V47.2748Z" fill="#F0F2F1"/>
<path d="M20.0378 28.3139L23.8841 25.0878C25.0278 24.1283 26.8686 24.1164 27.9951 25.0616L35.5712 31.4158C36.6976 32.3603 36.6834 33.9041 35.5396 34.8636L32.5206 37.3954C28.7956 40.5199 22.8016 40.5579 19.1326 37.4816L16.1594 34.9878C15.5176 34.4493 15.247 33.7145 15.3451 33.0047C15.36 32.8989 15.3184 32.7937 15.2292 32.7188L12.435 30.3457C12.2375 30.1805 11.8997 30.2251 11.7712 30.4361C10.4146 32.6653 11.0081 35.6305 13.1998 37.4691L16.173 39.9629C21.4509 44.3892 30.0744 44.3339 35.4338 39.8392L38.4528 37.3074C41.2309 34.9777 41.2648 31.2285 38.5289 28.9345L30.9528 22.5803C28.2169 20.2857 23.7473 20.3143 20.9692 22.6445L17.1229 25.8707C16.9593 26.008 16.9575 26.2285 17.1181 26.3635L19.449 28.3186C19.6102 28.4536 19.873 28.4518 20.036 28.3151L20.0378 28.3139Z" fill="#F0F2F1"/>
<path d="M13.2731 29.5883L20.8492 35.9424C23.5851 38.237 28.0547 38.2085 30.8328 35.8782L34.6791 32.6521C34.8427 32.5148 34.8445 32.2942 34.6839 32.1593L32.353 30.2041C32.1918 30.0692 31.929 30.071 31.766 30.2077L27.9197 33.4338C26.7759 34.3933 24.9352 34.4051 23.8087 33.46L16.2326 27.1058C15.1061 26.1612 15.1204 24.6174 16.2641 23.658L19.2451 21.1577C22.9915 18.016 29.0188 17.9773 32.7081 21.0715L35.6438 23.5337C36.2856 24.0723 36.5562 24.807 36.4581 25.5168C36.4432 25.6226 36.4848 25.7279 36.574 25.8028L39.4051 28.2127C39.6026 28.3779 39.9404 28.3334 40.0688 28.1223C41.4255 25.8931 40.795 22.8911 38.6034 21.0525L35.6676 18.5902C30.3689 14.1466 21.7122 14.2019 16.3314 18.7144L13.3504 21.2147C10.5723 23.5444 10.5384 27.2937 13.2743 29.5877L13.2731 29.5883Z" fill="#F0F2F1"/>
</g>
<defs>
<clipPath id="clip0_17_2187">
<rect width="29.738" height="37.9103" fill="white" transform="translate(11.0457 15.2939)"/>
</clipPath>
</defs>
</svg>
