<svg preserveAspectRatio="none" width="100%" height="100%" overflow="visible" style="display: block;" viewBox="0 0 29.7374 7.02829" fill="none" xmlns="http://www.w3.org/2000/svg">
<g id="Group">
<path id="Vector" d="M0.43596 1.92782C0.726798 1.41837 1.1241 1.02068 1.62786 0.73653C2.13162 0.451785 2.69665 0.30971 3.32233 0.30971C4.05448 0.30971 4.69564 0.49756 5.24698 0.872663C5.79773 1.24777 6.18254 1.76732 6.40141 2.43014H4.89012C4.73965 2.11746 4.52851 1.88264 4.2567 1.7263C3.9843 1.56996 3.67027 1.49149 3.31341 1.49149C2.93158 1.49149 2.59197 1.58066 2.29518 1.759C1.9978 1.93733 1.76644 2.18939 1.6005 2.51455C1.43456 2.83972 1.35189 3.22136 1.35189 3.65948C1.35189 4.09759 1.43456 4.47091 1.6005 4.79965C1.76644 5.12779 1.9978 5.38162 2.29518 5.55936C2.59256 5.7377 2.93217 5.82687 3.31341 5.82687C3.67027 5.82687 3.9843 5.74721 4.2567 5.5879C4.5291 5.42858 4.74024 5.19258 4.89012 4.8793H6.40141C6.18254 5.54866 5.79892 6.06941 5.25174 6.44154C4.70396 6.81367 4.06103 6.99973 3.32293 6.99973C2.69724 6.99973 2.13222 6.85766 1.62845 6.57291C1.12469 6.28817 0.727392 5.89285 0.436554 5.38578C0.145716 4.8793 0 4.30387 0 3.65948C0 3.01509 0.145716 2.43846 0.436554 1.92842L0.43596 1.92782Z" fill="var(--fill-0, #F0F2F1)"/>
<path id="Vector_2" d="M8.46642 1.74533V6.94326H7.152V1.74533H8.46642Z" fill="var(--fill-0, #F0F2F1)"/>
<path id="Vector_3" d="M9.377 2.93186C9.59587 2.52823 9.8992 2.21554 10.2876 1.99381C10.6754 1.77208 11.1196 1.66091 11.6204 1.66091C12.2652 1.66091 12.7987 1.82201 13.2209 2.14421C13.6432 2.4664 13.9263 2.91819 14.0703 3.50016H12.6529C12.578 3.27487 12.4513 3.09831 12.2729 2.96991C12.0945 2.8415 11.8738 2.7773 11.6109 2.7773C11.2356 2.7773 10.9382 2.91343 10.7194 3.18569C10.5005 3.45796 10.3911 3.84435 10.3911 4.34429C10.3911 4.84423 10.5005 5.22171 10.7194 5.49338C10.9382 5.76564 11.2356 5.90177 11.6109 5.90177C12.1426 5.90177 12.49 5.66399 12.6529 5.18902H14.0703C13.9263 5.75197 13.6414 6.199 13.2162 6.53071C12.7903 6.86241 12.2586 7.02827 11.6204 7.02827C11.1196 7.02827 10.6754 6.9171 10.2876 6.69537C9.8992 6.47364 9.59587 6.16036 9.377 5.75732C9.15813 5.35368 9.04869 4.88346 9.04869 4.34548C9.04869 3.8075 9.15813 3.33669 9.377 2.93364V2.93186Z" fill="var(--fill-0, #F0F2F1)"/>
<path id="Vector_4" d="M15.9759 0V6.94266H14.6614V0H15.9759Z" fill="var(--fill-0, #F0F2F1)"/>
<path id="Vector_5" d="M17.8535 6.69418C17.4533 6.47245 17.1386 6.15798 16.9102 5.75137C16.6818 5.34476 16.5677 4.87574 16.5677 4.34429C16.5677 3.81285 16.6848 3.34382 16.9198 2.93721C17.1547 2.5306 17.4753 2.21614 17.8821 1.9944C18.2889 1.77267 18.7427 1.66151 19.2435 1.66151C19.7443 1.66151 20.1975 1.77267 20.6049 1.9944C21.0117 2.21673 21.3323 2.5306 21.5672 2.93721C21.8021 3.34382 21.9193 3.81285 21.9193 4.34429C21.9193 4.87574 21.7986 5.34536 21.5577 5.75137C21.3168 6.15798 20.9915 6.47245 20.5817 6.69418C20.1719 6.91651 19.7133 7.02708 19.2066 7.02708C18.6999 7.02708 18.255 6.91591 17.8547 6.69418H17.8535ZM19.8763 5.70917C20.0857 5.59325 20.2534 5.41966 20.3783 5.18842C20.5032 4.95718 20.5662 4.6754 20.5662 4.34429C20.5662 3.8503 20.436 3.47044 20.1767 3.20412C19.9168 2.9384 19.5991 2.80524 19.2239 2.80524C18.8486 2.80524 18.5339 2.9384 18.2806 3.20412C18.0272 3.46984 17.9005 3.8503 17.9005 4.34429C17.9005 4.83828 18.0242 5.21874 18.271 5.48446C18.5185 5.75019 18.8295 5.88334 19.2048 5.88334C19.4427 5.88334 19.6664 5.82568 19.8757 5.70976L19.8763 5.70917Z" fill="var(--fill-0, #F0F2F1)"/>
<path id="Vector_6" d="M22.1994 1.31375V0.103435H24.4619V6.94326H23.11V1.31375H22.1994Z" fill="var(--fill-0, #F0F2F1)"/>
<path id="Vector_7" d="M29.7374 1.09737L27.2406 6.94266H25.9078L28.4236 1.24777H25.2131V0.121863H29.7374V1.09737Z" fill="var(--fill-0, #F0F2F1)"/>
</g>
</svg>
