<svg preserveAspectRatio="none" width="100%" height="100%" overflow="visible" style="display: block;" viewBox="0 0 29.6755 27.9645" fill="none" xmlns="http://www.w3.org/2000/svg">
<g id="Group">
<path id="Vector" d="M8.9724 13.0255L12.8112 9.79811C13.9527 8.83827 15.7899 8.82638 16.9142 9.77194L24.4755 16.1287C25.5997 17.0736 25.5855 18.6181 24.444 19.5779L21.4309 22.1107C17.7132 25.2364 11.7309 25.2745 8.06894 22.1969L5.10153 19.7022C4.46104 19.1634 4.19095 18.4283 4.2889 17.7183C4.30374 17.6124 4.26218 17.5072 4.17314 17.4322L1.38441 15.0582C1.18734 14.8929 0.85017 14.9375 0.721953 15.1486C-0.632049 17.3787 -0.0396359 20.3451 2.14778 22.1844L5.11519 24.6792C10.3828 29.1073 18.9894 29.052 24.3383 24.5555L27.3514 22.0227C30.1241 19.6921 30.158 15.9413 27.4274 13.6464L19.8661 7.28968C17.1356 4.99415 12.6747 5.0227 9.90198 7.35391L6.06317 10.5813C5.89993 10.7187 5.89814 10.9393 6.05842 11.0743L8.38474 13.0303C8.5456 13.1653 8.80797 13.1635 8.97062 13.0267L8.9724 13.0255Z" fill="#191E31"/>
<path id="Vector_2" d="M2.22079 14.3006L9.78207 20.6573C12.5126 22.9528 16.9735 22.9242 19.7462 20.593L23.585 17.3656C23.7483 17.2282 23.7501 17.0076 23.5898 16.8726L21.2635 14.9167C21.1026 14.7817 20.8402 14.7834 20.6776 14.9202L16.8388 18.1476C15.6973 19.1075 13.8601 19.1194 12.7358 18.1738L5.17455 11.8171C4.05027 10.8721 4.06451 9.3277 5.20601 8.36786L8.18113 5.86657C11.9202 2.7236 17.9358 2.68495 21.6179 5.78034L24.5479 8.24357C25.1884 8.78237 25.4584 9.51741 25.3605 10.2275C25.3457 10.3333 25.3872 10.4386 25.4763 10.5135L28.3018 12.9244C28.4989 13.0898 28.836 13.0452 28.9643 12.834C30.3183 10.6039 29.689 7.60071 27.5016 5.76131L24.5716 3.29808C19.2832 -1.14728 10.6434 -1.09197 5.27308 3.42237L2.29796 5.92366C-0.474745 8.25428 -0.50858 12.005 2.22198 14.3L2.22079 14.3006Z" fill="#191E31"/>
</g>
</svg>
