<svg preserveAspectRatio="none" width="100%" height="100%" overflow="visible" style="display: block;" viewBox="0 0 29.6794 7.03112" fill="none" xmlns="http://www.w3.org/2000/svg">
<g id="Group">
<path id="Vector" d="M0.435109 1.9286C0.725379 1.41895 1.1219 1.02109 1.62468 0.736826C2.12746 0.451966 2.69138 0.309834 3.31585 0.309834C4.04657 0.309834 4.68647 0.49776 5.23674 0.873014C5.78641 1.24827 6.17047 1.76803 6.38892 2.43112H4.88058C4.7304 2.11831 4.51967 1.8834 4.2484 1.727C3.97653 1.57059 3.66311 1.49209 3.30695 1.49209C2.92585 1.49209 2.58691 1.5813 2.2907 1.7597C1.9939 1.93811 1.76299 2.19027 1.59738 2.51557C1.43176 2.84086 1.34925 3.22266 1.34925 3.66095C1.34925 4.09924 1.43176 4.47271 1.59738 4.80158C1.76299 5.12985 1.9939 5.38378 2.2907 5.5616C2.5875 5.74001 2.92645 5.82921 3.30695 5.82921C3.66311 5.82921 3.97653 5.74952 4.2484 5.59015C4.52026 5.43077 4.73099 5.19467 4.88058 4.88127H6.38892C6.17047 5.55089 5.7876 6.07185 5.24149 6.44413C4.69478 6.81641 4.0531 7.00255 3.31644 7.00255C2.69198 7.00255 2.12806 6.86042 1.62528 6.57556C1.1225 6.2907 0.725973 5.89522 0.435702 5.38795C0.145432 4.88127 0 4.3056 0 3.66095C0 3.0163 0.145432 2.43944 0.435702 1.9292L0.435109 1.9286Z" fill="#191E31"/>
<path id="Vector_2" d="M8.4499 1.74603V6.94605H7.13804V1.74603H8.4499Z" fill="#191E31"/>
<path id="Vector_3" d="M9.3587 2.93304C9.57714 2.52924 9.87988 2.21643 10.2675 1.99461C10.6545 1.77279 11.0979 1.66158 11.5978 1.66158C12.2412 1.66158 12.7737 1.82274 13.1951 2.14507C13.6166 2.4674 13.8991 2.91936 14.0428 3.50157H12.6282C12.5535 3.27618 12.427 3.09956 12.2489 2.9711C12.0709 2.84265 11.8506 2.77842 11.5883 2.77842C11.2137 2.77842 10.9169 2.91461 10.6985 3.18698C10.48 3.45935 10.3708 3.8459 10.3708 4.34604C10.3708 4.84618 10.48 5.22381 10.6985 5.49559C10.9169 5.76796 11.2137 5.90414 11.5883 5.90414C12.1189 5.90414 12.4656 5.66627 12.6282 5.1911H14.0428C13.8991 5.75428 13.6148 6.20149 13.1904 6.53333C12.7654 6.86517 12.2347 7.03109 11.5978 7.03109C11.0979 7.03109 10.6545 6.91989 10.2675 6.69807C9.87988 6.47624 9.57714 6.16284 9.3587 5.75963C9.14025 5.35583 9.03103 4.88543 9.03103 4.34723C9.03103 3.80903 9.14025 3.33803 9.3587 2.93483V2.93304Z" fill="#191E31"/>
<path id="Vector_4" d="M15.9447 0V6.94546H14.6328V0H15.9447Z" fill="#191E31"/>
<path id="Vector_5" d="M17.8187 6.69687C17.4192 6.47505 17.1052 6.16046 16.8772 5.75369C16.6493 5.34692 16.5353 4.8777 16.5353 4.34604C16.5353 3.81438 16.6523 3.34517 16.8867 2.93839C17.1212 2.53162 17.4412 2.21703 17.8472 1.99521C18.2532 1.77338 18.7061 1.66217 19.2059 1.66217C19.7057 1.66217 20.1581 1.77338 20.5647 1.99521C20.9707 2.21762 21.2906 2.53162 21.5251 2.93839C21.7596 3.34517 21.8765 3.81438 21.8765 4.34604C21.8765 4.8777 21.756 5.34751 21.5156 5.75369C21.2752 6.16046 20.9505 6.47505 20.5415 6.69687C20.1325 6.91929 19.6749 7.0299 19.1691 7.0299C18.6634 7.0299 18.2194 6.9187 17.8199 6.69687H17.8187ZM19.8375 5.71146C20.0465 5.5955 20.2139 5.42184 20.3385 5.19051C20.4632 4.95917 20.5261 4.67728 20.5261 4.34604C20.5261 3.85185 20.3961 3.47184 20.1373 3.20541C19.8779 2.93958 19.5609 2.80637 19.1863 2.80637C18.8118 2.80637 18.4978 2.93958 18.2449 3.20541C17.992 3.47124 17.8656 3.85185 17.8656 4.34604C17.8656 4.84023 17.989 5.22084 18.2354 5.48667C18.4823 5.7525 18.7928 5.88571 19.1673 5.88571C19.4048 5.88571 19.628 5.82802 19.8369 5.71206L19.8375 5.71146Z" fill="#191E31"/>
<path id="Vector_6" d="M22.1561 1.31428V0.103477H24.4142V6.94605H23.0649V1.31428H22.1561Z" fill="#191E31"/>
<path id="Vector_7" d="M29.6794 1.09781L27.1875 6.94546H25.8572L28.3681 1.24827H25.1639V0.121912H29.6794V1.09781Z" fill="#191E31"/>
</g>
</svg>
