<svg preserveAspectRatio="none" width="100%" height="100%" overflow="visible" style="display: block;" viewBox="0 0 29.7335 27.9532" fill="none" xmlns="http://www.w3.org/2000/svg">
<g id="Group">
<path id="Vector" d="M8.98994 13.0203L12.8363 9.79417C13.98 8.83471 15.8208 8.82283 16.9472 9.76801L24.5233 16.1222C25.6498 17.0668 25.6355 18.6106 24.4918 19.57L21.4728 22.1018C17.7478 25.2263 11.7538 25.2643 8.08472 22.188L5.11151 19.6943C4.46976 19.1557 4.19915 18.4209 4.29728 17.7111C4.31215 17.6053 4.27052 17.5001 4.1813 17.4252L1.38712 15.0521C1.18966 14.8869 0.851833 14.9315 0.723364 15.1425C-0.633285 17.3717 -0.0397134 20.3369 2.15198 22.1755L5.12519 24.6693C10.4031 29.0956 19.0265 29.0403 24.3859 24.5456L27.4049 22.0138C30.1831 19.6842 30.217 15.9349 27.4811 13.6409L19.905 7.28675C17.1691 4.99214 12.6995 5.02068 9.92134 7.35095L6.07502 10.5771C5.91146 10.7144 5.90968 10.9349 6.07026 11.0699L8.40113 13.025C8.56231 13.16 8.8252 13.1582 8.98816 13.0215L8.98994 13.0203Z" fill="var(--fill-0, #F0F2F1)"/>
<path id="Vector_2" d="M2.22514 14.2948L9.8012 20.649C12.5371 22.9436 17.0067 22.915 19.7848 20.5848L23.6312 17.3586C23.7947 17.2213 23.7965 17.0008 23.6359 16.8658L21.3051 14.9107C21.1439 14.7757 20.881 14.7775 20.718 14.9142L16.8717 18.1403C15.728 19.0998 13.8872 19.1117 12.7607 18.1665L5.18466 11.8124C4.05819 10.8678 4.07246 9.32395 5.21619 8.3645L8.19713 5.86421C11.9435 2.72251 17.9708 2.68387 21.6601 5.77802L24.5959 8.24026C25.2376 8.77884 25.5082 9.51359 25.4101 10.2234C25.3952 10.3292 25.4369 10.4344 25.5261 10.5093L28.3571 12.9192C28.5546 13.0845 28.8924 13.0399 29.0209 12.8289C30.3775 10.5997 29.7471 7.59765 27.5554 5.75899L24.6197 3.29675C19.3209 -1.14682 10.6642 -1.09153 5.28339 3.42099L2.30245 5.92128C-0.475673 8.25096 -0.509574 12.0002 2.22632 14.2942L2.22514 14.2948Z" fill="var(--fill-0, #F0F2F1)"/>
</g>
</svg>
