<svg preserveAspectRatio="none" width="100%" height="100%" overflow="visible" style="display: block;" viewBox="0 0 22.9902 22.9902" fill="none" xmlns="http://www.w3.org/2000/svg">
<g id="SVG">
<path id="Vector" d="M2.56714 8.01001L10.1252 13.0487C10.44 13.2588 10.81 13.3709 11.1885 13.3709C11.5669 13.3709 11.9369 13.2588 12.2518 13.0487L19.8098 8.01001M4.48299 18.5472H17.894C18.4021 18.5472 18.8894 18.3454 19.2487 17.9861C19.608 17.6268 19.8098 17.1395 19.8098 16.6313V7.05208C19.8098 6.54397 19.608 6.05666 19.2487 5.69737C18.8894 5.33808 18.4021 5.13623 17.894 5.13623H4.48299C3.97488 5.13623 3.48757 5.33808 3.12828 5.69737C2.76899 6.05666 2.56714 6.54397 2.56714 7.05208V16.6313C2.56714 17.1395 2.76899 17.6268 3.12828 17.9861C3.48757 18.3454 3.97488 18.5472 4.48299 18.5472Z" stroke="var(--stroke-0, #223F30)" stroke-width="1.91585" stroke-linecap="round" stroke-linejoin="round"/>
</g>
</svg>
