<svg width="151.064" height="29.8987" overflow="visible" style="display: block;" viewBox="0 0 151.064 29.8987" fill="none" xmlns="http://www.w3.org/2000/svg">
<g id="Logo">
<path id="Vector" d="M14.4057 0.00782811C14.496 0.00704146 14.496 0.00704146 14.5882 0.00623894C17.1111 -0.0107422 17.1111 -0.0107422 18.2867 0.245769C18.3534 0.259737 18.4201 0.273705 18.4888 0.288097C22.3764 1.1249 25.8491 3.44504 28.0139 6.74067C29.0343 8.32714 30.2706 10.4985 30.2107 12.4284C29.7093 12.5436 29.2076 12.6566 28.7043 12.7631C23.116 13.9558 17.9075 16.2143 13.1549 19.3367C12.6618 19.0314 12.1746 18.7191 11.6923 18.3975C8.13925 16.0336 4.32224 14.3129 0.249817 13.0226C0.250255 13.0661 0.250693 13.1095 0.251143 13.1543C0.253665 13.5862 0.223459 14.005 0.174349 14.434C0.224151 14.4466 0.273954 14.4593 0.325267 14.4723C4.93789 15.6727 9.40402 18.1951 13.1549 21.0453C13.1955 21.0759 13.236 21.1066 13.2778 21.1381C14.2292 21.8587 15.1356 22.6266 16.0227 23.4224C16.0904 23.4821 16.1581 23.5418 16.2279 23.6034C16.6819 24.0071 17.1221 24.4226 17.5556 24.8476C17.6052 24.8961 17.6549 24.9447 17.706 24.9946C17.9983 25.2833 18.2764 25.5805 18.5469 25.8891C18.6895 26.0512 18.837 26.2084 18.9848 26.3659C19.4066 26.826 19.7895 27.3143 20.1734 27.8051C20.2099 27.8515 20.2463 27.898 20.2838 27.9459C20.4991 28.2204 20.7138 28.4953 20.9281 28.7708C20.8526 28.9194 20.8526 28.9194 20.7141 28.9804C20.6544 29 20.5947 29.0196 20.5331 29.0398C20.4668 29.0616 20.4005 29.0835 20.3322 29.106C20.2611 29.1287 20.19 29.1513 20.1168 29.1747C20.045 29.1979 19.9731 29.221 19.8991 29.2449C19.3694 29.4131 18.8376 29.5764 18.2867 29.6622C18.2229 29.6722 18.1591 29.6823 18.0934 29.6927C17.9094 29.6622 17.9094 29.6622 17.7419 29.4927C17.6851 29.4138 17.6283 29.3349 17.5698 29.2536C17.5038 29.1646 17.4377 29.0757 17.3713 28.987C17.3364 28.9396 17.3015 28.8923 17.2655 28.8436C17.0739 28.5892 16.8718 28.3433 16.6689 28.0976C16.6275 28.0474 16.5862 27.9973 16.5435 27.9456C16.2175 27.5539 15.8765 27.1792 15.5253 26.8092C15.374 26.6489 15.2281 26.4861 15.0841 26.3194C14.5847 25.7534 14.0344 25.222 13.4544 24.7365C13.2848 24.5931 13.1212 24.4441 12.9568 24.2952C12.5404 23.9255 12.1025 23.5857 11.6583 23.2495C11.5316 23.1533 11.4056 23.0564 11.2798 22.9592C10.6843 22.5009 10.0725 22.074 9.44281 21.6627C9.39421 21.6309 9.34561 21.5991 9.2955 21.5663C6.49573 19.7374 3.5132 18.3665 0.325286 17.3311C0.372119 17.5215 0.419341 17.7118 0.466788 17.9021C0.479921 17.9557 0.493054 18.0092 0.506586 18.0645C0.519719 18.1169 0.532853 18.1693 0.546383 18.2233C0.55824 18.2711 0.570096 18.319 0.582312 18.3683C0.671976 18.7345 0.671976 18.7345 0.937285 18.9804C1.00305 19.0008 1.06881 19.0212 1.13657 19.0422C1.21108 19.0665 1.28558 19.0909 1.36234 19.116C1.48407 19.154 1.48407 19.154 1.60824 19.1928C3.94337 19.9729 6.1888 21.128 8.24943 22.4567C8.30196 22.4904 8.35441 22.5241 8.40852 22.5588C9.70468 23.3982 10.9408 24.3373 12.0983 25.3537C12.152 25.4002 12.2058 25.4467 12.2611 25.4945C12.7613 25.9311 13.2384 26.3878 13.711 26.853C13.8385 26.9784 13.9667 27.1031 14.0948 27.2279C14.5955 27.7181 15.0585 28.2226 15.4944 28.7708C15.577 28.8723 15.6597 28.9739 15.7423 29.0754C15.8123 29.1626 15.8821 29.2498 15.9519 29.3372C15.9885 29.3824 16.025 29.4278 16.0627 29.4744C16.3245 29.8019 16.3245 29.8019 16.3245 29.885C15.9799 29.8888 15.6351 29.8914 15.2905 29.8931C15.1737 29.8939 15.057 29.8949 14.9403 29.8962C14.3353 29.9028 13.7336 29.8983 13.1316 29.8333C13.0431 29.824 12.9546 29.8146 12.8635 29.8049C12.5695 29.72 12.4476 29.5908 12.2492 29.3651C12.1883 29.2997 12.1274 29.2344 12.0647 29.1671C11.998 29.0945 11.9312 29.0219 11.8625 28.9472C10.9944 28.0149 10.1023 27.0885 9.07958 26.3194C8.99868 26.2555 8.91793 26.1915 8.83725 26.1273C7.77164 25.2825 6.63676 24.5489 5.45712 23.8681C5.37082 23.8181 5.37082 23.8181 5.28279 23.7671C5.10426 23.6647 4.92491 23.5639 4.74489 23.4641C4.68409 23.4303 4.62329 23.3965 4.56064 23.3617C4.18903 23.1618 3.81499 22.9947 3.42036 22.8432C1.79448 22.2129 1.79448 22.2129 1.50919 21.5792C1.44994 21.427 1.39848 21.2756 1.35225 21.1192C1.27925 20.8833 1.17149 20.6624 1.07053 20.437C0.790356 19.7411 0.582226 19.023 0.400754 18.2968C0.376457 18.2009 0.376457 18.2009 0.351669 18.103C-0.13871 16.0666 -0.110611 13.6395 0.400754 11.6112C0.416927 11.5452 0.4331 11.4792 0.449764 11.4113C1.42905 7.51567 3.92466 4.16165 7.41458 2.08429C9.50794 0.867397 11.9529 0.0220875 14.4057 0.00782811Z" fill="white"/>
<path id="Vector_2" d="M105.754 2.77205C107.946 2.77205 110.138 2.77205 112.396 2.77205C112.538 3.14473 112.663 3.48615 112.765 3.86606C112.778 3.91241 112.79 3.95875 112.803 4.0065C112.845 4.15864 112.885 4.3109 112.926 4.46316C112.956 4.5717 112.985 4.68022 113.015 4.78874C113.092 5.07806 113.171 5.36747 113.248 5.65689C113.378 6.13739 113.508 6.61773 113.638 7.09809C113.67 7.21782 113.703 7.33755 113.735 7.45731C113.99 8.40131 114.251 9.34382 114.515 10.2854C115.414 13.497 115.414 13.497 115.414 14.1375C115.464 14.1375 115.514 14.1375 115.565 14.1375C115.577 14.0764 115.577 14.0764 115.588 14.0141C115.781 12.9796 116.015 11.9582 116.275 10.9383C116.291 10.8753 116.308 10.8122 116.324 10.7472C116.719 9.19592 117.15 7.65446 117.584 6.11347C117.668 5.81786 117.75 5.52211 117.833 5.22637C117.913 4.94001 117.994 4.65372 118.074 4.36746C118.112 4.23173 118.15 4.09599 118.189 3.96023C118.241 3.77371 118.293 3.58728 118.346 3.40087C118.361 3.34537 118.377 3.28987 118.392 3.2327C118.5 2.85483 118.5 2.85483 118.584 2.77205C120.701 2.77205 122.818 2.77205 124.999 2.77205C124.999 8.38571 124.999 13.9993 124.999 19.7831C123.529 19.7831 122.06 19.7831 120.546 19.7831C120.546 15.6403 120.546 11.4975 120.546 7.22908C120.322 8.18514 120.098 9.14117 119.867 10.1262C119.713 10.7099 119.557 11.2915 119.391 11.8718C119.347 12.025 119.304 12.1783 119.261 12.3315C119.14 12.7607 119.017 13.1897 118.895 13.6186C118.803 13.9421 118.711 14.2657 118.619 14.5894C118.432 15.2506 118.243 15.9116 118.055 16.5725C118.004 16.7504 117.954 16.9284 117.903 17.1063C117.823 17.3882 117.743 17.6699 117.662 17.9516C117.632 18.0559 117.602 18.1602 117.573 18.2645C117.531 18.4088 117.49 18.5531 117.448 18.6973C117.426 18.7782 117.402 18.8592 117.379 18.9426C117.289 19.2266 117.181 19.5046 117.075 19.7831C115.854 19.7831 114.634 19.7831 113.377 19.7831C112.906 18.1534 112.436 16.5236 111.966 14.8936C111.782 14.2564 111.599 13.6193 111.414 12.9825C111.014 11.605 110.64 10.2244 110.301 8.83082C110.285 8.76255 110.268 8.69436 110.251 8.62401C110.205 8.43317 110.16 8.24219 110.114 8.05113C110.094 7.9663 110.094 7.9663 110.073 7.87976C110.014 7.62883 109.981 7.41401 109.981 7.15479C109.931 7.15479 109.881 7.15479 109.83 7.15479C109.837 7.27563 109.837 7.27563 109.845 7.39891C109.894 8.22169 109.928 9.04394 109.947 9.86789C109.949 9.93282 109.951 9.99774 109.952 10.0647C109.996 11.9142 109.989 13.764 109.986 15.6139C109.985 16.1701 109.984 16.7262 109.984 17.2823C109.984 18.1159 109.982 18.9495 109.981 19.7831C108.586 19.7831 107.191 19.7831 105.754 19.7831C105.754 14.1694 105.754 8.55582 105.754 2.77205Z" fill="white"/>
<path id="Vector_3" d="M51.063 4.15797C51.2913 4.35544 51.5061 4.56387 51.7201 4.77633C51.7703 4.82334 51.8207 4.87036 51.8725 4.9188C52.872 5.9248 53.0689 7.29947 53.154 8.63912C52.0084 8.63912 50.8628 8.63912 49.6824 8.63912C49.6077 8.19787 49.6077 8.19787 49.5315 7.74771C49.4345 7.47888 49.4345 7.47888 49.3098 7.26019C49.2527 7.15204 49.2527 7.15204 49.1945 7.04169C49.0921 6.87771 48.9902 6.76673 48.8523 6.63342C48.8523 6.5844 48.8523 6.53537 48.8523 6.48486C48.8086 6.46465 48.7649 6.44444 48.7199 6.42363C48.5512 6.33673 48.407 6.23748 48.2532 6.12736C47.2973 5.49545 46.2249 5.34172 45.0977 5.34738C44.9685 5.34793 44.9685 5.34793 44.8366 5.34849C43.3848 5.36827 42.0358 5.7301 40.9942 6.77735C39.6627 8.34525 39.587 10.564 39.7383 12.506C39.8886 13.9445 40.2655 15.2795 41.3809 16.2903C42.3912 17.0385 43.566 17.2081 44.7959 17.2049C44.8879 17.2061 44.9801 17.2073 45.075 17.2086C46.4559 17.2093 47.7661 16.8528 48.7936 15.9143C49.5326 15.1529 49.6212 14.47 49.7579 13.3933C47.9648 13.3933 46.1717 13.3933 44.3242 13.3933C44.3242 12.4863 44.3242 11.5793 44.3242 10.6448C47.238 10.6448 50.1519 10.6448 53.154 10.6448C53.154 13.66 53.154 16.6751 53.154 19.7817C52.357 19.7817 51.5601 19.7817 50.739 19.7817C50.648 19.3788 50.5638 18.9939 50.5032 18.5885C50.4905 18.5049 50.4779 18.4213 50.4648 18.3352C50.4557 18.2732 50.4466 18.2113 50.4371 18.1474C50.2165 18.1474 50.1555 18.2582 49.9984 18.4074C48.2158 19.9889 45.8629 20.1673 43.5695 20.0788C41.4815 19.928 39.5573 19.1868 38.0889 17.6858C37.3237 16.8039 36.8607 15.7773 36.5698 14.6607C36.5548 14.6032 36.5398 14.5458 36.5243 14.4866C36.2709 13.448 36.2182 12.4177 36.2208 11.3551C36.2208 11.29 36.2209 11.2249 36.2209 11.1578C36.2281 8.67024 36.7538 6.41662 38.5414 4.57669C41.4892 1.76879 47.9029 1.5472 51.063 4.15797Z" fill="white"/>
<path id="Vector_4" d="M135.942 2.77123C137.651 2.76663 139.36 2.76203 141.121 2.7573C141.659 2.75527 142.197 2.75325 142.751 2.75115C143.412 2.75015 143.412 2.75015 143.723 2.74996C143.938 2.74975 144.153 2.74892 144.368 2.7477C144.643 2.74616 144.919 2.74572 145.194 2.74603C145.341 2.74594 145.489 2.74475 145.635 2.7435C147.07 2.74842 148.467 3.17736 149.536 4.15012C150.666 5.33364 151.069 6.75997 151.064 8.35183C151.063 8.40286 151.063 8.45397 151.063 8.50664C151.057 10.1306 150.623 11.4856 149.439 12.6643C148.135 13.8617 146.538 14.0884 144.82 14.0769C144.71 14.0767 144.6 14.0765 144.49 14.0764C144.087 14.0756 143.684 14.0735 143.281 14.0717C142.379 14.0686 141.476 14.0655 140.545 14.0624C140.545 15.95 140.545 17.8375 140.545 19.7823C139.026 19.7823 137.507 19.7823 135.942 19.7823C135.942 14.1686 135.942 8.555 135.942 2.77123ZM140.545 6.26257C140.545 7.68439 140.545 9.10618 140.545 10.5711C141.24 10.5772 141.934 10.5833 142.649 10.5896C142.975 10.5936 142.976 10.5936 143.309 10.5978C143.483 10.5987 143.658 10.5994 143.833 10.6C143.921 10.6016 144.01 10.6031 144.102 10.6046C144.791 10.6049 145.36 10.496 145.895 10.0464C146.39 9.50123 146.479 8.85243 146.456 8.14228C146.401 7.58745 146.218 7.06032 145.785 6.67809C145.187 6.22532 144.584 6.24192 143.855 6.24806C143.77 6.24821 143.686 6.24836 143.6 6.24851C143.288 6.24929 142.975 6.25136 142.663 6.25328C141.615 6.25788 141.615 6.25788 140.545 6.26257Z" fill="white"/>
<path id="Vector_5" d="M87.5969 7.67421C88.8927 8.86469 89.2957 10.5997 89.378 12.2804C89.378 12.8687 89.378 13.4571 89.378 14.0632C86.4143 14.0632 83.4507 14.0632 80.3973 14.0632C80.601 15.7195 80.601 15.7195 81.5293 17.0346C82.364 17.6216 83.4077 17.6707 84.3971 17.52C84.9827 17.3677 85.4929 17.067 85.8596 16.5889C86.126 16.1288 86.126 16.1288 86.2838 15.1775C87.3049 15.1775 88.3259 15.1775 89.378 15.1775C89.378 16.5166 89.0165 17.6119 88.0958 18.6087C87.3494 19.3171 86.3781 19.7142 85.3782 19.9316C85.2687 19.9566 85.2687 19.9566 85.1578 19.9821C83.3669 20.3225 81.158 20.159 79.595 19.1676C78.2653 18.2197 77.5725 16.8938 77.2887 15.3214C76.9529 13.0724 77.0019 10.3878 78.3868 8.46623C79.2501 7.32517 80.4946 6.75588 81.8915 6.51002C83.8718 6.2285 86 6.37024 87.5969 7.67421ZM81.3104 9.57365C80.7384 10.1687 80.4727 11.0348 80.4727 11.8347C82.3406 11.8347 84.2084 11.8347 86.1328 11.8347C85.9766 10.3972 85.9766 10.3972 85.1518 9.30905C84.0922 8.5215 82.2847 8.78453 81.3104 9.57365Z" fill="white"/>
<path id="Vector_6" d="M74.0913 7.6996C75.8044 9.48308 75.7938 11.7279 75.7938 14.0619C72.8302 14.0619 69.8666 14.0619 66.8131 14.0619C67.0549 15.8002 67.0549 15.8002 68.1102 17.1354C68.9246 17.614 69.8937 17.6666 70.8153 17.5158C71.4097 17.3578 72.0023 17.0498 72.3223 16.5132C72.5266 16.0643 72.6284 15.6671 72.6996 15.1761C73.7207 15.1761 74.7418 15.1761 75.7938 15.1761C75.7938 16.4792 75.4897 17.6189 74.5433 18.5752C73.0648 19.9182 71.1735 20.134 69.2374 20.0887C67.6664 20.0234 66.1768 19.519 65.082 18.375C64.5242 17.7215 64.1895 17.0334 63.9453 16.2161C63.9303 16.1686 63.9153 16.1212 63.8998 16.0722C63.3793 14.3535 63.3905 11.9813 63.9453 10.2734C63.9744 10.1832 64.0035 10.093 64.0335 10.0001C64.5479 8.58098 65.3817 7.60741 66.7601 6.96286C68.9786 6.07072 72.2071 6.04982 74.0913 7.6996ZM67.7706 9.57697C67.2067 10.1836 66.8886 11.0112 66.8886 11.8333C68.7564 11.8333 70.6243 11.8333 72.5487 11.8333C72.4707 10.8347 72.3591 10.0257 71.5906 9.34253C70.5636 8.56285 68.7058 8.7268 67.7706 9.57697Z" fill="white"/>
<path id="Vector_7" d="M101.432 7.15295C102.448 8.00653 102.813 8.9951 102.962 10.2749C102.981 10.6027 102.982 10.9292 102.98 11.2573C102.98 11.3503 102.98 11.4431 102.98 11.5388C102.98 11.7902 102.979 12.0415 102.978 12.2929C102.977 12.5567 102.977 12.8206 102.977 13.0846C102.976 13.5828 102.975 14.081 102.973 14.5793C102.971 15.1471 102.971 15.715 102.97 16.2829C102.968 17.4497 102.965 18.6165 102.962 19.7832C101.916 19.7832 100.87 19.7832 99.7928 19.7832C99.792 19.5193 99.7905 19.2554 99.7898 18.9835C99.786 18.1104 99.7807 17.2372 99.7747 16.3641C99.7716 15.8348 99.7686 15.3055 99.7664 14.7762C99.7648 14.3146 99.7626 13.8531 99.7588 13.3915C99.7573 13.1474 99.7558 12.9033 99.755 12.6591C99.7543 12.3858 99.7528 12.1125 99.7498 11.8393C99.7498 11.7593 99.7505 11.6793 99.7505 11.5969C99.7407 10.8233 99.5905 10.1619 99.029 9.59242C98.3204 9.15273 97.417 9.11879 96.611 9.2837C95.8375 9.5318 95.2624 10.0115 94.8873 10.7206C94.6209 11.3428 94.5741 11.9468 94.5704 12.6151C94.5696 12.6927 94.5689 12.7703 94.5681 12.8502C94.5651 13.1058 94.5636 13.3614 94.5613 13.6171C94.5598 13.7947 94.5583 13.9722 94.5568 14.1498C94.553 14.6165 94.5492 15.0833 94.5455 15.5501C94.5417 16.0266 94.5372 16.503 94.5334 16.9796C94.5251 17.9141 94.5176 18.8487 94.51 19.7832C93.4889 19.7832 92.4678 19.7832 91.4158 19.7832C91.4158 15.4688 91.4158 11.1544 91.4158 6.70928C92.2875 6.70928 93.1591 6.70928 94.0572 6.70928C94.1659 7.47994 94.1659 7.47994 94.1998 7.7227C94.2081 7.78561 94.2172 7.84861 94.227 7.91346C94.2361 7.97808 94.2451 8.04264 94.2542 8.1092C94.2761 8.27225 94.2761 8.27225 94.3591 8.41777C94.4013 8.36659 94.4436 8.31533 94.4874 8.26259C96.1016 6.39959 99.297 5.62805 101.432 7.15295Z" fill="white"/>
<path id="Vector_8" d="M128.169 2.77205C129.688 2.77205 131.207 2.77205 132.772 2.77205C132.772 8.38571 132.772 13.9993 132.772 19.7831C131.253 19.7831 129.734 19.7831 128.169 19.7831C128.169 14.1694 128.169 8.55582 128.169 2.77205Z" fill="white"/>
<path id="Vector_9" d="M63.1901 6.63462C63.1901 7.59062 63.1901 8.54665 63.1901 9.53165C62.3363 9.58736 62.3363 9.58736 62.0727 9.60274C61.2358 9.66462 60.4592 9.88717 59.8647 10.4973C58.9806 11.5732 59.0911 13.0688 59.0835 14.3712C59.0821 14.5279 59.0806 14.6846 59.0791 14.8414C59.0753 15.2505 59.0723 15.6595 59.0695 16.0686C59.0658 16.5614 59.0612 17.054 59.0568 17.5467C59.0501 18.2921 59.0449 19.0375 59.0394 19.7828C58.0183 19.7828 56.9972 19.7828 55.9452 19.7828C55.9452 15.4684 55.9452 11.154 55.9452 6.7089C56.8168 6.7089 57.6885 6.7089 58.5865 6.7089C58.6239 6.98315 58.6613 7.25739 58.6997 7.53995C58.7115 7.62575 58.7234 7.71155 58.7355 7.80002C58.7447 7.86844 58.7539 7.93693 58.7634 8.00742C58.7729 8.07703 58.7824 8.1467 58.7921 8.21846C58.8122 8.41026 58.8166 8.5962 58.8129 8.78881C58.8628 8.78881 58.9126 8.78881 58.9639 8.78881C58.9713 8.73667 58.9786 8.68444 58.9862 8.63074C59.176 7.86799 59.7633 7.14718 60.4293 6.73299C61.3502 6.26812 62.2178 6.37362 63.1901 6.63462Z" fill="white"/>
<path id="Vector_10" d="M30.4376 13.8395C30.4394 14.1818 30.4408 14.5241 30.4417 14.8664C30.4421 14.9827 30.4426 15.0991 30.4433 15.2154C30.4442 15.3831 30.4446 15.5507 30.4449 15.7183C30.4453 15.77 30.4458 15.8218 30.4461 15.875C30.4461 16.147 30.4279 16.3977 30.3621 16.6623C30.2901 16.6753 30.2181 16.6883 30.1438 16.7017C25.6273 17.5231 21.388 18.9819 17.4571 21.3422C17.4001 21.3761 17.3432 21.4101 17.2846 21.4451C17.0139 21.6071 16.7441 21.7704 16.476 21.9364C16.0955 21.6647 15.7338 21.3782 15.377 21.0775C15.0493 20.8016 14.7208 20.5397 14.3629 20.3022C14.4516 20.0401 14.5045 20.0172 14.7367 19.8776C14.7997 19.8394 14.8628 19.8011 14.9277 19.7617C14.9966 19.721 15.0654 19.6802 15.1364 19.6382C15.2436 19.574 15.2436 19.574 15.353 19.5085C15.5758 19.3759 15.7993 19.2445 16.0232 19.1136C16.0883 19.0755 16.1534 19.0374 16.2206 18.9981C18.6605 17.5803 21.1983 16.3963 23.8719 15.4737C23.9455 15.4478 24.0192 15.4219 24.0952 15.3952C28.5346 13.8395 28.5346 13.8395 30.4376 13.8395Z" fill="white"/>
<path id="Vector_11" d="M30.1354 18.1475C29.4783 20.8072 29.4783 20.8072 29.0034 21.1189C28.8688 21.1532 28.7326 21.1819 28.596 21.2073C28.5126 21.2235 28.4292 21.2397 28.3434 21.2563C28.253 21.2738 28.1626 21.2912 28.0695 21.3092C26.2747 21.6739 24.5606 22.234 22.8905 22.976C22.7817 23.0239 22.7817 23.0239 22.6706 23.0728C21.7504 23.4819 20.8738 23.9333 20.0229 24.47C19.9579 24.5099 19.893 24.5497 19.826 24.5908C19.7407 24.6448 19.7407 24.6448 19.6535 24.7C19.4944 24.7588 19.4944 24.7588 19.3472 24.7182C19.1433 24.5758 18.9757 24.4133 18.7998 24.2382C18.7634 24.2021 18.727 24.1661 18.6895 24.1289C18.5738 24.0142 18.4586 23.899 18.3435 23.7838C18.2649 23.7057 18.1863 23.6276 18.1077 23.5496C17.9155 23.3588 17.7237 23.1675 17.5322 22.976C17.7617 22.7384 17.9743 22.5482 18.265 22.3883C18.3332 22.3506 18.4013 22.3128 18.4715 22.2738C18.5809 22.2146 18.5809 22.2146 18.6926 22.1542C18.8076 22.0912 18.8076 22.0912 18.925 22.027C19.1645 21.8966 19.4048 21.7675 19.6454 21.6389C19.7545 21.5802 19.7545 21.5802 19.8658 21.5204C22.6342 20.0418 25.5729 18.9932 28.6496 18.3332C28.7378 18.3142 28.826 18.2952 28.9168 18.2757C29.3304 18.1906 29.7127 18.1235 30.1354 18.1475Z" fill="white"/>
<path id="Vector_12" d="M28.2488 22.6793C28.1354 23.0048 27.9579 23.2671 27.7535 23.5428C27.7194 23.5889 27.6853 23.6351 27.6501 23.6826C27.5484 23.8191 27.446 23.9549 27.3432 24.0906C27.2944 24.1557 27.2457 24.2209 27.1955 24.2879C26.008 25.7924 24.5262 26.9593 22.8906 27.9534C22.8417 27.9839 22.793 28.0143 22.7428 28.0457C22.6195 28.12 22.4911 28.186 22.3623 28.2505C22.1168 28.1699 22.0839 28.1347 21.9395 27.9377C21.9028 27.8885 21.8661 27.8392 21.8283 27.7885C21.7704 27.7092 21.7704 27.7092 21.7114 27.6284C21.3826 27.1861 21.0456 26.7594 20.6825 26.3438C20.5487 26.1675 20.4726 26.0063 20.4001 25.7992C22.5042 24.4475 25.663 22.6793 28.2488 22.6793Z" fill="white"/>
<path id="Vector_13" d="M3.4955 24.387C3.80209 24.4797 4.06906 24.5905 4.3463 24.7488C4.42039 24.791 4.49449 24.8333 4.57084 24.8768C4.6487 24.922 4.72655 24.9672 4.80676 25.0137C4.88739 25.0604 4.96803 25.107 5.0511 25.1549C6.63692 26.0805 8.07616 27.1834 9.43866 28.4029C9.47738 28.4375 9.51617 28.4721 9.55609 28.5077C9.82567 28.7516 9.82567 28.7516 9.91034 28.9183C9.47202 28.8768 9.11785 28.7091 8.7264 28.5236C8.65681 28.4907 8.58723 28.4577 8.51554 28.4238C6.67895 27.5337 4.84208 26.2102 3.57097 24.6098C3.54607 24.5363 3.52116 24.4628 3.4955 24.387Z" fill="white"/>
<path id="Vector_14" d="M38.1075 23.7857C38.4498 23.7857 38.7919 23.7857 39.1445 23.7857C39.2592 24.0897 39.3737 24.3938 39.488 24.6979C39.5201 24.7828 39.5521 24.8676 39.585 24.955C39.7951 25.5144 39.9936 26.0766 40.1815 26.6437C40.3848 26.3436 40.4912 26.0878 40.6133 25.7494C40.6547 25.6353 40.6962 25.5211 40.7389 25.4035C40.7817 25.2843 40.8245 25.1652 40.8685 25.0425C40.9339 24.862 40.9339 24.862 41.0005 24.6778C41.1081 24.3806 41.2153 24.0832 41.3222 23.7857C41.6644 23.7857 42.0066 23.7857 42.3592 23.7857C42.3592 25.1667 42.3592 26.5478 42.3592 27.9706C42.1196 27.9706 41.8801 27.9706 41.6333 27.9706C41.5819 26.7075 41.5819 26.7075 41.5296 25.4189C41.2216 26.2609 40.9136 27.103 40.5963 27.9706C40.3568 27.9706 40.1172 27.9706 39.8704 27.9706C39.5624 27.1285 39.2544 26.2864 38.9371 25.4189C38.9029 26.2609 38.8687 27.103 38.8335 27.9706C38.5939 27.9706 38.3544 27.9706 38.1075 27.9706C38.1075 26.5896 38.1075 25.2086 38.1075 23.7857Z" fill="white"/>
<path id="Vector_15" d="M139.537 23.735C139.608 23.7343 139.678 23.7336 139.751 23.733C140.343 23.7477 140.745 23.9261 141.216 24.2645C141.471 24.608 141.466 24.8956 141.494 25.3171C141.255 25.3171 141.016 25.3171 140.769 25.3171C140.739 25.2033 140.709 25.0897 140.678 24.9725C140.564 24.7083 140.501 24.6218 140.232 24.5025C139.675 24.3783 139.225 24.3624 138.695 24.6025C138.26 25.0306 138.189 25.3236 138.15 25.9103C138.158 26.3463 138.266 26.6699 138.488 27.0523C138.81 27.3507 139.097 27.3811 139.525 27.3967C139.95 27.3811 140.244 27.3549 140.561 27.0523C140.703 26.6869 140.703 26.6869 140.769 26.3377C140.29 26.3377 139.811 26.3377 139.317 26.3377C139.317 26.1357 139.317 25.9335 139.317 25.7253C140.035 25.7253 140.754 25.7253 141.494 25.7253C141.494 26.4664 141.494 27.2074 141.494 27.9709C141.324 27.9709 141.152 27.9709 140.976 27.9709C140.976 27.8698 140.976 27.7688 140.976 27.6647C140.922 27.6941 140.868 27.7236 140.812 27.7539C140.113 28.101 139.457 28.2063 138.687 28.0211C138.177 27.8316 137.79 27.5115 137.542 27.0343C137.32 26.3366 137.309 25.3093 137.606 24.6345C138.086 23.9039 138.679 23.7427 139.537 23.735Z" fill="white"/>
<path id="Vector_16" d="M88.659 23.8587C89.0401 24.0579 89.2771 24.3137 89.437 24.7036C89.4567 25.0417 89.4567 25.0417 89.437 25.316C89.2318 25.316 89.0265 25.316 88.8152 25.316C88.779 25.2213 88.7427 25.1265 88.705 25.0289C88.5005 24.6982 88.3601 24.5685 87.9888 24.4393C87.5926 24.3605 87.2311 24.3807 86.8447 24.4994C86.564 24.7239 86.3836 24.8971 86.2229 25.214C86.1331 26.2415 86.1331 26.2415 86.5338 27.1533C86.9662 27.4289 87.4862 27.4129 87.9858 27.3574C88.296 27.2445 88.4439 27.1586 88.6039 26.8718C88.6824 26.6966 88.7495 26.5168 88.8152 26.3368C88.336 26.3368 87.8567 26.3368 87.3632 26.3368C87.3632 26.1347 87.3632 25.9325 87.3632 25.7243C88.0477 25.7243 88.7322 25.7243 89.437 25.7243C89.437 26.4654 89.437 27.2064 89.437 27.9699C89.2665 27.9699 89.0952 27.9699 88.9186 27.9699C88.8846 27.8688 88.8507 27.7678 88.8152 27.6636C88.7556 27.7121 88.6952 27.7605 88.6333 27.8104C88.1322 28.1532 87.5383 28.1191 86.9489 28.072C86.3051 27.9424 85.9625 27.6876 85.6002 27.1533C85.3105 26.4353 85.2274 25.541 85.5165 24.8057C86.1919 23.7053 87.4522 23.5149 88.659 23.8587Z" fill="white"/>
<path id="Vector_17" d="M71.6016 23.7857C72.2238 23.7857 72.2238 23.7857 72.4222 23.9516C72.5101 24.0716 72.5101 24.0716 72.5997 24.194C72.6683 24.2853 72.7371 24.3766 72.8079 24.4707C72.8458 24.5229 72.8839 24.5751 72.923 24.6289C73.1244 24.9032 73.3327 25.1723 73.5402 25.4422C73.794 25.7737 74.0456 26.1068 74.2977 26.4395C74.332 25.5638 74.3662 24.688 74.4014 23.7857C74.6409 23.7857 74.8805 23.7857 75.1273 23.7857C75.1273 25.1667 75.1273 26.5478 75.1273 27.9706C74.4014 27.9706 74.4014 27.9706 74.1956 27.8055C74.1425 27.7295 74.0895 27.6535 74.0349 27.5751C73.9745 27.4912 73.9141 27.4074 73.8519 27.3211C73.7614 27.1879 73.7614 27.1879 73.6691 27.052C73.5469 26.8797 73.4247 26.7075 73.3024 26.5352C73.223 26.4198 73.223 26.4198 73.1421 26.302C72.8798 25.933 72.6019 25.5749 72.3275 25.2147C72.2933 26.1241 72.259 27.0336 72.2238 27.9706C72.0184 27.9706 71.8131 27.9706 71.6016 27.9706C71.6016 26.5896 71.6016 25.2086 71.6016 23.7857Z" fill="white"/>
<path id="Vector_18" d="M48.5806 23.7857C49.2028 23.7857 49.2028 23.7857 49.4312 23.9811C49.5013 24.0724 49.5713 24.1637 49.6435 24.2578C49.7221 24.3588 49.8007 24.4599 49.8817 24.564C49.9668 24.6786 50.0516 24.7934 50.136 24.9085C50.1828 24.9718 50.2295 25.035 50.2776 25.1003C50.5104 25.4167 50.7409 25.7346 50.9689 26.0544C51.1456 26.3162 51.1456 26.3162 51.2767 26.4395C51.311 25.5638 51.3452 24.688 51.3804 23.7857C51.62 23.7857 51.8595 23.7857 52.1064 23.7857C52.1064 25.1667 52.1064 26.5478 52.1064 27.9706C51.3804 27.9706 51.3804 27.9706 51.1746 27.8072C51.1216 27.7318 51.0685 27.6564 51.0139 27.5787C50.9233 27.4536 50.9233 27.4536 50.8309 27.3261C50.7706 27.2377 50.7103 27.1494 50.6481 27.0584C50.5873 26.9736 50.5266 26.8887 50.4639 26.8014C50.0678 26.2453 49.6893 25.6778 49.3065 25.1126C49.2723 26.0558 49.238 26.9989 49.2028 27.9706C48.9974 27.9706 48.7922 27.9706 48.5806 27.9706C48.5806 26.5896 48.5806 25.2086 48.5806 23.7857Z" fill="white"/>
<path id="Vector_19" d="M112.874 23.7857C115.491 23.7857 115.491 23.7857 116.105 24.2674C116.151 24.3273 116.197 24.3874 116.244 24.4492C116.293 24.5092 116.341 24.5691 116.39 24.631C116.763 25.2071 116.656 25.988 116.607 26.6437C116.477 27.1385 116.28 27.3916 115.875 27.709C115.46 27.9262 115.17 27.9831 114.707 27.9805C114.563 27.9802 114.563 27.9802 114.416 27.9798C114.294 27.9788 114.173 27.9779 114.047 27.977C113.66 27.9749 113.273 27.9727 112.874 27.9706C112.874 26.5896 112.874 25.2086 112.874 23.7857ZM113.6 24.3981C113.6 25.375 113.6 26.3518 113.6 27.3582C114.945 27.4807 114.945 27.4807 115.57 27.052C115.879 26.6642 115.924 26.3651 115.921 25.8782C115.921 25.7655 115.922 25.6529 115.923 25.5368C115.877 25.1812 115.785 24.9911 115.57 24.7043C114.936 24.2282 114.481 24.3981 113.6 24.3981Z" fill="white"/>
<path id="Vector_20" d="M100.637 23.7857C103.246 23.7857 103.246 23.7857 103.867 24.2638C103.913 24.3229 103.96 24.3819 104.007 24.4428C104.055 24.5016 104.104 24.5604 104.153 24.621C104.512 25.2083 104.423 25.9865 104.37 26.6437C104.236 27.1346 104.041 27.3933 103.638 27.709C103.223 27.9262 102.933 27.9831 102.47 27.9805C102.326 27.9802 102.326 27.9802 102.178 27.9798C102.057 27.9788 101.935 27.9779 101.81 27.977C101.423 27.9749 101.036 27.9727 100.637 27.9706C100.637 26.5896 100.637 25.2086 100.637 23.7857ZM101.363 24.3981C101.363 25.375 101.363 26.3518 101.363 27.3582C102.708 27.4807 102.708 27.4807 103.333 27.052C103.642 26.6642 103.686 26.3651 103.683 25.8782C103.684 25.7655 103.685 25.6529 103.686 25.5368C103.64 25.1812 103.547 24.9911 103.333 24.7043C102.699 24.2282 102.243 24.3981 101.363 24.3981Z" fill="white"/>
<path id="Vector_21" d="M107.63 23.7537C107.762 23.752 107.895 23.7502 108.032 23.7485C108.596 23.8032 108.923 23.9804 109.321 24.3725C109.751 24.9826 109.841 25.6123 109.762 26.3373C109.633 26.9459 109.444 27.3768 108.933 27.7663C108.266 28.1473 107.579 28.175 106.826 28.0247C106.292 27.8576 106.031 27.6074 105.718 27.1539C105.39 26.4979 105.406 25.6868 105.562 24.9805C105.755 24.4916 106.094 24.1127 106.568 23.8757C106.931 23.7629 107.249 23.7548 107.63 23.7537ZM106.755 24.5001C106.298 24.9736 106.219 25.2658 106.211 25.9099C106.207 26.0348 106.205 26.1596 106.202 26.2883C106.238 26.6686 106.315 26.8527 106.547 27.1539C107.044 27.4911 107.518 27.5389 108.103 27.4601C108.49 27.2943 108.709 27.0971 108.933 26.7456C109.13 26.1603 109.125 25.538 108.881 24.9658C108.662 24.583 108.407 24.4606 107.989 24.3342C107.539 24.2468 107.18 24.3461 106.755 24.5001Z" fill="white"/>
<path id="Vector_22" d="M64.0774 23.7537C64.2098 23.752 64.3423 23.7502 64.4788 23.7485C65.0438 23.8032 65.3706 23.9804 65.7689 24.3725C66.2198 25.0134 66.2872 25.6792 66.2097 26.4394C66.0803 27.0104 65.852 27.3968 65.3801 27.7663C64.7127 28.1473 64.0265 28.175 63.2741 28.0247C62.7396 27.8576 62.4787 27.6074 62.1655 27.1539C61.838 26.4979 61.8535 25.6868 62.0099 24.9805C62.2029 24.4916 62.5416 24.1127 63.0157 23.8757C63.3791 23.7629 63.6966 23.7548 64.0774 23.7537ZM63.2024 24.5001C62.6621 25.0599 62.6537 25.4626 62.662 26.2137C62.6882 26.6046 62.7468 26.8445 62.995 27.1539C63.4833 27.4972 63.9695 27.5383 64.5505 27.4601C64.938 27.2943 65.1569 27.0971 65.3801 26.7456C65.5764 26.166 65.6041 25.4682 65.3283 24.9083C65.0089 24.5311 64.7212 24.3981 64.2394 24.2959C63.852 24.2959 63.5664 24.3681 63.2024 24.5001Z" fill="white"/>
<path id="Vector_23" d="M90.9939 23.7859C91.6157 23.7764 91.6157 23.7764 92.2512 23.7667C92.3802 23.7639 92.51 23.7612 92.6436 23.7583C93.713 23.7504 93.713 23.7504 94.208 24.0921C94.5409 24.463 94.5718 24.8176 94.5575 25.295C94.4993 25.639 94.3197 25.8635 94.1046 26.1335C93.962 26.4398 93.962 26.4398 94.1265 26.7268C94.2148 26.8878 94.2148 26.8878 94.3054 27.0522C94.6231 27.6331 94.6231 27.6331 94.6231 27.9707C94.3831 27.9707 94.1439 27.9707 93.8971 27.9707C93.7756 27.7371 93.6549 27.5031 93.5341 27.269C93.4994 27.2026 93.4647 27.1361 93.4292 27.0677C93.1711 26.5649 93.1711 26.5649 93.1711 26.3376C92.6579 26.3376 92.1447 26.3376 91.6157 26.3376C91.6157 26.8765 91.6157 27.4155 91.6157 27.9707C91.4104 27.9707 91.2052 27.9707 90.9939 27.9707C90.9939 26.5897 90.9939 25.2087 90.9939 23.7859ZM91.6157 24.3983C91.6157 24.8698 91.6157 25.3414 91.6157 25.8273C91.8836 25.8328 92.1515 25.8369 92.4194 25.8401C92.4949 25.8418 92.5704 25.8435 92.6489 25.8452C93.2028 25.8525 93.2028 25.8525 93.6896 25.6232C93.8496 25.3084 93.8239 25.0507 93.7937 24.7045C93.6088 24.4934 93.4617 24.4082 93.1794 24.3744C92.9424 24.3681 92.7077 24.3716 92.4715 24.3791C92.3893 24.3805 92.307 24.3819 92.2225 24.3834C92.0202 24.3869 91.818 24.3924 91.6157 24.3983Z" fill="white"/>
<path id="Vector_24" d="M117.955 23.7857C119.05 23.7857 120.145 23.7857 121.273 23.7857C121.273 23.9878 121.273 24.1899 121.273 24.3981C120.418 24.3981 119.562 24.3981 118.681 24.3981C118.681 24.7687 118.681 25.1392 118.681 25.5209C119.434 25.5209 120.186 25.5209 120.962 25.5209C120.962 25.723 120.962 25.9251 120.962 26.1333C120.209 26.1333 119.457 26.1333 118.681 26.1333C118.681 26.5375 118.681 26.9418 118.681 27.3582C119.537 27.3582 120.392 27.3582 121.273 27.3582C121.273 27.5602 121.273 27.7624 121.273 27.9706C120.178 27.9706 119.083 27.9706 117.955 27.9706C117.955 26.5896 117.955 25.2086 117.955 23.7857Z" fill="white"/>
<path id="Vector_25" d="M149.207 23.7537C149.341 23.752 149.474 23.7502 149.612 23.7485C150.022 23.788 150.271 23.8795 150.62 24.0918C150.897 24.4366 150.969 24.6761 150.931 25.1125C150.692 25.1125 150.452 25.1125 150.205 25.1125C150.17 24.9925 150.17 24.9925 150.134 24.8701C150.021 24.5908 150.021 24.5908 149.778 24.4618C149.325 24.3649 148.864 24.3948 148.443 24.6021C148.443 24.7705 148.443 24.939 148.443 25.1125C148.613 25.1743 148.784 25.236 148.954 25.2975C149.059 25.3352 149.162 25.373 149.269 25.4119C149.541 25.5061 149.812 25.5844 150.089 25.6611C150.57 25.8193 150.774 26.0089 151.035 26.4394C151.092 26.8391 151.074 27.0676 150.905 27.4346C150.613 27.804 150.358 27.9817 149.894 28.0725C149.169 28.1302 148.576 28.0931 147.924 27.7663C147.605 27.4761 147.516 27.3457 147.484 26.9179C147.492 26.8274 147.5 26.7368 147.509 26.6435C147.748 26.6435 147.988 26.6435 148.235 26.6435C148.269 26.8457 148.303 27.0478 148.339 27.256C148.656 27.3461 148.943 27.3747 149.272 27.3772C149.36 27.3786 149.447 27.38 149.538 27.3816C149.807 27.3566 149.974 27.2872 150.205 27.1539C150.249 26.9117 150.249 26.9117 150.205 26.6435C149.756 26.3157 149.235 26.1852 148.705 26.0383C148.219 25.8917 147.93 25.7069 147.613 25.3167C147.525 25.034 147.548 24.7875 147.613 24.5001C148.023 23.8363 148.447 23.756 149.207 23.7537Z" fill="white"/>
<path id="Vector_26" d="M80.9341 23.7857C81.9951 23.7857 83.0562 23.7857 84.149 23.7857C84.149 23.9878 84.149 24.1899 84.149 24.3981C83.2932 24.3981 82.4381 24.3981 81.5567 24.3981C81.5567 24.7687 81.5567 25.1392 81.5567 25.5209C82.3438 25.5209 83.1309 25.5209 83.9415 25.5209C83.9415 25.723 83.9415 25.9251 83.9415 26.1333C83.1543 26.1333 82.3672 26.1333 81.5567 26.1333C81.5567 26.5375 81.5567 26.9418 81.5567 27.3582C82.4464 27.3582 83.3362 27.3582 84.2524 27.3582C84.2524 27.5602 84.2524 27.7624 84.2524 27.9706C83.1573 27.9706 82.0623 27.9706 80.9341 27.9706C80.9341 26.5896 80.9341 25.2086 80.9341 23.7857Z" fill="white"/>
<path id="Vector_27" d="M53.6623 23.7857C54.7231 23.7857 55.784 23.7857 56.877 23.7857C56.877 23.9878 56.877 24.1899 56.877 24.3981C56.0215 24.3981 55.166 24.3981 54.2845 24.3981C54.2845 24.7687 54.2845 25.1392 54.2845 25.5209C55.0716 25.5209 55.8586 25.5209 56.6695 25.5209C56.6695 25.723 56.6695 25.9251 56.6695 26.1333C55.8825 26.1333 55.0954 26.1333 54.2845 26.1333C54.2845 26.5375 54.2845 26.9418 54.2845 27.3582C55.1742 27.3582 56.064 27.3582 56.9807 27.3582C56.9807 27.5602 56.9807 27.7624 56.9807 27.9706C55.8856 27.9706 54.7905 27.9706 53.6623 27.9706C53.6623 26.5896 53.6623 25.2086 53.6623 23.7857Z" fill="white"/>
<path id="Vector_28" d="M124.488 23.7848C125.084 23.7753 125.084 23.7753 125.693 23.7657C125.879 23.7615 125.879 23.7615 126.07 23.7572C126.654 23.7527 127.1 23.7523 127.599 24.091C127.954 24.4758 127.963 24.8737 127.946 25.3729C127.891 25.7462 127.752 25.9602 127.495 26.2345C127.028 26.4867 126.58 26.4625 126.063 26.4514C125.94 26.4501 125.94 26.4501 125.814 26.4487C125.614 26.4462 125.414 26.4426 125.214 26.4386C125.214 26.9439 125.214 27.4492 125.214 27.9697C124.974 27.9697 124.734 27.9697 124.488 27.9697C124.488 26.5887 124.488 25.2077 124.488 23.7848ZM125.214 24.3972C125.214 24.8688 125.214 25.3403 125.214 25.8262C125.484 25.8345 125.753 25.8406 126.023 25.8454C126.1 25.8479 126.177 25.8505 126.255 25.8531C126.691 25.8643 126.691 25.8643 127.076 25.6871C127.227 25.4527 127.274 25.2883 127.288 25.0097C127.106 24.6307 127.106 24.6307 126.769 24.3972C126.504 24.39 126.242 24.3877 125.978 24.3908C125.868 24.3916 125.868 24.3916 125.756 24.3923C125.575 24.3934 125.394 24.3953 125.214 24.3972Z" fill="white"/>
<path id="Vector_29" d="M144.383 23.7754C144.595 23.7786 144.808 23.782 145.02 23.7853C146.275 26.7806 146.275 26.7806 146.68 27.9702C146.406 27.9702 146.132 27.9702 145.85 27.9702C145.696 27.465 145.696 27.465 145.539 26.9495C144.889 26.9495 144.238 26.9495 143.569 26.9495C143.534 27.1179 143.5 27.2863 143.465 27.4598C143.399 27.6312 143.331 27.8018 143.257 27.9702C143.018 27.9702 142.779 27.9702 142.532 27.9702C142.757 27.1461 143.068 26.3596 143.392 25.5698C143.479 25.3584 143.565 25.1467 143.651 24.935C144.118 23.789 144.118 23.789 144.383 23.7754ZM144.502 24.4998C144.398 24.7653 144.294 25.0312 144.191 25.2972C144.161 25.3725 144.131 25.4479 144.101 25.5255C144.073 25.5981 144.045 25.6709 144.016 25.7457C143.99 25.8126 143.964 25.8794 143.937 25.9482C143.865 26.1495 143.865 26.1495 143.88 26.4391C144.324 26.4391 144.77 26.4391 145.228 26.4391C145.144 25.9458 145.043 25.5817 144.859 25.1249C144.811 25.0074 144.764 24.8897 144.715 24.7685C144.679 24.6798 144.643 24.5911 144.606 24.4998C144.571 24.4998 144.537 24.4998 144.502 24.4998Z" fill="white"/>
<path id="Vector_30" d="M134.323 23.7754C134.536 23.7786 134.749 23.782 134.961 23.7853C135.338 24.6729 135.712 25.5617 136.083 26.4519C136.161 26.6382 136.161 26.6382 136.241 26.8283C136.314 27.0055 136.314 27.0055 136.389 27.1863C136.434 27.2929 136.478 27.3995 136.524 27.5093C136.62 27.766 136.62 27.766 136.62 27.9702C136.381 27.9702 136.142 27.9702 135.894 27.9702C135.825 27.8386 135.756 27.7067 135.687 27.5747C135.649 27.5012 135.61 27.4278 135.57 27.3522C135.48 27.1536 135.48 27.1536 135.48 26.9495C134.829 26.9495 134.18 26.9495 133.509 26.9495C133.475 27.1516 133.441 27.3537 133.406 27.5619C133.296 27.8043 133.296 27.8043 133.199 27.9702C132.959 27.9702 132.719 27.9702 132.473 27.9702C132.697 27.1461 133.008 26.3596 133.333 25.5698C133.42 25.3584 133.506 25.1467 133.592 24.935C134.06 23.789 134.06 23.789 134.323 23.7754ZM134.443 24.6018C134.339 24.8696 134.235 25.1376 134.132 25.4057C134.102 25.4819 134.072 25.558 134.042 25.6365C133.879 26.0267 133.879 26.0267 133.82 26.4391C134.3 26.4391 134.779 26.4391 135.272 26.4391C135.174 26.1517 135.075 25.8647 134.974 25.5779C134.946 25.496 134.918 25.4141 134.89 25.3297C134.863 25.2517 134.835 25.1738 134.807 25.0934C134.782 25.0213 134.757 24.9491 134.731 24.8748C134.663 24.6835 134.663 24.6835 134.443 24.6018Z" fill="white"/>
<path id="Vector_31" d="M97.1116 23.7857C97.3848 23.7857 97.6587 23.7857 97.941 23.7857C98.3296 24.5009 98.6239 25.2487 98.9183 26.0045C99.0043 26.2245 99.0911 26.4441 99.1779 26.6636C99.233 26.8034 99.2873 26.9432 99.3424 27.083C99.3809 27.1815 99.3809 27.1815 99.4209 27.2818C99.5997 27.743 99.5997 27.743 99.5997 27.9706C99.3605 27.9706 99.1213 27.9706 98.8737 27.9706C98.7371 27.6674 98.6005 27.3643 98.4594 27.052C97.8436 27.052 97.227 27.052 96.5931 27.052C96.4557 27.3551 96.3191 27.6583 96.178 27.9706C95.9388 27.9706 95.6988 27.9706 95.452 27.9706C95.9758 26.5642 96.5425 25.175 97.1116 23.7857ZM97.5259 24.6023C97.2353 25.2059 96.9614 25.7894 96.7999 26.4395C97.2791 26.4395 97.7583 26.4395 98.2519 26.4395C98.067 25.8158 97.8693 25.2077 97.63 24.6023C97.5953 24.6023 97.5613 24.6023 97.5259 24.6023Z" fill="white"/>
<path id="Vector_32" d="M45.2463 23.7754C45.459 23.7786 45.6717 23.782 45.8843 23.7853C46.0545 24.1842 46.2241 24.5833 46.3932 24.9827C46.4506 25.118 46.5081 25.2532 46.5658 25.3883C46.9284 26.238 47.263 27.09 47.5435 27.9702C47.304 27.9702 47.0644 27.9702 46.8176 27.9702C46.748 27.8386 46.679 27.7067 46.6102 27.5747C46.5717 27.5012 46.5332 27.4278 46.4936 27.3522C46.4028 27.1536 46.4028 27.1536 46.4028 26.9495C45.7527 26.9495 45.1024 26.9495 44.4326 26.9495C44.3984 27.1179 44.3641 27.2863 44.3289 27.4598C44.2631 27.6312 44.1948 27.8018 44.1215 27.9702C43.882 27.9702 43.6424 27.9702 43.3956 27.9702C43.6206 27.1461 43.9317 26.3596 44.2561 25.5698C44.3429 25.3584 44.4289 25.1467 44.5148 24.935C44.9824 23.789 44.9824 23.789 45.2463 23.7754ZM45.3659 24.6018C45.2615 24.8504 45.1579 25.0992 45.0547 25.3482C45.0251 25.4187 44.9954 25.4892 44.9648 25.5617C44.8381 25.8691 44.7436 26.1042 44.7436 26.4391C45.2227 26.4391 45.7019 26.4391 46.1954 26.4391C46.0969 26.1517 45.9975 25.8647 45.8973 25.5779C45.8693 25.496 45.8414 25.4141 45.8127 25.3297C45.7853 25.2517 45.7579 25.1738 45.7296 25.0934C45.7047 25.0213 45.6797 24.9491 45.6539 24.8748C45.5855 24.6835 45.5855 24.6835 45.3659 24.6018Z" fill="white"/>
<path id="Vector_33" d="M76.2691 23.7857C77.4328 23.7857 78.5958 23.7857 79.795 23.7857C79.795 23.9878 79.795 24.1899 79.795 24.3981C79.3158 24.3981 78.8366 24.3981 78.343 24.3981C78.343 25.577 78.343 26.756 78.343 27.9706C78.1038 27.9706 77.8638 27.9706 77.617 27.9706C77.617 26.7917 77.617 25.6127 77.617 24.3981C77.1725 24.3981 76.7272 24.3981 76.2691 24.3981C76.2691 24.196 76.2691 23.994 76.2691 23.7857Z" fill="white"/>
<path id="Vector_34" d="M59.9879 23.7857C60.1932 23.7857 60.3986 23.7857 60.6101 23.7857C60.6204 24.2687 60.6279 24.7517 60.6329 25.2348C60.635 25.399 60.6378 25.5631 60.6414 25.7272C60.6464 25.9639 60.6488 26.2004 60.6506 26.4371C60.6528 26.5099 60.6549 26.5827 60.6571 26.6576C60.6574 27.1779 60.5276 27.4683 60.1953 27.8685C59.7568 28.1398 59.2461 28.1293 58.7436 28.0727C58.4068 27.9522 58.2003 27.8653 57.9788 27.5878C57.889 27.2696 57.9011 26.9719 57.914 26.6437C58.1193 26.6437 58.3246 26.6437 58.5361 26.6437C58.5661 26.7426 58.596 26.8415 58.6269 26.9435C58.7064 27.267 58.7064 27.267 58.951 27.3582C59.2577 27.4092 59.2577 27.4092 59.5731 27.3582C59.8955 26.96 59.9265 26.6278 59.9373 26.1281C59.9391 26.0609 59.941 25.9937 59.9429 25.9244C59.9485 25.7112 59.9521 25.4981 59.9555 25.2849C59.959 25.1397 59.9625 24.9945 59.9662 24.8493C59.9751 24.4948 59.9819 24.1403 59.9879 23.7857Z" fill="white"/>
<path id="Vector_35" d="M129.155 23.7857C129.36 23.7857 129.565 23.7857 129.777 23.7857C129.777 24.9646 129.777 26.1436 129.777 27.3582C130.462 27.3582 131.145 27.3582 131.851 27.3582C131.851 27.5602 131.851 27.7624 131.851 27.9706C130.961 27.9706 130.072 27.9706 129.155 27.9706C129.155 26.5896 129.155 25.2086 129.155 23.7857Z" fill="white"/>
<path id="Vector_36" d="M69.4241 23.7857C69.6295 23.7857 69.8347 23.7857 70.0463 23.7857C70.0463 25.1667 70.0463 26.5478 70.0463 27.9706C69.841 27.9706 69.6356 27.9706 69.4241 27.9706C69.4241 26.5896 69.4241 25.2086 69.4241 23.7857Z" fill="white"/>
</g>
</svg>
