<svg preserveAspectRatio="none" width="100%" height="100%" overflow="visible" style="display: block;" viewBox="0 0 139.378 28" fill="none" xmlns="http://www.w3.org/2000/svg">
<g id="Logo GreenMIP">
<path id="Vector" d="M13.2912 0.00733106C13.3746 0.00659436 13.3746 0.00659436 13.4596 0.0058428C15.7873 -0.0100601 15.7873 -0.0100601 16.872 0.230164C16.9336 0.243245 16.9951 0.256326 17.0585 0.269804C20.6453 1.05348 23.8494 3.2263 25.8467 6.31267C26.7882 7.79841 27.9288 9.83186 27.8735 11.6392C27.411 11.7472 26.9481 11.8529 26.4837 11.9528C21.3277 13.0697 16.5221 15.1848 12.1372 18.109C11.6822 17.823 11.2328 17.5305 10.7878 17.2293C7.50958 15.0156 3.98786 13.4041 0.230491 12.1957C0.230895 12.2364 0.231299 12.2771 0.231715 12.3191C0.234042 12.7236 0.206172 13.1157 0.160861 13.5175C0.206811 13.5294 0.252761 13.5412 0.300104 13.5534C4.55589 14.6776 8.67651 17.0398 12.1372 19.709C12.1746 19.7377 12.212 19.7664 12.2506 19.796C13.1284 20.4708 13.9647 21.1899 14.7831 21.9352C14.8456 21.9911 14.9081 22.047 14.9724 22.1047C15.3914 22.4828 15.7975 22.8719 16.1975 23.2699C16.2433 23.3154 16.2891 23.3608 16.3362 23.4076C16.606 23.6779 16.8625 23.9563 17.1121 24.2453C17.2436 24.3971 17.3798 24.5443 17.5161 24.6917C17.9053 25.1227 18.2586 25.58 18.6128 26.0396C18.6464 26.0831 18.68 26.1266 18.7146 26.1714C18.9133 26.4286 19.1114 26.686 19.3091 26.944C19.2394 27.0831 19.2394 27.0831 19.1117 27.1403C19.0565 27.1586 19.0014 27.177 18.9446 27.1959C18.8834 27.2163 18.8223 27.2369 18.7593 27.2579C18.6937 27.2792 18.6281 27.3004 18.5605 27.3222C18.4943 27.3439 18.428 27.3656 18.3597 27.388C17.871 27.5455 17.3803 27.6984 16.872 27.7788C16.8132 27.7882 16.7543 27.7976 16.6936 27.8073C16.5239 27.7788 16.5239 27.7788 16.3694 27.62C16.317 27.5462 16.2646 27.4723 16.2105 27.3962C16.1497 27.3128 16.0887 27.2296 16.0275 27.1464C15.9952 27.1021 15.963 27.0578 15.9298 27.0122C15.7531 26.7739 15.5666 26.5436 15.3794 26.3135C15.3412 26.2665 15.303 26.2196 15.2637 26.1712C14.9629 25.8043 14.6482 25.4534 14.3243 25.1069C14.1847 24.9568 14.05 24.8044 13.9171 24.6483C13.4564 24.1182 12.9487 23.6205 12.4135 23.1659C12.2571 23.0316 12.1061 22.892 11.9544 22.7526C11.5703 22.4063 11.1663 22.0881 10.7564 21.7733C10.6395 21.6832 10.5232 21.5925 10.4072 21.5014C9.85778 21.0722 9.29329 20.6724 8.7123 20.2872C8.66746 20.2575 8.62262 20.2276 8.57638 20.1969C5.99321 18.4842 3.24142 17.2003 0.300121 16.2306C0.343331 16.4089 0.3869 16.5872 0.430677 16.7654C0.442794 16.8156 0.454911 16.8657 0.467396 16.9175C0.479513 16.9665 0.49163 17.0156 0.504114 17.0662C0.515054 17.111 0.525993 17.1558 0.537264 17.202C0.619991 17.545 0.619991 17.545 0.864776 17.7752C0.925451 17.7943 0.986127 17.8134 1.04864 17.8331C1.11739 17.8559 1.18612 17.8787 1.25695 17.9022C1.36926 17.9378 1.36926 17.9378 1.48383 17.9741C3.6383 18.7047 5.71003 19.7865 7.61124 21.0308C7.65971 21.0624 7.7081 21.0939 7.75802 21.1264C8.95392 21.9125 10.0944 22.792 11.1624 23.7439C11.2119 23.7874 11.2615 23.8309 11.3126 23.8757C11.7741 24.2846 12.2143 24.7123 12.6503 25.148C12.768 25.2654 12.8862 25.3822 13.0044 25.4991C13.4664 25.9582 13.8936 26.4306 14.2957 26.944C14.372 27.0391 14.4482 27.1342 14.5244 27.2293C14.589 27.311 14.6535 27.3926 14.7179 27.4744C14.7516 27.5168 14.7853 27.5592 14.82 27.6029C15.0616 27.9096 15.0616 27.9096 15.0616 27.9875C14.7436 27.991 14.4256 27.9935 14.1076 27.9951C13.9999 27.9958 13.8922 27.9967 13.7845 27.9979C13.2263 28.0041 12.6712 27.9999 12.1157 27.9391C12.0341 27.9303 11.9525 27.9215 11.8683 27.9124C11.5971 27.8329 11.4846 27.7119 11.3016 27.5005C11.2454 27.4393 11.1892 27.3782 11.1314 27.3151C11.0698 27.2472 11.0082 27.1792 10.9448 27.1092C10.1438 26.2361 9.3208 25.3685 8.37717 24.6483C8.30253 24.5884 8.22803 24.5285 8.15359 24.4684C7.17042 23.6772 6.12333 22.9901 5.03495 22.3526C4.95533 22.3057 4.95533 22.3057 4.87411 22.258C4.70939 22.1621 4.54391 22.0677 4.37782 21.9742C4.32173 21.9426 4.26563 21.9109 4.20783 21.8784C3.86496 21.6912 3.51985 21.5347 3.15576 21.3927C1.65566 20.8025 1.65566 20.8025 1.39244 20.209C1.33777 20.0665 1.29029 19.9247 1.24764 19.7782C1.18028 19.5573 1.08086 19.3505 0.987714 19.1394C0.729213 18.4876 0.537184 17.8151 0.369751 17.135C0.347334 17.0452 0.347334 17.0452 0.324464 16.9536C-0.12798 15.0464 -0.102054 12.7734 0.369751 10.874C0.384673 10.8121 0.399595 10.7504 0.414969 10.6868C1.3185 7.03846 3.62105 3.89741 6.84098 1.95195C8.77239 0.812322 11.0282 0.020685 13.2912 0.00733106Z" fill="var(--fill-0, #01714D)"/>
<path id="Vector_2" d="M97.5733 2.59551C99.5954 2.59551 101.617 2.59551 103.701 2.59551C103.832 2.94453 103.947 3.26427 104.041 3.62006C104.053 3.66347 104.065 3.70687 104.077 3.75158C104.115 3.89407 104.153 4.03666 104.19 4.17925C104.217 4.2809 104.245 4.38253 104.272 4.48415C104.343 4.7551 104.416 5.02613 104.488 5.29718C104.607 5.74718 104.727 6.19701 104.847 6.64687C104.877 6.759 104.907 6.87113 104.937 6.98328C105.172 7.86734 105.412 8.75001 105.656 9.63184C106.486 12.6395 106.486 12.6395 106.486 13.2393C106.532 13.2393 106.578 13.2393 106.625 13.2393C106.636 13.1821 106.636 13.1821 106.646 13.1238C106.824 12.155 107.04 11.1984 107.28 10.2433C107.295 10.1842 107.31 10.1251 107.325 10.0643C107.69 8.6115 108.087 7.16791 108.488 5.72477C108.565 5.44793 108.641 5.17096 108.718 4.894C108.791 4.62582 108.866 4.35771 108.94 4.08962C108.975 3.96251 109.01 3.83539 109.046 3.70825C109.094 3.53357 109.142 3.35898 109.19 3.18441C109.205 3.13243 109.219 3.08046 109.234 3.02691C109.333 2.67304 109.333 2.67304 109.41 2.59551C111.364 2.59551 113.317 2.59551 115.329 2.59551C115.329 7.85273 115.329 13.1099 115.329 18.5264C113.973 18.5264 112.618 18.5264 111.221 18.5264C111.221 14.6467 111.221 10.7669 111.221 6.76954C111.014 7.6649 110.807 8.56023 110.594 9.48269C110.452 10.0293 110.308 10.574 110.155 11.1175C110.114 11.261 110.075 11.4045 110.035 11.548C109.923 11.95 109.81 12.3517 109.697 12.7534C109.612 13.0564 109.527 13.3594 109.442 13.6625C109.27 14.2817 109.096 14.9008 108.922 15.5197C108.876 15.6863 108.829 15.853 108.782 16.0196C108.708 16.2836 108.634 16.5474 108.56 16.8112C108.532 16.9089 108.505 17.0066 108.477 17.1043C108.439 17.2394 108.401 17.3745 108.362 17.5096C108.342 17.5854 108.32 17.6612 108.298 17.7393C108.216 18.0053 108.116 18.2656 108.018 18.5264C106.892 18.5264 105.766 18.5264 104.606 18.5264C104.171 17.0002 103.738 15.474 103.305 13.9474C103.135 13.3507 102.965 12.754 102.795 12.1577C102.426 10.8676 102.08 9.57466 101.769 8.26958C101.753 8.20565 101.738 8.14178 101.722 8.0759C101.679 7.89718 101.638 7.71833 101.596 7.5394C101.577 7.45995 101.577 7.45995 101.558 7.37891C101.503 7.14391 101.473 6.94274 101.473 6.69998C101.427 6.69998 101.381 6.69998 101.333 6.69998C101.34 6.81314 101.34 6.81314 101.347 6.92859C101.393 7.69913 101.424 8.46917 101.442 9.2408C101.443 9.30161 101.445 9.36241 101.446 9.42509C101.487 11.1572 101.48 12.8895 101.477 14.622C101.477 15.1428 101.476 15.6637 101.476 16.1844C101.475 16.9651 101.474 17.7457 101.473 18.5264C100.186 18.5264 98.8991 18.5264 97.5733 18.5264C97.5733 13.2692 97.5733 8.01204 97.5733 2.59551Z" fill="var(--fill-0, #01714D)"/>
<path id="Vector_3" d="M47.1129 3.89454C47.3235 4.07948 47.5217 4.27467 47.7191 4.47364C47.7655 4.51767 47.8119 4.56169 47.8597 4.60706C48.7819 5.54919 48.9636 6.83657 49.0421 8.09116C47.9851 8.09116 46.9281 8.09116 45.8391 8.09116C45.7702 7.67793 45.7702 7.67793 45.6999 7.25635C45.6104 7.00459 45.6104 7.00459 45.4953 6.79979C45.4426 6.6985 45.4426 6.6985 45.389 6.59516C45.2944 6.44159 45.2004 6.33766 45.0732 6.21281C45.0732 6.1669 45.0732 6.12099 45.0732 6.07368C45.0329 6.05476 44.9926 6.03584 44.9511 6.01634C44.7954 5.93496 44.6624 5.84202 44.5205 5.73889C43.6385 5.14709 42.649 5.00313 41.6091 5.00843C41.4898 5.00894 41.4898 5.00894 41.3682 5.00947C40.0287 5.028 38.784 5.36685 37.823 6.3476C36.5945 7.81595 36.5247 9.89378 36.6643 11.7125C36.803 13.0597 37.1507 14.3099 38.1798 15.2566C39.112 15.9573 40.1958 16.1161 41.3306 16.1131C41.4155 16.1142 41.5005 16.1153 41.5881 16.1165C42.8622 16.1172 44.071 15.7833 45.019 14.9044C45.7008 14.1914 45.7826 13.5518 45.9087 12.5435C44.2543 12.5435 42.5999 12.5435 40.8954 12.5435C40.8954 11.694 40.8954 10.8446 40.8954 9.96947C43.5838 9.96947 46.2722 9.96947 49.0421 9.96947C49.0421 12.7932 49.0421 15.6169 49.0421 18.5262C48.3068 18.5262 47.5715 18.5262 46.8139 18.5262C46.73 18.1489 46.6523 17.7885 46.5963 17.4088C46.5846 17.3305 46.573 17.2522 46.561 17.1715C46.5525 17.1135 46.5441 17.0555 46.5354 16.9958C46.3319 16.9958 46.2756 17.0995 46.1307 17.2392C44.4859 18.7203 42.3151 18.8874 40.1991 18.8045C38.2726 18.6633 36.4973 17.9691 35.1425 16.5634C34.4365 15.7376 34.0093 14.7761 33.7409 13.7304C33.7271 13.6766 33.7132 13.6228 33.6989 13.5673C33.4651 12.5947 33.4165 11.6298 33.4189 10.6347C33.4189 10.5737 33.419 10.5127 33.419 10.4499C33.4256 8.1203 33.9107 6.00978 35.56 4.28667C38.2797 1.65706 44.1972 1.44954 47.1129 3.89454Z" fill="var(--fill-0, #01714D)"/>
<path id="Vector_4" d="M125.426 2.59544C127.003 2.59113 128.579 2.58683 130.204 2.58239C130.7 2.58049 131.197 2.5786 131.708 2.57663C132.318 2.57569 132.318 2.57569 132.604 2.57552C132.803 2.57533 133.001 2.57455 133.2 2.57341C133.454 2.57196 133.708 2.57155 133.962 2.57184C134.098 2.57175 134.234 2.57064 134.369 2.56947C135.693 2.57408 136.982 2.97578 137.968 3.88678C139.01 4.99514 139.382 6.33091 139.378 7.8217C139.377 7.86949 139.377 7.91735 139.377 7.96668C139.371 9.48755 138.971 10.7565 137.878 11.8604C136.676 12.9817 135.202 13.194 133.617 13.1832C133.515 13.183 133.414 13.1829 133.313 13.1828C132.941 13.1821 132.569 13.1801 132.197 13.1784C131.364 13.1754 130.532 13.1726 129.673 13.1697C129.673 14.9374 129.673 16.7051 129.673 18.5263C128.271 18.5263 126.87 18.5263 125.426 18.5263C125.426 13.2692 125.426 8.01197 125.426 2.59544ZM129.673 5.86509C129.673 7.19664 129.673 8.52815 129.673 9.90002C130.314 9.90572 130.954 9.9115 131.614 9.91741C131.915 9.92117 131.915 9.92117 132.223 9.92506C132.384 9.9259 132.545 9.92659 132.706 9.92715C132.788 9.92861 132.87 9.93 132.955 9.93146C133.59 9.93174 134.115 9.82976 134.608 9.40867C135.066 8.89811 135.148 8.29051 135.126 7.62545C135.076 7.10585 134.907 6.61219 134.507 6.25423C133.956 5.83021 133.399 5.84575 132.726 5.85151C132.648 5.85165 132.571 5.85179 132.491 5.85193C132.203 5.85266 131.915 5.8546 131.627 5.8564C130.66 5.8607 130.66 5.8607 129.673 5.86509Z" fill="var(--fill-0, #01714D)"/>
<path id="Vector_5" d="M80.8204 7.18632C82.0159 8.30121 82.3877 9.92602 82.4636 11.5C82.4636 12.051 82.4636 12.602 82.4636 13.1697C79.7293 13.1697 76.9949 13.1697 74.1777 13.1697C74.3657 14.7207 74.3657 14.7207 75.2221 15.9523C75.9922 16.5021 76.9552 16.5481 77.8681 16.407C78.4084 16.2643 78.8791 15.9827 79.2175 15.5349C79.4633 15.1041 79.4633 15.1041 79.6088 14.2132C80.5509 14.2132 81.493 14.2132 82.4636 14.2132C82.4636 15.4673 82.1301 16.493 81.2806 17.4265C80.592 18.0899 79.6958 18.4618 78.7732 18.6655C78.6723 18.6888 78.6723 18.6888 78.5699 18.7127C76.9176 19.0315 74.8795 18.8784 73.4375 17.9499C72.2106 17.0622 71.5714 15.8205 71.3096 14.3479C70.9998 12.2418 71.045 9.72761 72.3227 7.92805C73.1193 6.85944 74.2675 6.3263 75.5563 6.09605C77.3834 5.83241 79.347 5.96514 80.8204 7.18632ZM75.0202 8.96516C74.4924 9.52239 74.2473 10.3335 74.2473 11.0826C75.9706 11.0826 77.694 11.0826 79.4695 11.0826C79.3254 9.73638 79.3254 9.73638 78.5644 8.71736C77.5867 7.97981 75.9191 8.22614 75.0202 8.96516Z" fill="var(--fill-0, #01714D)"/>
<path id="Vector_6" d="M68.3597 7.21131C69.9402 8.88155 69.9304 10.9839 69.9304 13.1696C67.1961 13.1696 64.4617 13.1696 61.6445 13.1696C61.8676 14.7976 61.8676 14.7976 62.8412 16.0479C63.5927 16.4962 64.4867 16.5455 65.337 16.4043C65.8854 16.2563 66.4322 15.9678 66.7275 15.4653C66.916 15.0449 67.0099 14.6729 67.0756 14.2131C68.0177 14.2131 68.9598 14.2131 69.9304 14.2131C69.9304 15.4335 69.6498 16.5008 68.7767 17.3964C67.4126 18.6541 65.6676 18.8562 63.8812 18.8137C62.4318 18.7526 61.0574 18.2803 60.0473 17.2089C59.5326 16.5968 59.2238 15.9524 58.9985 15.187C58.9847 15.1426 58.9708 15.0981 58.9566 15.0523C58.4763 13.4427 58.4866 11.2212 58.9985 9.62167C59.0254 9.53722 59.0522 9.45277 59.0799 9.36574C59.5545 8.03673 60.3238 7.12498 61.5955 6.52135C63.6424 5.68586 66.6212 5.66629 68.3597 7.21131ZM62.5279 8.96948C62.0076 9.53757 61.7141 10.3126 61.7141 11.0826C63.4374 11.0826 65.1608 11.0826 66.9364 11.0826C66.8644 10.1474 66.7614 9.38974 66.0524 8.74993C65.1048 8.01975 63.3907 8.17329 62.5279 8.96948Z" fill="var(--fill-0, #01714D)"/>
<path id="Vector_7" d="M93.5851 6.6979C94.5223 7.49729 94.8593 8.42309 94.9972 9.62159C95.0139 9.92859 95.0153 10.2343 95.0132 10.5417C95.0132 10.6287 95.0132 10.7157 95.0132 10.8053C95.0132 11.0407 95.0125 11.276 95.0111 11.5115C95.0104 11.7586 95.0104 12.0057 95.0104 12.2529C95.0097 12.7195 95.0083 13.1861 95.0069 13.6527C95.0055 14.1845 95.0048 14.7163 95.0041 15.2482C95.0028 16.3409 95 17.4336 94.9972 18.5262C94.0321 18.5262 93.067 18.5262 92.0727 18.5262C92.072 18.2791 92.0706 18.0319 92.0699 17.7773C92.0665 16.9596 92.0616 16.1418 92.056 15.3242C92.0532 14.8285 92.0504 14.3328 92.0484 13.8372C92.047 13.4049 92.0449 12.9726 92.0414 12.5404C92.04 12.3118 92.0386 12.0831 92.0379 11.8544C92.0372 11.5985 92.0358 11.3425 92.033 11.0867C92.033 11.0118 92.0337 10.9368 92.0337 10.8597C92.0247 10.1352 91.8861 9.51578 91.3681 8.98248C90.7142 8.57071 89.8808 8.53892 89.1371 8.69336C88.4234 8.92571 87.8928 9.37498 87.5468 10.039C87.301 10.6218 87.2578 11.1873 87.2543 11.8132C87.2536 11.8859 87.2529 11.9586 87.2522 12.0334C87.2495 12.2728 87.2481 12.5122 87.246 12.7516C87.2446 12.9179 87.2432 13.0842 87.2418 13.2505C87.2383 13.6876 87.2348 14.1247 87.2314 14.5618C87.2279 15.0081 87.2237 15.4543 87.2202 15.9006C87.2126 16.7758 87.2056 17.651 87.1986 18.5262C86.2565 18.5262 85.3145 18.5262 84.3438 18.5262C84.3438 14.4857 84.3438 10.4453 84.3438 6.28241C85.148 6.28241 85.9523 6.28241 86.7809 6.28241C86.8811 7.00413 86.8811 7.00413 86.9125 7.23148C86.9201 7.2904 86.9285 7.34939 86.9375 7.41012C86.9459 7.47065 86.9542 7.5311 86.9626 7.59343C86.9828 7.74613 86.9828 7.74613 87.0594 7.88242C87.0984 7.83448 87.1374 7.78648 87.1777 7.73709C88.6671 5.99238 91.6153 5.26983 93.5851 6.6979Z" fill="var(--fill-0, #01714D)"/>
<path id="Vector_8" d="M118.253 2.59551C119.655 2.59551 121.057 2.59551 122.501 2.59551C122.501 7.85273 122.501 13.1099 122.501 18.5264C121.099 18.5264 119.697 18.5264 118.253 18.5264C118.253 13.2692 118.253 8.01204 118.253 2.59551Z" fill="var(--fill-0, #01714D)"/>
<path id="Vector_9" d="M58.3021 6.21292C58.3021 7.10822 58.3021 8.00354 58.3021 8.92601C57.5144 8.97818 57.5144 8.97818 57.2712 8.99258C56.499 9.05053 55.7825 9.25895 55.234 9.83038C54.4183 10.8379 54.5201 12.2386 54.5132 13.4582C54.5119 13.605 54.5105 13.7518 54.5091 13.8986C54.5056 14.2817 54.5028 14.6648 54.5002 15.0479C54.4969 15.5094 54.4926 15.9707 54.4885 16.4321C54.4824 17.1302 54.4775 17.8282 54.4724 18.5263C53.5304 18.5263 52.5883 18.5263 51.6176 18.5263C51.6176 14.4858 51.6176 10.4454 51.6176 6.28249C52.4218 6.28249 53.2261 6.28249 54.0547 6.28249C54.0891 6.53932 54.1236 6.79615 54.1591 7.06077C54.17 7.14112 54.1809 7.22147 54.1921 7.30433C54.2006 7.3684 54.2091 7.43254 54.2178 7.49856C54.2266 7.56374 54.2354 7.62899 54.2443 7.6962C54.2629 7.87582 54.267 8.04995 54.2636 8.23033C54.3095 8.23033 54.3555 8.23033 54.4028 8.23033C54.4096 8.1815 54.4164 8.13259 54.4234 8.08229C54.5985 7.36798 55.1404 6.69293 55.7549 6.30504C56.6045 5.86969 57.405 5.96849 58.3021 6.21292Z" fill="var(--fill-0, #01714D)"/>
<path id="Vector_10" d="M28.083 12.961C28.0847 13.2815 28.0859 13.6021 28.0868 13.9227C28.0871 14.0316 28.0876 14.1406 28.0882 14.2496C28.0891 14.4066 28.0895 14.5635 28.0898 14.7205C28.0901 14.7689 28.0905 14.8174 28.0909 14.8672C28.0909 15.122 28.074 15.3567 28.0134 15.6045C27.9469 15.6167 27.8804 15.6289 27.8119 15.6415C23.6449 16.4107 19.7335 17.7769 16.1067 19.9872C16.0541 20.019 16.0016 20.0509 15.9475 20.0837C15.6977 20.2353 15.4489 20.3883 15.2015 20.5438C14.8504 20.2893 14.5167 20.021 14.1875 19.7394C13.8852 19.481 13.582 19.2358 13.2518 19.0133C13.3337 18.7679 13.3825 18.7464 13.5967 18.6157C13.6549 18.5799 13.7131 18.5441 13.7729 18.5071C13.8365 18.469 13.9 18.4308 13.9655 18.3915C14.0644 18.3314 14.0644 18.3314 14.1654 18.27C14.3709 18.1458 14.5771 18.0227 14.7837 17.9002C14.8438 17.8645 14.9039 17.8289 14.9658 17.7921C17.217 16.4642 19.5584 15.3554 22.0252 14.4914C22.0932 14.4672 22.1611 14.4429 22.2312 14.4179C26.3272 12.961 26.3272 12.961 28.083 12.961Z" fill="var(--fill-0, #01714D)"/>
<path id="Vector_11" d="M27.8041 16.9958C27.1978 19.4866 27.1978 19.4866 26.7597 19.7785C26.6355 19.8106 26.5099 19.8375 26.3838 19.8613C26.3069 19.8764 26.23 19.8916 26.1507 19.9072C26.0674 19.9235 25.9839 19.9399 25.898 19.9567C24.2421 20.2982 22.6606 20.8227 21.1197 21.5176C21.0193 21.5625 21.0193 21.5625 20.9168 21.6084C20.0678 21.9915 19.259 22.4142 18.4739 22.9168C18.414 22.9541 18.354 22.9914 18.2923 23.0299C18.2135 23.0805 18.2135 23.0805 18.1331 23.1322C17.9863 23.1873 17.9863 23.1873 17.8505 23.1493C17.6623 23.0159 17.5078 22.8637 17.3455 22.6997C17.3119 22.6659 17.2783 22.6322 17.2437 22.5974C17.1369 22.49 17.0307 22.3821 16.9245 22.2742C16.8519 22.201 16.7794 22.1279 16.7069 22.0548C16.5295 21.8761 16.3526 21.697 16.1759 21.5176C16.3877 21.2952 16.5838 21.1171 16.8521 20.9673C16.9149 20.932 16.9778 20.8965 17.0426 20.8601C17.1435 20.8046 17.1435 20.8046 17.2465 20.748C17.3526 20.689 17.3526 20.689 17.461 20.6289C17.682 20.5068 17.9037 20.3859 18.1256 20.2654C18.2263 20.2105 18.2263 20.2105 18.329 20.1545C20.8832 18.7697 23.5946 17.7878 26.4333 17.1697C26.5147 17.1519 26.596 17.1341 26.6798 17.1158C27.0614 17.0361 27.4141 16.9732 27.8041 16.9958Z" fill="var(--fill-0, #01714D)"/>
<path id="Vector_12" d="M26.0636 21.2394C25.9589 21.5443 25.7952 21.79 25.6066 22.0481C25.5751 22.0913 25.5437 22.1345 25.5112 22.1791C25.4174 22.3069 25.3229 22.4341 25.228 22.5612C25.183 22.6221 25.1381 22.6831 25.0918 22.746C23.9961 24.1549 22.629 25.2477 21.1199 26.1787C21.0748 26.2072 21.0298 26.2357 20.9835 26.2652C20.8698 26.3347 20.7513 26.3965 20.6325 26.457C20.4059 26.3815 20.3757 26.3484 20.2424 26.164C20.2085 26.1179 20.1747 26.0718 20.1398 26.0243C20.0863 25.95 20.0863 25.95 20.0319 25.8743C19.7286 25.4601 19.4176 25.0605 19.0826 24.6713C18.9592 24.5062 18.889 24.3552 18.8221 24.1612C20.7634 22.8954 23.6779 21.2394 26.0636 21.2394Z" fill="var(--fill-0, #01714D)"/>
<path id="Vector_13" d="M3.22524 22.8394C3.50811 22.9262 3.75442 23.0299 4.01021 23.1782C4.07857 23.2178 4.14694 23.2573 4.21738 23.2981C4.28922 23.3404 4.36105 23.3828 4.43506 23.4263C4.50945 23.47 4.58384 23.5136 4.66049 23.5586C6.12363 24.4254 7.45153 25.4582 8.70863 26.6003C8.74435 26.6327 8.78014 26.6651 8.81697 26.6984C9.06569 26.9269 9.06569 26.9269 9.14382 27.083C8.7394 27.0441 8.41263 26.8871 8.05146 26.7134C7.98726 26.6825 7.92306 26.6517 7.85692 26.6199C6.16241 25.7863 4.46764 24.5468 3.29487 23.0481C3.27189 22.9792 3.24891 22.9103 3.22524 22.8394Z" fill="var(--fill-0, #01714D)"/>
<path id="Vector_14" d="M35.1597 22.2753C35.4754 22.2753 35.7911 22.2753 36.1165 22.2753C36.2223 22.56 36.3279 22.8448 36.4333 23.1296C36.4629 23.209 36.4925 23.2885 36.5229 23.3703C36.7167 23.8942 36.8999 24.4207 37.0732 24.9518C37.2608 24.6707 37.3589 24.4312 37.4716 24.1142C37.5098 24.0074 37.548 23.9005 37.5875 23.7903C37.6269 23.6788 37.6664 23.5672 37.7071 23.4522C37.7674 23.2832 37.7674 23.2832 37.8289 23.1107C37.9282 22.8324 38.027 22.5539 38.1256 22.2753C38.4414 22.2753 38.7571 22.2753 39.0824 22.2753C39.0824 23.5686 39.0824 24.862 39.0824 26.1944C38.8614 26.1944 38.6404 26.1944 38.4126 26.1944C38.3653 25.0115 38.3653 25.0115 38.317 23.8047C38.0328 24.5934 37.7486 25.382 37.4559 26.1944C37.2349 26.1944 37.0139 26.1944 36.7862 26.1944C36.502 25.4058 36.2178 24.6172 35.9251 23.8047C35.8935 24.5934 35.862 25.382 35.8294 26.1944C35.6084 26.1944 35.3874 26.1944 35.1597 26.1944C35.1597 24.9011 35.1597 23.6078 35.1597 22.2753Z" fill="var(--fill-0, #01714D)"/>
<path id="Vector_15" d="M128.742 22.2276C128.807 22.2269 128.873 22.2263 128.939 22.2257C129.485 22.2395 129.856 22.4066 130.291 22.7234C130.526 23.0452 130.522 23.3145 130.548 23.7092C130.327 23.7092 130.106 23.7092 129.879 23.7092C129.851 23.6027 129.823 23.4963 129.795 23.3866C129.689 23.1391 129.632 23.0581 129.383 22.9463C128.869 22.83 128.454 22.8151 127.965 23.04C127.564 23.4409 127.499 23.7153 127.463 24.2648C127.47 24.6731 127.57 24.9762 127.774 25.3342C128.071 25.6137 128.336 25.6422 128.731 25.6568C129.123 25.6422 129.394 25.6176 129.687 25.3342C129.818 24.992 129.818 24.992 129.879 24.6651C129.437 24.6651 128.994 24.6651 128.539 24.6651C128.539 24.4758 128.539 24.2865 128.539 24.0915C129.202 24.0915 129.865 24.0915 130.548 24.0915C130.548 24.7856 130.548 25.4795 130.548 26.1945C130.391 26.1945 130.232 26.1945 130.07 26.1945C130.07 26.0999 130.07 26.0053 130.07 25.9077C130.02 25.9354 129.97 25.963 129.918 25.9914C129.274 26.3164 128.668 26.415 127.958 26.2416C127.488 26.0641 127.13 25.7643 126.901 25.3174C126.697 24.664 126.686 23.7019 126.961 23.07C127.403 22.3858 127.95 22.2348 128.742 22.2276Z" fill="var(--fill-0, #01714D)"/>
<path id="Vector_16" d="M81.8003 22.3443C82.1519 22.5308 82.3706 22.7703 82.5182 23.1356C82.5363 23.4522 82.5363 23.4522 82.5182 23.7091C82.3288 23.7091 82.1394 23.7091 81.9444 23.7091C81.911 23.6204 81.8776 23.5316 81.8428 23.4402C81.6541 23.1304 81.5246 23.0089 81.182 22.888C80.8164 22.8142 80.4829 22.8331 80.1264 22.9443C79.8674 23.1545 79.701 23.3167 79.5527 23.6135C79.4698 24.5757 79.4698 24.5757 79.8395 25.4297C80.2385 25.6878 80.7183 25.6727 81.1792 25.6208C81.4654 25.5151 81.6019 25.4346 81.7495 25.1661C81.8219 25.002 81.8839 24.8336 81.9444 24.665C81.5023 24.665 81.0601 24.665 80.6048 24.665C80.6048 24.4757 80.6048 24.2864 80.6048 24.0914C81.2363 24.0914 81.8678 24.0914 82.5182 24.0914C82.5182 24.7854 82.5182 25.4794 82.5182 26.1944C82.3608 26.1944 82.2028 26.1944 82.0398 26.1944C82.0085 26.0997 81.9772 26.0051 81.9444 25.9076C81.8894 25.953 81.8337 25.9983 81.7766 26.0451C81.3143 26.366 80.7663 26.3341 80.2225 26.29C79.6286 26.1686 79.3124 25.9301 78.9782 25.4297C78.7108 24.7572 78.6342 23.9197 78.9009 23.2311C79.5241 22.2006 80.6869 22.0223 81.8003 22.3443Z" fill="var(--fill-0, #01714D)"/>
<path id="Vector_17" d="M66.0627 22.2753C66.6368 22.2753 66.6368 22.2753 66.8199 22.4307C66.9009 22.543 66.9009 22.543 66.9836 22.6576C67.047 22.7431 67.1104 22.8286 67.1757 22.9168C67.2107 22.9657 67.2458 23.0145 67.2819 23.0649C67.4677 23.3218 67.6599 23.5738 67.8513 23.8266C68.0855 24.1371 68.3177 24.449 68.5503 24.7606C68.5819 23.9405 68.6134 23.1203 68.6459 22.2753C68.8669 22.2753 69.088 22.2753 69.3157 22.2753C69.3157 23.5686 69.3157 24.862 69.3157 26.1944C68.6459 26.1944 68.6459 26.1944 68.4561 26.0399C68.4071 25.9686 68.3582 25.8975 68.3077 25.8241C68.252 25.7455 68.1963 25.6671 68.139 25.5862C68.0555 25.4614 68.0555 25.4614 67.9703 25.3342C67.8575 25.1729 67.7448 25.0115 67.632 24.8502C67.5587 24.7421 67.5587 24.7421 67.484 24.6318C67.2421 24.2862 66.9857 23.9509 66.7324 23.6136C66.7009 24.4652 66.6693 25.3169 66.6368 26.1944C66.4473 26.1944 66.2579 26.1944 66.0627 26.1944C66.0627 24.9011 66.0627 23.6078 66.0627 22.2753Z" fill="var(--fill-0, #01714D)"/>
<path id="Vector_18" d="M44.8225 22.2753C45.3965 22.2753 45.3965 22.2753 45.6073 22.4583C45.6719 22.5438 45.7365 22.6293 45.8031 22.7174C45.8756 22.812 45.9482 22.9066 46.0229 23.0042C46.1014 23.1114 46.1796 23.219 46.2575 23.3267C46.3007 23.386 46.3438 23.4453 46.3882 23.5064C46.603 23.8027 46.8156 24.1004 47.026 24.3999C47.189 24.6451 47.189 24.6451 47.31 24.7606C47.3416 23.9405 47.3732 23.1203 47.4057 22.2753C47.6267 22.2753 47.8477 22.2753 48.0754 22.2753C48.0754 23.5686 48.0754 24.862 48.0754 26.1944C47.4057 26.1944 47.4057 26.1944 47.2158 26.0414C47.1668 25.9708 47.1179 25.9002 47.0675 25.8274C46.9839 25.7103 46.9839 25.7103 46.8987 25.5909C46.8431 25.5081 46.7874 25.4254 46.73 25.3402C46.6739 25.2607 46.6179 25.1813 46.5601 25.0995C46.1946 24.5787 45.8453 24.0473 45.4922 23.5179C45.4606 24.4012 45.429 25.2844 45.3965 26.1944C45.207 26.1944 45.0176 26.1944 44.8225 26.1944C44.8225 24.9011 44.8225 23.6078 44.8225 22.2753Z" fill="var(--fill-0, #01714D)"/>
<path id="Vector_19" d="M104.142 22.2753C106.557 22.2753 106.557 22.2753 107.123 22.7264C107.165 22.7825 107.208 22.8387 107.252 22.8966C107.296 22.9528 107.341 23.009 107.386 23.0669C107.73 23.6064 107.632 24.3377 107.587 24.9518C107.466 25.4152 107.284 25.6522 106.911 25.9495C106.528 26.1529 106.261 26.2061 105.833 26.2038C105.7 26.2034 105.7 26.2034 105.565 26.2031C105.452 26.2022 105.34 26.2013 105.225 26.2004C104.868 26.1985 104.51 26.1965 104.142 26.1944C104.142 24.9011 104.142 23.6078 104.142 22.2753ZM104.812 22.8488C104.812 23.7636 104.812 24.6784 104.812 25.6209C106.053 25.7356 106.053 25.7356 106.63 25.3342C106.915 24.971 106.956 24.6909 106.953 24.2349C106.954 24.1294 106.954 24.0239 106.955 23.9152C106.913 23.5822 106.828 23.4041 106.63 23.1356C106.045 22.6897 105.624 22.8488 104.812 22.8488Z" fill="var(--fill-0, #01714D)"/>
<path id="Vector_20" d="M92.8513 22.2753C95.2584 22.2753 95.2584 22.2753 95.8322 22.723C95.8747 22.7783 95.9171 22.8337 95.961 22.8906C96.0056 22.9457 96.0501 23.0008 96.0954 23.0575C96.4268 23.6075 96.3447 24.3363 96.2959 24.9518C96.1727 25.4115 95.9923 25.6538 95.6205 25.9495C95.2375 26.1529 94.9702 26.2061 94.5426 26.2038C94.4096 26.2034 94.4096 26.2034 94.2739 26.2031C94.1618 26.2022 94.0497 26.2013 93.9341 26.2004C93.5769 26.1985 93.2197 26.1965 92.8513 26.1944C92.8513 24.9011 92.8513 23.6078 92.8513 22.2753ZM93.5212 22.8488C93.5212 23.7636 93.5212 24.6784 93.5212 25.6209C94.7627 25.7356 94.7627 25.7356 95.3392 25.3342C95.624 24.971 95.6651 24.6909 95.6623 24.2349C95.663 24.1294 95.6637 24.0239 95.6644 23.9152C95.6219 23.5822 95.5369 23.4041 95.3392 23.1356C94.7543 22.6897 94.3337 22.8488 93.5212 22.8488Z" fill="var(--fill-0, #01714D)"/>
<path id="Vector_21" d="M99.3035 22.2454C99.4254 22.2438 99.5479 22.2422 99.6739 22.2406C100.195 22.2918 100.496 22.4578 100.864 22.825C101.26 23.3964 101.344 23.9861 101.271 24.665C101.151 25.235 100.977 25.6385 100.505 26.0033C99.8898 26.3601 99.2562 26.3861 98.562 26.2453C98.069 26.0888 97.8281 25.8544 97.5391 25.4298C97.2369 24.8155 97.2515 24.0558 97.3957 23.3944C97.5739 22.9365 97.8865 22.5817 98.3238 22.3597C98.6587 22.2541 98.9519 22.2465 99.3035 22.2454ZM98.4958 22.9444C98.0745 23.3879 98.0014 23.6615 97.9938 24.2648C97.991 24.3817 97.9889 24.4986 97.9861 24.6191C98.0195 24.9753 98.0899 25.1477 98.3043 25.4298C98.7625 25.7456 99.2005 25.7903 99.7401 25.7166C100.097 25.5612 100.299 25.3766 100.505 25.0474C100.688 24.4993 100.683 23.9165 100.457 23.3806C100.255 23.0221 100.021 22.9075 99.635 22.7891C99.2193 22.7073 98.8878 22.8003 98.4958 22.9444Z" fill="var(--fill-0, #01714D)"/>
<path id="Vector_22" d="M59.1206 22.2454C59.2428 22.2438 59.3651 22.2422 59.491 22.2406C60.0123 22.2918 60.3138 22.4578 60.6813 22.825C61.0973 23.4252 61.1594 24.0487 61.0879 24.7606C60.9686 25.2954 60.758 25.6573 60.3226 26.0033C59.7068 26.3601 59.0737 26.3861 58.3795 26.2453C57.8863 26.0888 57.6456 25.8544 57.3566 25.4298C57.0545 24.8155 57.0688 24.0558 57.2131 23.3944C57.3911 22.9365 57.7036 22.5817 58.1411 22.3597C58.4764 22.2541 58.7693 22.2465 59.1206 22.2454ZM58.3133 22.9444C57.8148 23.4687 57.807 23.8458 57.8148 24.5493C57.8389 24.9153 57.893 25.14 58.122 25.4298C58.5725 25.7513 59.021 25.7898 59.5571 25.7166C59.9147 25.5612 60.1166 25.3766 60.3226 25.0474C60.5037 24.5046 60.5292 23.8511 60.2747 23.3268C59.98 22.9735 59.7146 22.849 59.2701 22.7533C58.9127 22.7533 58.6491 22.8208 58.3133 22.9444Z" fill="var(--fill-0, #01714D)"/>
<path id="Vector_23" d="M83.9545 22.2755C84.5283 22.2665 84.5283 22.2665 85.1146 22.2575C85.2336 22.2549 85.3534 22.2523 85.4766 22.2496C86.4633 22.2422 86.4633 22.2422 86.9201 22.5622C87.2271 22.9096 87.2557 23.2417 87.2424 23.6887C87.1888 24.0109 87.0231 24.2212 86.8247 24.474C86.6931 24.7608 86.6931 24.7608 86.8449 25.0296C86.9263 25.1804 86.9263 25.1804 87.0099 25.3343C87.303 25.8784 87.303 25.8784 87.303 26.1946C87.0816 26.1946 86.8609 26.1946 86.6332 26.1946C86.5211 25.9757 86.4097 25.7567 86.2983 25.5374C86.2662 25.4752 86.2342 25.4129 86.2015 25.3489C85.9633 24.878 85.9633 24.878 85.9633 24.6652C85.4899 24.6652 85.0164 24.6652 84.5283 24.6652C84.5283 25.1699 84.5283 25.6746 84.5283 26.1946C84.3389 26.1946 84.1495 26.1946 83.9545 26.1946C83.9545 24.9013 83.9545 23.6079 83.9545 22.2755ZM84.5283 22.849C84.5283 23.2906 84.5283 23.7322 84.5283 24.1872C84.7754 24.1924 85.0226 24.1962 85.2698 24.1992C85.3395 24.2008 85.4091 24.2024 85.4815 24.204C85.9926 24.2108 85.9926 24.2108 86.4417 23.9961C86.5893 23.7013 86.5656 23.4599 86.5378 23.1357C86.3672 22.938 86.2314 22.8582 85.971 22.8266C85.7524 22.8207 85.5358 22.824 85.3179 22.831C85.242 22.8323 85.1661 22.8337 85.0881 22.835C84.9015 22.8383 84.7149 22.8435 84.5283 22.849Z" fill="var(--fill-0, #01714D)"/>
<path id="Vector_24" d="M108.83 22.2753C109.84 22.2753 110.85 22.2753 111.891 22.2753C111.891 22.4645 111.891 22.6538 111.891 22.8488C111.102 22.8488 110.313 22.8488 109.499 22.8488C109.499 23.1958 109.499 23.5428 109.499 23.9003C110.194 23.9003 110.888 23.9003 111.604 23.9003C111.604 24.0895 111.604 24.2788 111.604 24.4738C110.909 24.4738 110.215 24.4738 109.499 24.4738C109.499 24.8524 109.499 25.2309 109.499 25.6209C110.289 25.6209 111.078 25.6209 111.891 25.6209C111.891 25.8102 111.891 25.9994 111.891 26.1944C110.881 26.1944 109.87 26.1944 108.83 26.1944C108.83 24.9011 108.83 23.6078 108.83 22.2753Z" fill="var(--fill-0, #01714D)"/>
<path id="Vector_25" d="M137.665 22.2454C137.788 22.2438 137.91 22.2422 138.038 22.2406C138.417 22.2776 138.646 22.3633 138.968 22.5621C139.224 22.885 139.29 23.1093 139.255 23.518C139.034 23.518 138.813 23.518 138.585 23.518C138.553 23.4056 138.553 23.4056 138.52 23.291C138.415 23.0294 138.415 23.0294 138.191 22.9086C137.773 22.8179 137.348 22.8459 136.959 23.04C136.959 23.1977 136.959 23.3555 136.959 23.518C137.117 23.5759 137.274 23.6336 137.431 23.6912C137.527 23.7266 137.623 23.762 137.722 23.7984C137.972 23.8866 138.222 23.9599 138.478 24.0318C138.922 24.18 139.11 24.3575 139.351 24.7606C139.403 25.135 139.387 25.349 139.231 25.6926C138.962 26.0386 138.726 26.2051 138.298 26.2901C137.629 26.344 137.083 26.3093 136.481 26.0033C136.186 25.7315 136.104 25.6094 136.074 25.2087C136.082 25.124 136.09 25.0392 136.098 24.9518C136.319 24.9518 136.54 24.9518 136.768 24.9518C136.799 25.1411 136.83 25.3304 136.863 25.5254C137.156 25.6098 137.421 25.6366 137.725 25.6388C137.805 25.6402 137.886 25.6416 137.97 25.643C138.217 25.6196 138.372 25.5546 138.585 25.4298C138.626 25.2029 138.626 25.2029 138.585 24.9518C138.171 24.6448 137.69 24.5226 137.201 24.385C136.753 24.2477 136.486 24.0746 136.193 23.7092C136.113 23.4445 136.134 23.2137 136.193 22.9444C136.572 22.3229 136.963 22.2476 137.665 22.2454Z" fill="var(--fill-0, #01714D)"/>
<path id="Vector_26" d="M74.6728 22.2753C75.6518 22.2753 76.6308 22.2753 77.639 22.2753C77.639 22.4645 77.639 22.6538 77.639 22.8488C76.8494 22.8488 76.0605 22.8488 75.2472 22.8488C75.2472 23.1958 75.2472 23.5428 75.2472 23.9003C75.9735 23.9003 76.6997 23.9003 77.4475 23.9003C77.4475 24.0895 77.4475 24.2788 77.4475 24.4738C76.7213 24.4738 75.9951 24.4738 75.2472 24.4738C75.2472 24.8524 75.2472 25.2309 75.2472 25.6209C76.0682 25.6209 76.8891 25.6209 77.7344 25.6209C77.7344 25.8102 77.7344 25.9994 77.7344 26.1944C76.7241 26.1944 75.7138 26.1944 74.6728 26.1944C74.6728 24.9011 74.6728 23.6078 74.6728 22.2753Z" fill="var(--fill-0, #01714D)"/>
<path id="Vector_27" d="M49.511 22.2753C50.4898 22.2753 51.4685 22.2753 52.477 22.2753C52.477 22.4645 52.477 22.6538 52.477 22.8488C51.6877 22.8488 50.8983 22.8488 50.0851 22.8488C50.0851 23.1958 50.0851 23.5428 50.0851 23.9003C50.8112 23.9003 51.5374 23.9003 52.2856 23.9003C52.2856 24.0895 52.2856 24.2788 52.2856 24.4738C51.5594 24.4738 50.8332 24.4738 50.0851 24.4738C50.0851 24.8524 50.0851 25.2309 50.0851 25.6209C50.9059 25.6209 51.7269 25.6209 52.5727 25.6209C52.5727 25.8102 52.5727 25.9994 52.5727 26.1944C51.5623 26.1944 50.5519 26.1944 49.511 26.1944C49.511 24.9011 49.511 23.6078 49.511 22.2753Z" fill="var(--fill-0, #01714D)"/>
<path id="Vector_28" d="M114.857 22.2753C115.407 22.2664 115.407 22.2664 115.969 22.2573C116.141 22.2534 116.141 22.2534 116.316 22.2494C116.856 22.2452 117.267 22.2448 117.727 22.562C118.055 22.9224 118.063 23.295 118.048 23.7625C117.997 24.1121 117.869 24.3125 117.632 24.5694C117.201 24.8056 116.787 24.783 116.31 24.7725C116.197 24.7713 116.197 24.7713 116.081 24.77C115.897 24.7677 115.711 24.7643 115.527 24.7606C115.527 25.2338 115.527 25.707 115.527 26.1944C115.305 26.1944 115.085 26.1944 114.857 26.1944C114.857 24.9011 114.857 23.6078 114.857 22.2753ZM115.527 22.8488C115.527 23.2904 115.527 23.732 115.527 24.1871C115.776 24.1948 116.025 24.2005 116.274 24.205C116.345 24.2074 116.415 24.2098 116.488 24.2122C116.89 24.2227 116.89 24.2227 117.245 24.0568C117.385 23.8373 117.428 23.6833 117.44 23.4224C117.272 23.0674 117.272 23.0674 116.962 22.8488C116.718 22.842 116.476 22.8399 116.232 22.8428C116.131 22.8435 116.131 22.8435 116.028 22.8441C115.86 22.8452 115.693 22.847 115.527 22.8488Z" fill="var(--fill-0, #01714D)"/>
<path id="Vector_29" d="M133.213 22.266C133.409 22.269 133.606 22.2722 133.801 22.2753C134.959 25.0804 134.959 25.0804 135.333 26.1944C135.08 26.1944 134.827 26.1944 134.567 26.1944C134.425 25.7213 134.425 25.7213 134.28 25.2386C133.68 25.2386 133.08 25.2386 132.463 25.2386C132.43 25.3963 132.399 25.554 132.366 25.7165C132.306 25.877 132.243 26.0367 132.175 26.1944C131.954 26.1944 131.733 26.1944 131.506 26.1944C131.713 25.4227 132 24.6862 132.3 23.9465C132.38 23.7485 132.459 23.5503 132.538 23.352C132.969 22.2788 132.969 22.2788 133.213 22.266ZM133.323 22.9444C133.227 23.1931 133.132 23.4421 133.036 23.6912C133.009 23.7618 132.981 23.8323 132.953 23.905C132.928 23.973 132.902 24.0411 132.875 24.1113C132.851 24.1739 132.827 24.2364 132.802 24.3009C132.735 24.4894 132.735 24.4894 132.749 24.7606C133.16 24.7606 133.57 24.7606 133.993 24.7606C133.916 24.2986 133.822 23.9577 133.652 23.5299C133.609 23.4198 133.565 23.3096 133.52 23.1961C133.487 23.113 133.453 23.03 133.419 22.9444C133.387 22.9444 133.356 22.9444 133.323 22.9444Z" fill="var(--fill-0, #01714D)"/>
<path id="Vector_30" d="M123.932 22.266C124.128 22.269 124.325 22.2722 124.521 22.2753C124.868 23.1066 125.214 23.9389 125.556 24.7726C125.627 24.947 125.627 24.947 125.701 25.1251C125.769 25.291 125.769 25.291 125.838 25.4604C125.879 25.5602 125.921 25.66 125.962 25.7628C126.051 26.0033 126.051 26.0033 126.051 26.1944C125.831 26.1944 125.61 26.1944 125.382 26.1944C125.318 26.0712 125.254 25.9477 125.191 25.8241C125.155 25.7553 125.12 25.6865 125.083 25.6157C124.999 25.4298 124.999 25.4298 124.999 25.2386C124.399 25.2386 123.8 25.2386 123.181 25.2386C123.15 25.4278 123.118 25.6171 123.086 25.8121C122.984 26.0391 122.984 26.0391 122.894 26.1944C122.674 26.1944 122.452 26.1944 122.225 26.1944C122.432 25.4227 122.719 24.6862 123.018 23.9465C123.098 23.7485 123.178 23.5503 123.257 23.352C123.689 22.2788 123.689 22.2788 123.932 22.266ZM124.043 23.04C123.947 23.2908 123.851 23.5417 123.756 23.7928C123.728 23.8642 123.701 23.9355 123.672 24.009C123.523 24.3744 123.523 24.3744 123.468 24.7606C123.91 24.7606 124.353 24.7606 124.808 24.7606C124.717 24.4914 124.625 24.2227 124.533 23.9541C124.507 23.8774 124.481 23.8006 124.455 23.7216C124.43 23.6486 124.404 23.5757 124.378 23.5004C124.355 23.4328 124.332 23.3652 124.308 23.2957C124.245 23.1164 124.245 23.1164 124.043 23.04Z" fill="var(--fill-0, #01714D)"/>
<path id="Vector_31" d="M89.5991 22.2753C89.8511 22.2753 90.1039 22.2753 90.3643 22.2753C90.7229 22.945 90.9944 23.6454 91.266 24.3532C91.3454 24.5592 91.4255 24.7648 91.5055 24.9705C91.5564 25.1014 91.6065 25.2323 91.6573 25.3633C91.6928 25.4554 91.6928 25.4554 91.7297 25.5494C91.8948 25.9813 91.8948 25.9813 91.8948 26.1944C91.674 26.1944 91.4533 26.1944 91.2249 26.1944C91.0989 25.9105 90.9729 25.6266 90.8427 25.3342C90.2745 25.3342 89.7056 25.3342 89.1207 25.3342C88.994 25.6181 88.8679 25.902 88.7377 26.1944C88.517 26.1944 88.2956 26.1944 88.0679 26.1944C88.5511 24.8773 89.0741 23.5764 89.5991 22.2753ZM89.9813 23.04C89.7133 23.6053 89.4605 24.1517 89.3115 24.7606C89.7536 24.7606 90.1958 24.7606 90.6512 24.7606C90.4806 24.1765 90.2981 23.607 90.0774 23.04C90.0454 23.04 90.0141 23.04 89.9813 23.04Z" fill="var(--fill-0, #01714D)"/>
<path id="Vector_32" d="M41.7461 22.266C41.9423 22.269 42.1385 22.2722 42.3348 22.2753C42.4918 22.6489 42.6482 23.0227 42.8043 23.3967C42.8572 23.5233 42.9102 23.65 42.9634 23.7765C43.298 24.5723 43.6068 25.3702 43.8656 26.1944C43.6446 26.1944 43.4236 26.1944 43.1958 26.1944C43.1316 26.0712 43.0679 25.9477 43.0045 25.8241C42.9689 25.7553 42.9334 25.6865 42.8969 25.6157C42.8131 25.4298 42.8131 25.4298 42.8131 25.2386C42.2132 25.2386 41.6133 25.2386 40.9953 25.2386C40.9637 25.3963 40.9321 25.554 40.8996 25.7165C40.8389 25.877 40.7759 26.0367 40.7083 26.1944C40.4873 26.1944 40.2663 26.1944 40.0385 26.1944C40.2461 25.4227 40.5331 24.6862 40.8325 23.9465C40.9126 23.7485 40.9919 23.5503 41.0712 23.352C41.5025 22.2788 41.5025 22.2788 41.7461 22.266ZM41.8564 23.04C41.7601 23.2728 41.6645 23.5058 41.5693 23.739C41.5419 23.805 41.5146 23.871 41.4864 23.9389C41.3695 24.2268 41.2823 24.447 41.2823 24.7606C41.7243 24.7606 42.1664 24.7606 42.6218 24.7606C42.5309 24.4914 42.4391 24.2227 42.3467 23.9541C42.3209 23.8774 42.2951 23.8006 42.2686 23.7216C42.2433 23.6486 42.2181 23.5757 42.192 23.5004C42.169 23.4328 42.1459 23.3652 42.1222 23.2957C42.059 23.1164 42.059 23.1164 41.8564 23.04Z" fill="var(--fill-0, #01714D)"/>
<path id="Vector_33" d="M70.3691 22.2753C71.4428 22.2753 72.5158 22.2753 73.6222 22.2753C73.6222 22.4645 73.6222 22.6538 73.6222 22.8488C73.1801 22.8488 72.7379 22.8488 72.2826 22.8488C72.2826 23.9529 72.2826 25.057 72.2826 26.1944C72.0618 26.1944 71.8404 26.1944 71.6127 26.1944C71.6127 25.0904 71.6127 23.9863 71.6127 22.8488C71.2026 22.8488 70.7918 22.8488 70.3691 22.8488C70.3691 22.6595 70.3691 22.4703 70.3691 22.2753Z" fill="var(--fill-0, #01714D)"/>
<path id="Vector_34" d="M55.3471 22.2753C55.5365 22.2753 55.726 22.2753 55.9212 22.2753C55.9306 22.7276 55.9376 23.18 55.9422 23.6324C55.9441 23.7861 55.9467 23.9398 55.95 24.0935C55.9547 24.3152 55.9568 24.5367 55.9585 24.7584C55.9605 24.8265 55.9625 24.8946 55.9645 24.9648C55.9648 25.4521 55.8451 25.724 55.5384 26.0989C55.1339 26.3529 54.6627 26.343 54.199 26.29C53.8883 26.1772 53.6978 26.0959 53.4934 25.836C53.4105 25.538 53.4217 25.2592 53.4336 24.9518C53.623 24.9518 53.8124 24.9518 54.0076 24.9518C54.0352 25.0444 54.0629 25.1371 54.0914 25.2326C54.1648 25.5355 54.1648 25.5355 54.3904 25.6209C54.6733 25.6687 54.6733 25.6687 54.9644 25.6209C55.2618 25.248 55.2904 24.9369 55.3004 24.469C55.3021 24.406 55.3038 24.3431 55.3056 24.2781C55.3107 24.0786 55.314 23.8789 55.3172 23.6792C55.3204 23.5433 55.3237 23.4073 55.3271 23.2713C55.3352 22.9393 55.3416 22.6074 55.3471 22.2753Z" fill="var(--fill-0, #01714D)"/>
<path id="Vector_35" d="M119.163 22.2753C119.353 22.2753 119.542 22.2753 119.738 22.2753C119.738 23.3793 119.738 24.4834 119.738 25.6209C120.369 25.6209 121 25.6209 121.651 25.6209C121.651 25.8102 121.651 25.9994 121.651 26.1944C120.83 26.1944 120.009 26.1944 119.163 26.1944C119.163 24.9011 119.163 23.6078 119.163 22.2753Z" fill="var(--fill-0, #01714D)"/>
<path id="Vector_36" d="M64.0532 22.2753C64.2427 22.2753 64.4321 22.2753 64.6272 22.2753C64.6272 23.5686 64.6272 24.862 64.6272 26.1944C64.4378 26.1944 64.2484 26.1944 64.0532 26.1944C64.0532 24.9011 64.0532 23.6078 64.0532 22.2753Z" fill="var(--fill-0, #01714D)"/>
</g>
</svg>
