<svg preserveAspectRatio="none" width="100%" height="100%" overflow="visible" style="display: block;" viewBox="0 0 31.6667 36.6667" fill="none" xmlns="http://www.w3.org/2000/svg">
<path id="Vector" d="M21.6667 0H3.33333C1.5 0 0 1.5 0 3.33333V25C0 25.9167 0.75 26.6667 1.66667 26.6667C2.58333 26.6667 3.33333 25.9167 3.33333 25V5C3.33333 4.08333 4.08333 3.33333 5 3.33333H21.6667C22.5833 3.33333 23.3333 2.58333 23.3333 1.66667C23.3333 0.75 22.5833 0 21.6667 0ZM28.3333 6.66667H10C8.16667 6.66667 6.66667 8.16667 6.66667 10V33.3333C6.66667 35.1667 8.16667 36.6667 10 36.6667H28.3333C30.1667 36.6667 31.6667 35.1667 31.6667 33.3333V10C31.6667 8.16667 30.1667 6.66667 28.3333 6.66667ZM26.6667 33.3333H11.6667C10.75 33.3333 10 32.5833 10 31.6667V11.6667C10 10.75 10.75 10 11.6667 10H26.6667C27.5833 10 28.3333 10.75 28.3333 11.6667V31.6667C28.3333 32.5833 27.5833 33.3333 26.6667 33.3333Z" fill="#9CA47E"/>
</svg>
