<svg preserveAspectRatio="none" width="100%" height="100%" overflow="visible" style="display: block;" viewBox="0 0 33.3333 33.3333" fill="none" xmlns="http://www.w3.org/2000/svg">
<path id="Vector" d="M16.65 0C7.45 0 0 7.46667 0 16.6667C0 25.8667 7.45 33.3333 16.65 33.3333C25.8667 33.3333 33.3333 25.8667 33.3333 16.6667C33.3333 7.46667 25.8667 0 16.65 0ZM16.6667 30C9.3 30 3.33333 24.0333 3.33333 16.6667C3.33333 9.3 9.3 3.33333 16.6667 3.33333C24.0333 3.33333 30 9.3 30 16.6667C30 24.0333 24.0333 30 16.6667 30ZM16.3 8.33333H16.2C15.5333 8.33333 15 8.86667 15 9.53333V17.4C15 17.9833 15.3 18.5333 15.8167 18.8333L22.7333 22.9833C23.3 23.3167 24.0333 23.15 24.3667 22.5833C24.7167 22.0167 24.5333 21.2667 23.95 20.9333L17.5 17.1V9.53333C17.5 8.86667 16.9667 8.33333 16.3 8.33333V8.33333Z" fill="#9CA47E"/>
</svg>
