<svg preserveAspectRatio="none" width="100%" height="100%" overflow="visible" style="display: block;" viewBox="0 0 11.5544 206.758" fill="none" xmlns="http://www.w3.org/2000/svg">
<g id="Group">
<path id="Vector" d="M11.4909 0.136195C11.3572 0.00141682 11.0787 -0.0411481 10.867 0.0439749C8.75039 0.884564 6.71172 1.75708 4.79559 2.64023C4.59507 2.73245 4.55051 2.91688 4.69533 3.04457C4.78445 3.1226 4.92371 3.16516 5.05739 3.16516C5.15208 3.16516 5.24677 3.14388 5.32476 3.10841C7.22417 2.23235 9.24613 1.36694 11.3405 0.529894C11.5522 0.448318 11.619 0.267423 11.4853 0.132645L11.4909 0.136195Z" fill="var(--fill-0, #58595B)"/>
<path id="Vector_2" d="M3.87682 206.18C2.59569 206.159 1.29227 206.123 0 206.098V206.677C1.2867 206.705 2.57897 206.74 3.85454 206.758H3.86568C4.11076 206.758 4.31129 206.634 4.31686 206.478C4.31686 206.315 4.12747 206.183 3.87682 206.18Z" fill="var(--fill-0, #58595B)"/>
</g>
</svg>
