<svg preserveAspectRatio="none" width="100%" height="100%" overflow="visible" style="display: block;" viewBox="0 0 20 20" fill="none" xmlns="http://www.w3.org/2000/svg">
<g id="SVG" clip-path="url(#clip0_2373_1477)">
<path id="Vector" d="M14.6075 12.3317C14.36 12.2075 13.1425 11.6092 12.9158 11.5259C12.6883 11.4434 12.5233 11.4025 12.3575 11.6509C12.1933 11.8984 11.7183 12.4559 11.5741 12.6209C11.43 12.7867 11.285 12.8067 11.0375 12.6834C10.79 12.5584 9.99162 12.2975 9.04579 11.4542C8.30995 10.7975 7.81245 9.98671 7.66829 9.73838C7.52412 9.49088 7.65329 9.35671 7.77662 9.23338C7.88829 9.12255 8.02495 8.94421 8.14829 8.80005C8.27245 8.65505 8.31329 8.55171 8.39662 8.38588C8.47912 8.22088 8.43829 8.07671 8.37579 7.95255C8.31329 7.82838 7.81829 6.60921 7.61245 6.11338C7.41079 5.63088 7.20662 5.69671 7.05495 5.68838C6.91079 5.68171 6.74579 5.68005 6.57995 5.68005C6.41495 5.68005 6.14662 5.74171 5.91995 5.99005C5.69329 6.23755 5.05329 6.83671 5.05329 8.05588C5.05329 9.27421 5.94079 10.4517 6.06412 10.6175C6.18829 10.7825 7.81079 13.2842 10.295 14.3567C10.8858 14.6117 11.3466 14.7642 11.7066 14.8775C12.3 15.0667 12.84 15.04 13.2658 14.9759C13.7416 14.905 14.7308 14.3767 14.9375 13.7984C15.1441 13.22 15.1441 12.7242 15.0816 12.6209C15.02 12.5175 14.8558 12.4559 14.6075 12.3317ZM10.0891 18.5009H10.0858C8.61059 18.501 7.16252 18.1044 5.89329 17.3525L5.59245 17.1742L2.47495 17.9925L3.30662 14.9525L3.11079 14.6409C2.28615 13.3278 1.8499 11.8081 1.85245 10.2575C1.85329 5.71588 5.54912 2.02088 10.0925 2.02088C12.2925 2.02088 14.3608 2.87921 15.9158 4.43588C16.683 5.19973 17.2911 6.10815 17.705 7.10858C18.1188 8.10901 18.3301 9.18158 18.3266 10.2642C18.3241 14.8059 14.6291 18.5009 10.0891 18.5009ZM17.1 3.25338C16.1818 2.32915 15.0893 1.59633 13.8859 1.09738C12.6824 0.598434 11.3919 0.343283 10.0891 0.346714C4.62662 0.346714 0.180787 4.79255 0.178287 10.2567C0.178287 12.0034 0.63412 13.7084 1.50162 15.2109L0.0949535 20.3467L5.34912 18.9684C6.80211 19.76 8.43032 20.1748 10.085 20.175H10.0891C15.5508 20.175 19.9975 15.7292 20 10.2642C20.004 8.96194 19.7498 7.6718 19.252 6.46841C18.7542 5.26502 18.0228 4.17227 17.1 3.25338Z" fill="#1a1f16"/>
</g>
<defs>
<clipPath id="clip0_2373_1477">
<rect width="20" height="20" fill="white"/>
</clipPath>
</defs>
</svg>
